<?xml version="1.0" encoding="UTF-8"?>
<svg version="1.1" xmlns="http://www.w3.org/2000/svg" width="200" height="200">
<path d="M0 0 C1.75766693 -0.01279495 1.75766693 -0.01279495 3.55084229 -0.02584839 C4.82266357 -0.02494202 6.09448486 -0.02403564 7.40484619 -0.02310181 C8.76880255 -0.0290916 10.13275553 -0.03589819 11.4967041 -0.04345703 C15.19113554 -0.06108076 18.88547424 -0.06581094 22.57994366 -0.0670886 C24.89203281 -0.06851309 27.20409861 -0.07278838 29.51618195 -0.07808304 C37.5936685 -0.09657301 45.67108917 -0.10475516 53.74859619 -0.10317993 C61.25923091 -0.10197958 68.76957777 -0.12306348 76.28013968 -0.15466726 C82.74322213 -0.18088699 89.20621092 -0.19154481 95.66934609 -0.19026911 C99.52282863 -0.18976105 103.37605534 -0.19535732 107.22948456 -0.21662521 C110.85758406 -0.23610351 114.48518627 -0.2360675 118.11330414 -0.22159195 C120.06512382 -0.21853053 122.01694407 -0.23511396 123.96868896 -0.25247192 C135.01054304 -0.1741749 144.60226863 2.91517958 153.03082275 10.26742554 C162.22699944 20.76585802 164.48279741 29.39048604 164.43487549 43.05209351 C164.44058634 44.43605091 164.44755335 45.82000361 164.45567322 47.20394897 C164.47354251 50.94376537 164.47244791 54.68334632 164.46673083 58.4231925 C164.46362945 61.55418192 164.46974206 64.68512673 164.47576958 67.81610978 C164.48979319 75.20763465 164.48827204 82.5990439 164.47686768 89.99057007 C164.46539267 97.59555362 164.47945649 105.20018425 164.50626415 112.8051213 C164.52847519 119.35318054 164.53504628 125.90112943 164.52918774 132.44922364 C164.52582934 136.35184378 164.52815815 140.25423784 164.54543877 144.15682602 C164.56099211 147.82929409 164.55686065 151.50124263 164.53813362 155.1736908 C164.53273567 157.14933092 164.54689842 159.12499485 164.56182861 161.10058594 C164.46573263 172.79723293 161.25867032 181.8201687 153.03082275 190.26742554 C142.86446576 198.80849218 134.26381142 200.71714136 121.24615479 200.67147827 C119.86219738 200.67718912 118.47824468 200.68415613 117.09429932 200.692276 C113.35448292 200.71014529 109.61490197 200.70905069 105.87505579 200.70333362 C102.74406637 200.70023223 99.61312156 200.70634484 96.48213851 200.71237236 C89.09061364 200.72639597 81.69920439 200.72487482 74.30767822 200.71347046 C66.70269467 200.70199545 59.09806404 200.71605928 51.49312699 200.74286693 C44.94506775 200.76507798 38.39711886 200.77164906 31.84902465 200.76579052 C27.94640451 200.76243212 24.04401045 200.76476093 20.14142227 200.78204155 C16.46895421 200.79759489 12.79700566 200.79346344 9.1245575 200.7747364 C7.14891737 200.76933845 5.17325344 200.7835012 3.19766235 200.7984314 C-9.12015414 200.69723208 -18.22261662 197.05930513 -26.96917725 188.26742554 C-29.36271296 185.09284132 -31.28923273 181.86805429 -32.96917725 178.26742554 C-33.48137817 177.1718634 -33.9935791 176.07630127 -34.52130127 174.94754028 C-36.71009731 169.00950935 -36.40362799 162.95209481 -36.38909912 156.6980896 C-36.39645003 155.33707996 -36.40503922 153.97607653 -36.4147644 152.61508179 C-36.43688601 148.93712539 -36.43991568 145.25939367 -36.43801689 141.58137989 C-36.43789671 138.50028259 -36.44648036 135.41923207 -36.45479441 132.33814788 C-36.47399622 125.06161198 -36.47692468 117.78519076 -36.47015381 110.50863647 C-36.46352093 103.02859597 -36.48635405 95.54904956 -36.52346754 88.0691092 C-36.55427061 81.62462364 -36.56551298 75.18029612 -36.56163073 68.73573852 C-36.55957349 64.89670519 -36.56488141 61.05805623 -36.58952332 57.21909332 C-36.61196348 53.6039894 -36.60977194 49.98968196 -36.58959579 46.37457275 C-36.58461881 44.43508074 -36.60408088 42.49557268 -36.62460327 40.55618286 C-36.510315 28.49481688 -32.81974917 19.15189344 -24.43792725 10.46273804 C-17.41706087 4.21949926 -9.51999392 0.03147095 0 0 Z " fill="#0A0A0A" transform="translate(35.96917724609375,-0.267425537109375)"/>
<path d="M0 0 C1.47583955 0.0001591 2.95168467 0.00585225 4.42749023 0.01586914 C5.20293686 0.01728409 5.97838348 0.01869904 6.77732849 0.02015686 C9.26361893 0.02577194 11.74982059 0.03832693 14.23608398 0.05102539 C15.91772331 0.05603845 17.59936405 0.06060169 19.28100586 0.06469727 C23.41189965 0.07574626 27.54272674 0.09302094 31.67358398 0.11352539 C33.53110699 5.18333194 35.38234911 10.25537035 37.2277832 15.32958984 C37.85659005 17.05580585 38.48711503 18.781397 39.11938477 20.50634766 C40.02738583 22.98446359 40.92920409 25.46475381 41.82983398 27.94555664 C42.25637268 29.10351494 42.25637268 29.10351494 42.69152832 30.28486633 C43.79954796 33.35226375 44.67358398 35.82558658 44.67358398 39.11352539 C29.32858398 39.60852539 29.32858398 39.60852539 13.67358398 40.11352539 C11.52118987 45.87046908 9.37013866 51.62788328 7.22216797 57.38647461 C6.49470749 59.3356403 5.76654438 61.28454394 5.03759766 63.2331543 C0.63374506 75.00715359 -3.66037215 86.80960687 -7.78369141 98.68481445 C-9.72175567 104.26462323 -11.7327555 109.81701923 -13.76391602 115.36352539 C-14.93954102 118.58102539 -16.11516602 121.79852539 -17.32641602 125.11352539 C-27.55641602 125.11352539 -37.78641602 125.11352539 -48.32641602 125.11352539 C-46.07835501 114.99725087 -46.07835501 114.99725087 -44.40844727 110.68774414 C-43.85640625 109.24238281 -43.85640625 109.24238281 -43.29321289 107.76782227 C-42.91229492 106.7887793 -42.53137695 105.80973633 -42.13891602 104.80102539 C-39.35554175 97.59203643 -36.69018348 90.35419283 -34.15454102 83.05493164 C-30.07712157 71.32387284 -25.83375231 59.65428318 -21.58300781 47.98510742 C-20.26091733 44.35529245 -18.94099286 40.72469518 -17.62133789 37.09399414 C-14.02705178 27.21175133 -10.43102477 17.32985165 -6.76782227 7.47290039 C-6.31221924 6.24539062 -5.85661621 5.01788086 -5.38720703 3.75317383 C-3.93286526 0.13422256 -3.93286526 0.13422256 0 0 Z " fill="#FBFBFB" transform="translate(86.326416015625,37.886474609375)"/>
<path d="M0 0 C8.58 0 17.16 0 26 0 C30.49972946 10.12439128 30.49972946 10.12439128 32.02709961 14.22167969 C32.37103256 15.14003601 32.71496552 16.05839233 33.06932068 17.00457764 C33.42671829 17.96728577 33.78411591 18.9299939 34.15234375 19.921875 C34.5343544 20.94371887 34.91636505 21.96556274 35.30995178 23.01837158 C36.52175112 26.26127802 37.72978187 29.50557171 38.9375 32.75 C40.13986109 35.97305276 41.34301508 39.19580755 42.54678345 42.41833496 C43.31889127 44.4863534 44.08988678 46.55478751 44.85971069 48.62365723 C47.23215762 54.9899449 49.66838158 61.32315498 52.22485352 67.61816406 C53 70 53 70 53 74 C43.76 74 34.52 74 25 74 C24.01 71.03 23.02 68.06 22 65 C21.25460329 62.88110183 20.50145724 60.76490337 19.73828125 58.65234375 C19.14370117 57.00395508 19.14370117 57.00395508 18.53710938 55.32226562 C18.13298828 54.20529297 17.72886719 53.08832031 17.3125 51.9375 C16.89677734 50.78572266 16.48105469 49.63394531 16.05273438 48.44726562 C15.03613076 45.63115676 14.01853088 42.81541226 13 40 C12.67201416 40.95890137 12.34402832 41.91780273 12.00610352 42.90576172 C10.7905581 46.45833036 9.57317206 50.01026593 8.35522461 53.56201172 C7.82802792 55.10025054 7.30133269 56.63866132 6.77514648 58.17724609 C6.01938067 60.38684606 5.26182236 62.59582433 4.50390625 64.8046875 C4.26845596 65.49432587 4.03300568 66.18396423 3.79042053 66.89450073 C2.11387171 71.77225659 2.11387171 71.77225659 1 74 C-8.24 74 -17.48 74 -27 74 C-26.27951809 68.95662665 -25.7039711 65.68851678 -23.92578125 61.15625 C-23.50844727 60.0822998 -23.09111328 59.00834961 -22.66113281 57.90185547 C-22.21608398 56.77924316 -21.77103516 55.65663086 -21.3125 54.5 C-20.6313916 52.75614014 -20.6313916 52.75614014 -19.93652344 50.97705078 C-17.12134238 43.78459425 -14.25822967 36.61148989 -11.3671875 29.44921875 C-9.33065524 24.31133878 -7.40954215 19.13257581 -5.4921875 13.94921875 C-3.72591717 9.27461325 -1.8559001 4.63975024 0 0 Z " fill="#FAFAFA" transform="translate(109,89)"/>
</svg>
