<?xml version="1.0" encoding="UTF-8"?>
<svg version="1.1" xmlns="http://www.w3.org/2000/svg" width="200" height="200">
<path d="M0 0 C66 0 132 0 200 0 C200 66 200 132 200 200 C134 200 68 200 0 200 C0 134 0 68 0 0 Z " fill="#000000" transform="translate(0,0)"/>
<path d="M0 0 C6.6 0 13.2 0 20 0 C20 6.6 20 13.2 20 20 C26.6 20 33.2 20 40 20 C40 13.4 40 6.8 40 0 C53.2 0 66.4 0 80 0 C80 19.8 80 39.6 80 60 C66.8 60 53.6 60 40 60 C40 53.4 40 46.8 40 40 C33.4 40 26.8 40 20 40 C20 46.6 20 53.2 20 60 C13.4 60 6.8 60 0 60 C0 40.2 0 20.4 0 0 Z " fill="#FFFFFF" transform="translate(60,70)"/>
<path d="M0 0 C6.6 0 13.2 0 20 0 C20 6.6 20 13.2 20 20 C33.2 20 46.4 20 60 20 C60 26.6 60 33.2 60 40 C46.8 40 33.6 40 20 40 C20 46.6 20 53.2 20 60 C13.4 60 6.8 60 0 60 C0 40.2 0 20.4 0 0 Z " fill="#FFFFFF" transform="translate(60,70)"/>
<path d="M0 0 C6.6 0 13.2 0 20 0 C20 6.6 20 13.2 20 20 C13.4 20 6.8 20 0 20 C0 13.4 0 6.8 0 0 Z " fill="#000000" transform="translate(100,90)"/>
</svg>
