<?xml version="1.0" encoding="UTF-8"?>
<svg version="1.1" xmlns="http://www.w3.org/2000/svg" width="400" height="400">
<path d="M0 0 C132 0 264 0 400 0 C400 132 400 264 400 400 C268 400 136 400 0 400 C0 268 0 136 0 0 Z " fill="#000FD8" transform="translate(0,0)"/>
<path d="M0 0 C0.99 0.99 0.99 0.99 2 2 C5.76317731 1.58947157 9.12426808 -0.38955908 12.5 -2 C17.51811018 -4.39396082 21.54305811 -6.12376569 27.1171875 -6.1328125 C27.88933594 -6.13410156 28.66148437 -6.13539062 29.45703125 -6.13671875 C30.25496094 -6.13285156 31.05289063 -6.12898438 31.875 -6.125 C32.66519531 -6.12886719 33.45539063 -6.13273437 34.26953125 -6.13671875 C38.6251962 -6.12947139 42.71160502 -5.86871024 47 -5 C47 -4.34 47 -3.68 47 -3 C47.78375 -2.95875 48.5675 -2.9175 49.375 -2.875 C59.6546843 -0.39369689 69.35786412 7.66969865 75.25 16.3125 C78.04776919 21.20669025 79.08194973 26.24889341 80.3125 31.6875 C82.09341368 39.58396097 82.09341368 39.58396097 87.5625 45.375 C89.02948444 46.27027408 90.50715519 47.1485463 92 48 C97.92670062 53.92670062 99.18314476 60.91737281 99.375 69.0625 C99.23074777 74.66429511 98.71793054 79.08919368 96 84 C95.5978125 84.74894531 95.195625 85.49789062 94.78125 86.26953125 C90.57398359 93.31670249 85.2451234 97.20398625 77.75 100.375 C72.13556965 101.31073839 66.68864989 101.11729175 61 101 C61 96.71 61 92.42 61 88 C63.64 87.67 66.28 87.34 69 87 C65.04 86.67 61.08 86.34 57 86 C57 86.66 57 87.32 57 88 C54.525 88.495 54.525 88.495 52 89 C51.17836864 92.59290338 50.87154245 95.9149269 50.8671875 99.59765625 C50.86525391 101.17063477 50.86525391 101.17063477 50.86328125 102.77539062 C50.86714844 103.86013672 50.87101563 104.94488281 50.875 106.0625 C50.87113281 107.15111328 50.86726562 108.23972656 50.86328125 109.36132812 C50.86457031 110.40869141 50.86585938 111.45605469 50.8671875 112.53515625 C50.86887939 113.96420288 50.86887939 113.96420288 50.87060547 115.42211914 C50.99107638 117.82221786 51.14538137 119.75593491 52 122 C52.99 122.66 53.98 123.32 55 124 C55 125.32 55 126.64 55 128 C56.9490625 127.9690625 56.9490625 127.9690625 58.9375 127.9375 C72.38435155 127.97991909 72.38435155 127.97991909 77 132 C78.37385431 132.54456599 79.74898493 133.08591717 81.125 133.625 C83.45417629 134.78525882 84.70863018 135.46463757 85.9609375 137.765625 C86.58492941 140.20733249 86.83666634 142.48253124 87 145 C87.07992187 146.15113281 87.15984375 147.30226563 87.2421875 148.48828125 C87.61828 158.96356358 87.61828 158.96356358 85.125 162.75 C80.05282317 168.12054017 74.7687079 169.46161316 67.5 170.5 C61.06054618 169.58007803 54.95806433 166.91892617 50.875 161.6875 C48.55651827 157.55794836 49.09421797 153.80182358 49.4375 149.25 C49.76868575 144.42157131 49.5681486 141.19199774 46.453125 137.33203125 C42.82239959 133.48412113 39.08577841 129.69525947 34 128 C34 120.41 34 112.82 34 105 C29.71010722 103.57003574 25.43101037 103.61455684 20.93359375 103.37890625 C18 103 18 103 16 101 C15.59952556 98.67724823 15.2602896 96.34260643 15 94 C13.68 94.33 12.36 94.66 11 95 C10.34 94.01 9.68 93.02 9 92 C8.67 110.48 8.34 128.96 8 148 C9.32 148.33 10.64 148.66 12 149 C12 149.66 12 150.32 12 151 C13.65 150.67 15.3 150.34 17 150 C18.00418929 156.25107833 18.33398114 162.44794995 18.60546875 168.76757812 C18.70124893 173.01934814 18.70124893 173.01934814 20 177 C16.25 180.875 16.25 180.875 14 182 C13.525625 182.804375 13.05125 183.60875 12.5625 184.4375 C11 187 11 187 8 189 C5.3253355 189.24840297 2.79922387 189.37018158 0.125 189.375 C-0.58269531 189.39949219 -1.29039062 189.42398438 -2.01953125 189.44921875 C-5.55784598 189.46898587 -7.74002248 189.1606067 -10.76953125 187.2890625 C-16.29008436 181.6234861 -20.42262559 175.85923201 -20.6875 167.75 C-20.33652582 162.62445259 -19.47100237 158.84432335 -16 155 C-14.64487346 154.15057598 -13.27947278 153.3174051 -11.90625 152.49755859 C-9.39385419 150.63976591 -8.19319548 149.61981967 -7.25585938 146.61260986 C-6.97866228 143.68742669 -6.94402025 140.85186687 -7 137.9140625 C-6.98912354 136.85714203 -6.97824707 135.80022156 -6.96704102 134.71127319 C-6.94092466 131.34813937 -6.96970223 127.98805202 -7 124.625 C-6.99190688 122.33982803 -6.98022855 120.05466576 -6.96484375 117.76953125 C-6.93501985 112.17894808 -6.95441014 106.5904563 -7 101 C-12.94 101 -18.88 101 -25 101 C-25 96.71 -25 92.42 -25 88 C-25.66 88 -26.32 88 -27 88 C-27.495 89.485 -27.495 89.485 -28 91 C-30.25 91.75 -30.25 91.75 -33 92 C-35.1875 90.125 -35.1875 90.125 -37 88 C-37.99 87.505 -37.99 87.505 -39 87 C-38.67 85.35 -38.34 83.7 -38 82 C-37.34 82 -36.68 82 -36 82 C-36.33 80.68 -36.66 79.36 -37 78 C-33.91190305 76.23537317 -32.76687864 76 -29 76 C-29.33 74.68 -29.66 73.36 -30 72 C-31.485 72.495 -31.485 72.495 -33 73 C-33 71.68 -33 70.36 -33 69 C-31.88625 68.71125 -30.7725 68.4225 -29.625 68.125 C-25.99708908 67.30758671 -25.99708908 67.30758671 -24 65 C-23.34 65 -22.68 65 -22 65 C-21.62875 63.824375 -21.62875 63.824375 -21.25 62.625 C-20 60 -20 60 -18.3125 58.6875 C-15.16643337 57.7521829 -12.26075491 57.87458635 -9 58 C-8.67 56.68 -8.34 55.36 -8 54 C-7.443125 54.185625 -6.88625 54.37125 -6.3125 54.5625 C-3.600867 55.07551165 -1.65628961 54.6640724 1 54 C1.495 55.98 1.495 55.98 2 58 C3.32 58 4.64 58 6 58 C1.40054212 53.67269939 -2.47965266 50.05805951 -9.12890625 49.97265625 C-15.81405157 50.41380797 -20.44944863 52.44944863 -25.25 57.25 C-27.45828125 60.72015625 -28.67990557 64.10572142 -30 68 C-31.81495662 67.55149342 -33.62693134 67.09090429 -35.4375 66.625 C-36.95150391 66.24214844 -36.95150391 66.24214844 -38.49609375 65.8515625 C-41 65 -41 65 -42 63 C-39.31220729 53.90070176 -35.22120214 46.11933359 -26.953125 41.1796875 C-18.82703488 37 -18.82703488 37 -16 37 C-15.84144531 36.24976563 -15.68289062 35.49953125 -15.51953125 34.7265625 C-13.87992839 27.5340505 -11.54117857 21.451256 -8 15 C-7.32787077 13.66941196 -6.65936419 12.33695964 -6 11 C-11.47077693 7.77364437 -16.83223914 6.28639432 -23.14453125 7.3671875 C-28.63045276 9.06645956 -31.76725656 12.35782516 -35 17 C-35.33 17.66 -35.66 18.32 -36 19 C-36.65484375 18.7834375 -37.3096875 18.566875 -37.984375 18.34375 C-48.46054144 15.14763143 -58.81334651 14.42008059 -69 19 C-77.81249955 23.88994336 -84.83550339 30.40759403 -87.9375 40.1875 C-90.51694882 51.69829037 -89.92582887 62.15464896 -83.609375 72.21484375 C-77.73661921 80.51397496 -70.07187834 86.24093941 -60 88 C-58.30842606 88.13918537 -56.61369627 88.2435836 -54.91796875 88.31640625 C-53.98662109 88.35830078 -53.05527344 88.40019531 -52.09570312 88.44335938 C-51.13599609 88.48267578 -50.17628906 88.52199219 -49.1875 88.5625 C-47.71893555 88.62727539 -47.71893555 88.62727539 -46.22070312 88.69335938 C-43.81392973 88.7990226 -41.40706017 88.90112327 -39 89 C-38.67509521 94.45801604 -38.44122577 99.91025642 -38.28588867 105.37573242 C-38.22107572 107.22796756 -38.13277432 109.07955245 -38.01928711 110.92944336 C-37.0417965 127.2902477 -37.0417965 127.2902477 -41.9362793 132.90942383 C-43.67360665 134.65135381 -45.42787302 136.2078104 -47.37834167 137.70671082 C-50.80382973 140.27469581 -50.80382973 140.27469581 -52.51423645 144.05918884 C-52.6819655 146.87585313 -52.50310114 149.5666247 -52.25630188 152.37269592 C-51.89981175 156.6692369 -51.96360295 159.19374618 -54.5 162.75 C-58.76707574 167.27750759 -63.73358726 170.10681332 -70 170.5 C-76.4216297 170.10966565 -81.22888873 167.17846544 -85.4375 162.4375 C-89.16331772 157.87921075 -89.40073574 153.59195968 -89.34765625 147.859375 C-88.64312258 142.06478343 -85.52540257 138.38350466 -81.3125 134.5625 C-77.66625918 132.09882377 -76.01552547 132.05356075 -71.64086914 132.42504883 C-65.14899247 132.84184967 -60.29680212 132.59718272 -55.0625 128.3125 C-48.53675687 120.78111472 -49.64262439 110.45088943 -50 101 C-50.71067627 101.0414917 -51.42135254 101.0829834 -52.15356445 101.12573242 C-65.60852595 101.78558168 -76.63428988 96.65976139 -86.9921875 88.4140625 C-96.14791598 80.07217655 -101.50950475 68.23109093 -102.3125 55.98828125 C-102.87831027 42.10235409 -99.78528838 30.05300144 -91 19 C-85.1797788 12.72003024 -78.94853716 8.19223508 -71 5 C-70.15824219 4.62230469 -69.31648438 4.24460937 -68.44921875 3.85546875 C-62.36984848 2.34767477 -56.07155934 3.08150733 -49.85351562 3.4296875 C-42.82173055 3.62320448 -42.82173055 3.62320448 -36.96875 0.1015625 C-36.21948242 -0.69773682 -36.21948242 -0.69773682 -35.45507812 -1.51318359 C-26.12107154 -11.05078429 -9.57587574 -6.20182556 0 0 Z " fill="#010FD8" transform="translate(199,112)"/>
<path d="M0 0 C0.99 0.99 0.99 0.99 2 2 C5.76317731 1.58947157 9.12426808 -0.38955908 12.5 -2 C17.51811018 -4.39396082 21.54305811 -6.12376569 27.1171875 -6.1328125 C27.88933594 -6.13410156 28.66148437 -6.13539062 29.45703125 -6.13671875 C30.25496094 -6.13285156 31.05289063 -6.12898438 31.875 -6.125 C32.66519531 -6.12886719 33.45539063 -6.13273437 34.26953125 -6.13671875 C38.6251962 -6.12947139 42.71160502 -5.86871024 47 -5 C47 -4.34 47 -3.68 47 -3 C47.78375 -2.95875 48.5675 -2.9175 49.375 -2.875 C59.6546843 -0.39369689 69.35786412 7.66969865 75.25 16.3125 C78.04776919 21.20669025 79.08194973 26.24889341 80.3125 31.6875 C82.09341368 39.58396097 82.09341368 39.58396097 87.5625 45.375 C89.02948444 46.27027408 90.50715519 47.1485463 92 48 C97.92670062 53.92670062 99.18314476 60.91737281 99.375 69.0625 C99.23074777 74.66429511 98.71793054 79.08919368 96 84 C95.5978125 84.74894531 95.195625 85.49789062 94.78125 86.26953125 C90.57398359 93.31670249 85.2451234 97.20398625 77.75 100.375 C72.13556965 101.31073839 66.68864989 101.11729175 61 101 C61 96.71 61 92.42 61 88 C63.7225 87.87625 63.7225 87.87625 66.5 87.75 C72.03665721 87.27337739 76.53049226 86.42482762 81 83 C85.44943776 77.40968076 86.42299139 72.84377692 86.33984375 65.859375 C85.80403202 61.35116598 84.09539335 58.28111696 81 55 C77.63446073 52.41574663 74.12837493 50.93046525 70 50 C69.91363281 48.81664062 69.82726562 47.63328125 69.73828125 46.4140625 C68.69699513 34.05075201 66.52568992 23.74489566 57 15 C48.070773 8.27176483 37.90188681 6.01467915 26.8046875 7.3984375 C20.62377817 8.74211344 15.90036827 10.90698688 10.83984375 14.6953125 C9 16 9 16 6 17 C4.99083967 18.76591887 4.99083967 18.76591887 4 21 C3.360625 21.845625 2.72125 22.69125 2.0625 23.5625 C-0.90555188 27.86450778 -1.82103358 32.98046115 -3 38 C-0.36 38.66 2.28 39.32 5 40 C5 40.66 5 41.32 5 42 C5.680625 42.165 6.36125 42.33 7.0625 42.5 C11.29914709 44.66339426 14.4413182 47.98716053 17 52 C15.61918777 56.1424367 13.40174442 57.32203099 10 60 C7.08002827 58.6738993 4.95697126 57.18964438 2.625 55 C-1.82761125 51.14169915 -5.52421557 49.73478326 -11.4375 50.125 C-17.16350945 50.9540182 -21.11831894 53.11831894 -25.25 57.25 C-27.45828125 60.72015625 -28.67990557 64.10572142 -30 68 C-31.81495662 67.55149342 -33.62693134 67.09090429 -35.4375 66.625 C-36.95150391 66.24214844 -36.95150391 66.24214844 -38.49609375 65.8515625 C-41 65 -41 65 -42 63 C-39.31220729 53.90070176 -35.22120214 46.11933359 -26.953125 41.1796875 C-18.82703488 37 -18.82703488 37 -16 37 C-15.84144531 36.24976563 -15.68289062 35.49953125 -15.51953125 34.7265625 C-13.87992839 27.5340505 -11.54117857 21.451256 -8 15 C-7.32787077 13.66941196 -6.65936419 12.33695964 -6 11 C-11.47077693 7.77364437 -16.83223914 6.28639432 -23.14453125 7.3671875 C-28.63045276 9.06645956 -31.76725656 12.35782516 -35 17 C-35.33 17.66 -35.66 18.32 -36 19 C-36.65484375 18.7834375 -37.3096875 18.566875 -37.984375 18.34375 C-48.46054144 15.14763143 -58.81334651 14.42008059 -69 19 C-77.81249955 23.88994336 -84.83550339 30.40759403 -87.9375 40.1875 C-90.51694882 51.69829037 -89.92582887 62.15464896 -83.609375 72.21484375 C-77.73661921 80.51397496 -70.07187834 86.24093941 -60 88 C-58.30842606 88.13918537 -56.61369627 88.2435836 -54.91796875 88.31640625 C-53.98662109 88.35830078 -53.05527344 88.40019531 -52.09570312 88.44335938 C-51.13599609 88.48267578 -50.17628906 88.52199219 -49.1875 88.5625 C-47.71893555 88.62727539 -47.71893555 88.62727539 -46.22070312 88.69335938 C-43.81392973 88.7990226 -41.40706017 88.90112327 -39 89 C-38.67509521 94.45801604 -38.44122577 99.91025642 -38.28588867 105.37573242 C-38.22107572 107.22796756 -38.13277432 109.07955245 -38.01928711 110.92944336 C-37.0417965 127.2902477 -37.0417965 127.2902477 -41.9362793 132.90942383 C-43.67360665 134.65135381 -45.42787302 136.2078104 -47.37834167 137.70671082 C-50.80382973 140.27469581 -50.80382973 140.27469581 -52.51423645 144.05918884 C-52.6819655 146.87585313 -52.50310114 149.5666247 -52.25630188 152.37269592 C-51.89981175 156.6692369 -51.96360295 159.19374618 -54.5 162.75 C-58.76707574 167.27750759 -63.73358726 170.10681332 -70 170.5 C-76.4216297 170.10966565 -81.22888873 167.17846544 -85.4375 162.4375 C-89.16331772 157.87921075 -89.40073574 153.59195968 -89.34765625 147.859375 C-88.64312258 142.06478343 -85.52540257 138.38350466 -81.3125 134.5625 C-77.66625918 132.09882377 -76.01552547 132.05356075 -71.64086914 132.42504883 C-65.14899247 132.84184967 -60.29680212 132.59718272 -55.0625 128.3125 C-48.53675687 120.78111472 -49.64262439 110.45088943 -50 101 C-50.71067627 101.0414917 -51.42135254 101.0829834 -52.15356445 101.12573242 C-65.60852595 101.78558168 -76.63428988 96.65976139 -86.9921875 88.4140625 C-96.14791598 80.07217655 -101.50950475 68.23109093 -102.3125 55.98828125 C-102.87831027 42.10235409 -99.78528838 30.05300144 -91 19 C-85.1797788 12.72003024 -78.94853716 8.19223508 -71 5 C-70.15824219 4.62230469 -69.31648438 4.24460937 -68.44921875 3.85546875 C-62.36984848 2.34767477 -56.07155934 3.08150733 -49.85351562 3.4296875 C-42.82173055 3.62320448 -42.82173055 3.62320448 -36.96875 0.1015625 C-36.21948242 -0.69773682 -36.21948242 -0.69773682 -35.45507812 -1.51318359 C-26.12107154 -11.05078429 -9.57587574 -6.20182556 0 0 Z " fill="#F5F6F9" transform="translate(199,112)"/>
<path d="M0 0 C-0.81404297 1.55847656 -0.81404297 1.55847656 -1.64453125 3.1484375 C-2.36848972 4.55662295 -3.09105282 5.96552631 -3.8125 7.375 C-4.19067871 8.10581787 -4.56885742 8.83663574 -4.95849609 9.58959961 C-6.9824414 13.60073148 -8.38420657 17.09696953 -9.125 21.5625 C-10.03010442 25.19506672 -10.80979628 25.88157583 -14.07421875 27.9140625 C-15.9419432 28.83654988 -17.82903961 29.69484767 -19.73266602 30.54052734 C-28.95272375 34.64019657 -31.54065683 40.45482805 -35.1171875 49.62109375 C-35.40851563 50.40613281 -35.69984375 51.19117188 -36 52 C-33.49751135 53.66832577 -31.58850813 54.62381674 -28.8125 55.625 C-28.09707031 55.88539063 -27.38164062 56.14578125 -26.64453125 56.4140625 C-26.10183594 56.60742188 -25.55914062 56.80078125 -25 57 C-24.9175 56.13375 -24.835 55.2675 -24.75 54.375 C-23.29066448 47.80799017 -19.35304996 43.85419597 -14 40 C-8.73075731 37.36537865 -3.62781746 37.73511595 2 39 C6.41296615 41.28820467 9.10282207 43.98852287 12 48 C10.35 47.67 8.7 47.34 7 47 C6.67 46.01 6.34 45.02 6 44 C3.98491642 43.26676204 3.98491642 43.26676204 2 43 C1.505 43.99 1.505 43.99 1 45 C-0.32 44.34 -1.64 43.68 -3 43 C-3.33 44.32 -3.66 45.64 -4 47 C-5.0725 47.12375 -6.145 47.2475 -7.25 47.375 C-11.42519557 48.02287328 -11.42519557 48.02287328 -15 50 C-15.144375 50.639375 -15.28875 51.27875 -15.4375 51.9375 C-16 54 -16 54 -18.125 55.6875 C-21.43360235 57.1979489 -24.3950641 57.64657491 -28 58 C-27.505 59.485 -27.505 59.485 -27 61 C-26.01 60.67 -25.02 60.34 -24 60 C-24 61.65 -24 63.3 -24 65 C-26.90600261 66.25664978 -28.79604584 67 -32 67 C-31.67 68.32 -31.34 69.64 -31 71 C-31.66 71 -32.32 71 -33 71 C-33.33 72.65 -33.66 74.3 -34 76 C-33.01 76.33 -32.02 76.66 -31 77 C-31 90.53 -31 104.06 -31 118 C-31.66 118 -32.32 118 -33 118 C-33.0825 118.5775 -33.165 119.155 -33.25 119.75 C-34.21811062 122.65433187 -35.75441157 123.95255172 -38 126 C-38.53625 126.5775 -39.0725 127.155 -39.625 127.75 C-41 129 -41 129 -43 129 C-42.67 130.32 -42.34 131.64 -42 133 C-42.66 133 -43.32 133 -44 133 C-43.89300781 133.86882812 -43.78601563 134.73765625 -43.67578125 135.6328125 C-42.71413987 144.87697805 -42.71413987 144.87697805 -43.875 149.4375 C-46.94459937 153.13907571 -50.62822405 155.96458982 -55 158 C-55.99 157.67 -56.98 157.34 -58 157 C-56.56770833 156.15364583 -55.13541667 155.30729167 -53.703125 154.4609375 C-51.09477102 152.22349624 -49.61138605 150.04055327 -48 147 C-48.00280513 143.31057696 -48.00280513 143.31057696 -48.5625 139.4375 C-49.09285515 132.37206823 -49.09285515 132.37206823 -46.75404358 129.43571472 C-45.05949556 127.98885729 -43.31182593 126.63328376 -41.546875 125.2734375 C-36.53916339 120.85942774 -34.21085443 117.34460477 -33.60154724 110.62983704 C-33.44921733 106.13707512 -33.53113879 101.67878575 -33.6875 97.1875 C-33.7045286 95.31970629 -33.71563939 93.45184884 -33.72070312 91.58398438 C-33.74567699 87.05236944 -33.85035805 82.52914182 -34 78 C-34.58378418 78.01571045 -35.16756836 78.0314209 -35.76904297 78.04760742 C-38.47092595 78.11082028 -41.17265259 78.14925923 -43.875 78.1875 C-44.7928125 78.21263672 -45.710625 78.23777344 -46.65625 78.26367188 C-56.99822044 78.37291804 -65.31276978 76.07992305 -73 69 C-80.849396 61.2469156 -85.10121148 53.53464354 -85.25 42.4375 C-85.12269799 31.28121448 -82.90869399 23.09190698 -75 15 C-65.96800486 6.79779946 -57.40588414 3.65388629 -45.2265625 3.69921875 C-40.12295169 4.17497908 -35.66116952 5.94468116 -31 8 C-30.73703125 7.24074219 -30.4740625 6.48148438 -30.203125 5.69921875 C-28.00298981 0.76320117 -23.87195011 -2.06402495 -19.125 -4.4375 C-11.47424719 -5.81463551 -6.48407711 -3.92353633 0 0 Z " fill="#0110D7" transform="translate(194,123)"/>
<path d="M0 0 C0.99 0.33 1.98 0.66 3 1 C3 1.66 3 2.32 3 3 C3.88945313 3.16048828 3.88945313 3.16048828 4.796875 3.32421875 C7.28733258 4.0881357 8.38363295 5.02314324 10.25 6.8125 C16.74744414 12.61279348 23.43276851 14.94496552 32.08203125 15.31640625 C33.01337891 15.35830078 33.94472656 15.40019531 34.90429688 15.44335938 C35.86400391 15.48267578 36.82371094 15.52199219 37.8125 15.5625 C38.79154297 15.60568359 39.77058594 15.64886719 40.77929688 15.69335938 C43.18607027 15.7990226 45.59293983 15.90112327 48 16 C48.32490479 21.45801604 48.55877423 26.91025642 48.71411133 32.37573242 C48.77892428 34.22796756 48.86722568 36.07955245 48.98071289 37.92944336 C49.9582035 54.2902477 49.9582035 54.2902477 45.0637207 59.90942383 C43.32639335 61.65135381 41.57212698 63.2078104 39.62165833 64.70671082 C36.19617027 67.27469581 36.19617027 67.27469581 34.48576355 71.05918884 C34.3180345 73.87585313 34.49689886 76.5666247 34.74369812 79.37269592 C35.10018825 83.6692369 35.03639705 86.19374618 32.5 89.75 C28.23292426 94.27750759 23.26641274 97.10681332 17 97.5 C10.5783703 97.10966565 5.77111127 94.17846544 1.5625 89.4375 C-2.16331772 84.87921075 -2.40073574 80.59195968 -2.34765625 74.859375 C-1.64312258 69.06478343 1.47459743 65.38350466 5.6875 61.5625 C9.33374082 59.09882377 10.98447453 59.05356075 15.35913086 59.42504883 C21.85100753 59.84184967 26.70319788 59.59718272 31.9375 55.3125 C38.46324313 47.78111472 37.35737561 37.45088943 37 28 C35.9339856 28.06223755 35.9339856 28.06223755 34.84643555 28.12573242 C22.37146912 28.73752141 11.8808443 24.41924023 2 17 C1.40960938 16.55914062 0.81921875 16.11828125 0.2109375 15.6640625 C-1.62665699 13.13885201 -1.32466359 11.0099068 -1.25 7.9375 C-1.23453125 6.87402344 -1.2190625 5.81054688 -1.203125 4.71484375 C-1 2 -1 2 0 0 Z " fill="#F7F9FB" transform="translate(112,185)"/>
<path d="M0 0 C9.57 0 19.14 0 29 0 C29.00386719 6.53554687 29.00386719 6.53554687 29.0078125 13.203125 C29.02662848 16.67928162 29.0514335 20.15528077 29.08029175 23.63136292 C29.10910372 27.29982579 29.12738252 30.96764655 29.12011719 34.63623047 C29.11352497 38.17045917 29.13599881 41.70342192 29.17855453 45.23738861 C29.19510348 47.24032692 29.18162084 49.24344025 29.16775513 51.24639893 C29.22159474 54.6058467 29.3166241 57.71036163 30 61 C32.67822363 63.83631195 32.67822363 63.83631195 36 65 C40.29723773 68.81976688 41.66589822 70.92626362 42.2734375 76.515625 C42.52947814 83.40902682 41.45202541 87.68265134 37 93 C33.19939669 97.06105075 29.70895434 98.12941384 24.1875 98.375 C17.92542351 98.19821032 13.60540381 96.63323932 9.171875 92.15234375 C5.11086178 86.92426365 4.17167731 82.35800601 4.5546875 75.796875 C5.2009369 71.73797526 6.24662481 69.05095133 9 66 C10.35512654 65.15057598 11.72052722 64.3174051 13.09375 63.49755859 C15.60614581 61.63976591 16.80680452 60.61981967 17.74414062 57.61260986 C18.02133772 54.68742669 18.05597975 51.85186687 18 48.9140625 C18.0163147 47.32868179 18.0163147 47.32868179 18.03295898 45.71127319 C18.05907534 42.34813937 18.03029777 38.98805202 18 35.625 C18.00809312 33.33982803 18.01977145 31.05466576 18.03515625 28.76953125 C18.06498015 23.17894808 18.04558986 17.5904563 18 12 C12.06 12 6.12 12 0 12 C0 8.04 0 4.08 0 0 Z " fill="#F8F9FC" transform="translate(174,201)"/>
<path d="M0 0 C9.57 0 19.14 0 29 0 C29 11.22 29 22.44 29 34 C30.32 34.66 31.64 35.32 33 36 C34.35827971 37.64639965 35.69254251 39.31295807 37 41 C40.8045553 43.5363702 42.73032359 43.08207681 47.25 42.875 C53.39419395 42.73891759 57.17877354 43.01724771 62 47 C66.06764009 51.00341419 67.83595339 54.19213239 68.16796875 59.875 C68.17441406 60.90625 68.18085938 61.9375 68.1875 63 C68.20167969 64.03125 68.21585937 65.0625 68.23046875 66.125 C68.00276947 68.96545203 67.46504061 70.59107948 66 73 C65.34 73 64.68 73 64 73 C63.773125 73.598125 63.54625 74.19625 63.3125 74.8125 C61.34690872 78.08848546 58.65299853 79.39390054 55.125 80.6875 C47.52768745 81.80475184 42.29219622 80.30462748 36 76 C33.30878059 73.61514709 31.94549637 71.48067344 31 68 C31.0848963 66.12823877 31.1746626 64.25586 31.33056641 62.38867188 C32.09502028 56.05729033 32.09502028 56.05729033 29.74609375 50.43652344 C28.04274569 48.95173751 26.29379139 47.56153807 24.5 46.1875 C20.63974741 43.15783141 18.33427768 40.73474476 17.38427734 35.8046875 C16.83920233 27.84035675 17.33377532 19.94344808 18 12 C12.06 12 6.12 12 0 12 C0 8.04 0 4.08 0 0 Z " fill="#F5F8FA" transform="translate(217,201)"/>
<path d="M0 0 C9.57 0 19.14 0 29 0 C29.06058594 2.40796875 29.12117188 4.8159375 29.18359375 7.296875 C29.2454331 9.6334939 29.30880007 11.97006673 29.37231445 14.30664062 C29.41557931 15.92834357 29.45726028 17.55008958 29.49731445 19.171875 C29.55522214 21.50534027 29.61885698 23.83859043 29.68359375 26.171875 C29.70030624 26.89493835 29.71701874 27.61800171 29.73423767 28.36297607 C29.83202649 31.69890556 29.9845665 34.80554016 31 38 C30.01 38.66 29.02 39.32 28 40 C28.99 41.32 29.98 42.64 31 44 C28.875 44.75 28.875 44.75 26 45 C22.93054466 43.25462343 20.49346035 41.49346035 18 39 C17.77294922 36.29443359 17.77294922 36.29443359 17.8046875 32.8984375 C17.81113281 31.68671875 17.81757813 30.475 17.82421875 29.2265625 C17.84097656 27.95554688 17.85773438 26.68453125 17.875 25.375 C17.88402344 24.09625 17.89304688 22.8175 17.90234375 21.5 C17.92597618 18.33325421 17.96184814 15.16660415 18 12 C12.06 12 6.12 12 0 12 C0 8.04 0 4.08 0 0 Z " fill="#F8F9FC" transform="translate(217,201)"/>
<path d="M0 0 C1 1.33333333 2 2.66666667 3 4 C3.66 4 4.32 4 5 4 C5.02696365 5.79158489 5.04637917 7.58328473 5.0625 9.375 C5.07410156 10.37273437 5.08570313 11.37046875 5.09765625 12.3984375 C5 15 5 15 4 17 C3.34 17 2.68 17 2 17 C1.773125 17.598125 1.54625 18.19625 1.3125 18.8125 C-0.65309128 22.08848546 -3.34700147 23.39390054 -6.875 24.6875 C-14.43813606 25.79972589 -19.75143185 24.33811066 -26 20 C-30.03153026 15.94147288 -31.27238108 12.17281484 -31.3125 6.5 C-31.23335319 4.99847195 -31.13806703 3.49726023 -31 2 C-29.68 3.32 -28.36 4.64 -27 6 C-26.071875 5.2575 -26.071875 5.2575 -25.125 4.5 C-23 3 -23 3 -21 3 C-20.34 5.64 -19.68 8.28 -19 11 C-17.5629191 11.05422947 -16.12524538 11.09289723 -14.6875 11.125 C-13.48673828 11.15980469 -13.48673828 11.15980469 -12.26171875 11.1953125 C-9.71611424 11.15817322 -9.71611424 11.15817322 -7 9 C-6.67 7.845 -6.34 6.69 -6 5.5 C-4.94955641 1.82344743 -4.12311125 0 0 0 Z M-30 6 C-29 8 -29 8 -29 8 Z " fill="#F5F7F9" transform="translate(279,257)"/>
<path d="M0 0 C0.33 0 0.66 0 1 0 C1 12.54 1 25.08 1 38 C-11.87 38 -24.74 38 -38 38 C-34.76284016 36.38142008 -31.61375469 35.05715856 -28.25 33.75 C-15.5959149 28.47618324 -7.24702233 19.64614366 -2 7 C-1.2025247 4.66987685 -0.57356185 2.39853137 0 0 Z " fill="#000000" transform="translate(399,362)"/>
<path d="M0 0 C1.47324426 2.94648852 2.59466976 5.61669648 3.6875 8.6875 C7.91788081 19.30247767 16.43486126 28.34937811 26.8359375 33.15625 C30.8102528 34.70580254 34.8850221 35.88693221 39 37 C39 37.33 39 37.66 39 38 C26.13 38 13.26 38 0 38 C0 25.46 0 12.92 0 0 Z " fill="#000000" transform="translate(0,362)"/>
<path d="M0 0 C12.87 0 25.74 0 39 0 C39 12.54 39 25.08 39 38 C37.52675574 35.05351148 36.40533024 32.38330352 35.3125 29.3125 C30.19021744 16.45954007 20.35963699 8.67725058 8.05078125 3.1640625 C5.3429784 2.13086756 2.85409359 1.45538413 0 1 C0 0.67 0 0.34 0 0 Z " fill="#000000" transform="translate(361,0)"/>
<path d="M0 0 C12.87 0 25.74 0 39 0 C39 0.33 39 0.66 39 1 C38.40574219 1.14695313 37.81148437 1.29390625 37.19921875 1.4453125 C23.99230597 5.01918936 13.15528814 11.74103705 6.09765625 23.703125 C3.90654856 28.28807633 2.45012692 33.13923938 1 38 C0.67 38 0.34 38 0 38 C0 25.46 0 12.92 0 0 Z " fill="#000000" transform="translate(0,0)"/>
<path d="M0 0 C0.72614502 0.00008057 1.45229004 0.00016113 2.20043945 0.00024414 C4.4150722 -0.00194063 6.62920561 -0.02008844 8.84375 -0.0390625 C10.245441 -0.04199669 11.64713437 -0.04398131 13.04882812 -0.04492188 C14.33072021 -0.04903076 15.6126123 -0.05313965 16.93334961 -0.05737305 C19.99023438 0.18554688 19.99023438 0.18554688 21.99023438 2.18554688 C22.29321289 5.01123047 22.29321289 5.01123047 22.36914062 8.58398438 C22.40330078 9.86789063 22.43746094 11.15179688 22.47265625 12.47460938 C22.49998066 13.83657601 22.52666678 15.1985556 22.55273438 16.56054688 C22.61077144 19.21439452 22.67633724 21.86784604 22.74414062 24.52148438 C22.76806885 25.70274902 22.79199707 26.88401367 22.81665039 28.10107422 C23.0050347 31.73516905 23.0050347 31.73516905 23.99023438 35.18554688 C24.98023438 35.84554687 25.97023437 36.50554687 26.99023438 37.18554688 C26.99023438 38.50554687 26.99023438 39.82554687 26.99023438 41.18554688 C28.28960937 41.16492188 29.58898437 41.14429688 30.92773438 41.12304688 C44.37458592 41.16546597 44.37458592 41.16546597 48.99023438 45.18554688 C50.36408868 45.73011287 51.7392193 46.27146405 53.11523438 46.81054688 C55.44441067 47.9708057 56.69886456 48.65018444 57.95117188 50.95117188 C58.57516379 53.39287937 58.82690072 55.66807812 58.99023438 58.18554688 C59.07015625 59.33667969 59.15007812 60.4878125 59.23242188 61.67382812 C59.608229 72.14116179 59.608229 72.14116179 57.24023438 75.93554688 C55.19541136 77.98036989 53.69853907 79.2182952 50.99023438 80.18554688 C52.36523438 77.68554688 52.36523438 77.68554688 53.99023438 75.18554688 C54.65023437 75.18554688 55.31023437 75.18554688 55.99023438 75.18554688 C57.81576114 69.01703306 58.14233006 61.32923183 55.86523438 55.24804688 C53.1181501 50.76114256 50.08944576 47.885284 44.99023438 46.18554688 C41.20689265 46.27252025 37.43362921 46.44485996 33.65429688 46.63867188 C29.01936384 46.06548186 27.9821062 44.67443975 24.99023438 41.18554688 C23.96285156 40.46633057 22.93546875 39.74711426 21.87695312 39.00610352 C19.12946783 36.73982363 19.00827178 36.28322686 18.30908203 32.49682617 C18.31002308 31.0841164 18.34341426 29.67116319 18.40429688 28.25976562 C18.41278656 27.51217484 18.42127625 26.76458405 18.43002319 25.99433899 C18.46346909 23.61907499 18.53871624 21.24727468 18.61523438 18.87304688 C18.64534608 17.25786173 18.67271979 15.64262307 18.69726562 14.02734375 C18.75812318 10.07768839 18.87549759 6.13546709 18.99023438 2.18554688 C9.42023438 2.18554688 -0.14976562 2.18554688 -10.00976562 2.18554688 C-10.00976562 6.14554688 -10.00976562 10.10554687 -10.00976562 14.18554688 C-4.06976563 14.18554688 1.87023437 14.18554688 7.99023438 14.18554688 C7.99023438 23.09554687 7.99023438 32.00554687 7.99023438 41.18554688 C7.33023438 41.18554688 6.67023438 41.18554688 5.99023438 41.18554688 C5.99023438 33.59554687 5.99023438 26.00554687 5.99023438 18.18554688 C1.70034159 16.75558261 -2.57875526 16.80010372 -7.07617188 16.56445312 C-10.00976562 16.18554688 -10.00976562 16.18554688 -12.00976562 14.18554688 C-12.24023438 11.18164062 -12.24023438 11.18164062 -12.19726562 7.62304688 C-12.18759766 5.85767578 -12.18759766 5.85767578 -12.17773438 4.05664062 C-11.80817087 -2.26031693 -5.02487413 0.01763517 0 0 Z " fill="#1A219B" transform="translate(227.009765625,198.814453125)"/>
<path d="M0 0 C6.0546875 -0.1953125 6.0546875 -0.1953125 8 0 C8.66 0.66 9.32 1.32 10 2 C11.465564 2.48110545 12.94743807 2.91368211 14.4375 3.3125 C17.74352084 4.35790306 18.77276379 4.71595474 21 7.5 C21.72450274 9.31125684 22.38310815 11.14932445 23 13 C24.3153341 13.70151152 25.65117592 14.36525925 27 15 C30.52055791 18.05235072 31.80101945 21.57875921 33 26 C33.1875 29.5 33.1875 29.5 33 32 C33.99 32.33 34.98 32.66 36 33 C36.10957031 33.75925781 36.21914063 34.51851562 36.33203125 35.30078125 C36.49058594 36.29464844 36.64914062 37.28851563 36.8125 38.3125 C36.96332031 39.29863281 37.11414063 40.28476563 37.26953125 41.30078125 C38.04400896 44.16262134 38.60456662 45.29555702 41 47 C44.12549017 47.25048636 44.12549017 47.25048636 47 47 C47.5534764 49.07553648 48 50.84365964 48 53 C48.99 53 49.98 53 51 53 C51.05607422 53.93972656 51.05607422 53.93972656 51.11328125 54.8984375 C51.17902344 55.71570313 51.24476563 56.53296875 51.3125 57.375 C51.37050781 58.18710938 51.42851562 58.99921875 51.48828125 59.8359375 C51.82990528 62.37921338 51.82990528 62.37921338 55 64 C55.6573749 67.22729371 55.4629746 70.52627611 55.4375 73.8125 C55.4674707 75.16698242 55.4674707 75.16698242 55.49804688 76.54882812 C55.49485719 80.88998705 55.38964445 83.35752671 53.09765625 87.13671875 C51 89 51 89 49 89 C48.9175 89.515625 48.835 90.03125 48.75 90.5625 C46.59348459 97.57117509 44.19125471 100.3175002 37.75 103.9375 C29.97050709 107.84762256 22.50939602 107.69622331 14 107 C14 106.34 14 105.68 14 105 C14.83402344 104.96261719 15.66804688 104.92523438 16.52734375 104.88671875 C27.30610004 104.25703196 36.02307651 102.7330874 44 95 C50.93736128 86.33710216 51.97637616 76.83656999 51 66 C49.37710807 59.44702554 46.28497364 52.5987401 40.29638672 48.96679688 C39.70100098 48.61681641 39.10561523 48.26683594 38.4921875 47.90625 C33.98717244 44.73230227 33.42839015 41.01276872 32.4375 35.8125 C29.28229615 22.14253728 23.72121976 13.94063449 12 6 C8.08720318 4.02585648 4.151526 2.39856372 0 1 C0 0.67 0 0.34 0 0 Z " fill="#1722A4" transform="translate(246,108)"/>
<path d="M0 0 C1.2393919 3.5804655 0.87401862 6.34501304 0 10 C-0.66 10.66 -1.32 11.32 -2 12 C-0.35 12.66 1.3 13.32 3 14 C3.33 13.34 3.66 12.68 4 12 C4.99 12.66 5.98 13.32 7 14 C-2.89321646 22.90389481 -10.89742236 24.13102578 -24 24 C-24 19.71 -24 15.42 -24 11 C-22.185 10.9175 -20.37 10.835 -18.5 10.75 C-12.35689515 10.2211714 -6.81182883 9.26715338 -2.625 4.40234375 C-1.3657119 2.61092811 -1.3657119 2.61092811 0 0 Z " fill="#EEF0FA" transform="translate(284,189)"/>
<path d="M0 0 C10.23 0 20.46 0 31 0 C31 20.13 31 40.26 31 61 C32.98 61 34.96 61 37 61 C37 61.66 37 62.32 37 63 C39.475 62.505 39.475 62.505 42 62 C43.00418929 68.25107833 43.33398114 74.44794995 43.60546875 80.76757812 C43.70124893 85.01934814 43.70124893 85.01934814 45 89 C41.25 92.875 41.25 92.875 39 94 C38.525625 94.804375 38.05125 95.60875 37.5625 96.4375 C36 99 36 99 33 101 C30.3253355 101.24840297 27.79922387 101.37018158 25.125 101.375 C24.41730469 101.39949219 23.70960938 101.42398438 22.98046875 101.44921875 C19.16700631 101.47052301 17.18752889 101.1261558 13.9921875 98.9765625 C13.33476562 98.32429688 12.67734375 97.67203125 12 97 C12.495 96.01 12.495 96.01 13 95 C13.78375 95.495 14.5675 95.99 15.375 96.5 C21.20000737 98.91034788 26.54651927 98.93678355 32.4375 96.6875 C36.89815544 93.7499952 39.09204635 91.08787641 41 86 C41.61699471 79.80200767 41.45394107 73.7667615 39 68 C37.25160856 66.70834575 37.25160856 66.70834575 35 66 C30.81706004 64.39315095 30.81706004 64.39315095 29 62 C28.11490334 57.43247932 28.30476244 52.90215128 28.4140625 48.265625 C28.42525861 46.90372589 28.43379685 45.54180255 28.43978882 44.17987061 C28.46265605 40.60191674 28.52155621 37.02543341 28.5880127 33.44805908 C28.64948356 29.79500584 28.67714292 26.14170694 28.70703125 22.48828125 C28.76812327 15.32422377 28.88554237 8.16419968 29 1 C19.43 1 9.86 1 0 1 C0 0.67 0 0.34 0 0 Z " fill="#4B53B2" transform="translate(174,200)"/>
<path d="M0 0 C0.65339355 0.13784912 1.30678711 0.27569824 1.97998047 0.41772461 C9.05700738 1.81949386 15.92219469 2.37221971 23.125 2.5625 C25.16939745 2.62210712 27.21368456 2.68567947 29.2578125 2.75390625 C30.59030029 2.78979858 30.59030029 2.78979858 31.94970703 2.82641602 C34 3 34 3 35 4 C35.08871273 7.02977804 35.1151935 10.03667022 35.09765625 13.06640625 C35.0962413 13.97502914 35.09482635 14.88365204 35.09336853 15.81980896 C35.08775193 18.73407221 35.07519665 21.64825981 35.0625 24.5625 C35.05748714 26.53320202 35.05292386 28.50390524 35.04882812 30.47460938 C35.03777711 35.31643559 35.02050138 40.15820495 35 45 C34.34 45 33.68 45 33 45 C32.9175 45.5775 32.835 46.155 32.75 46.75 C31.78188938 49.65433187 30.24558843 50.95255172 28 53 C27.46375 53.5775 26.9275 54.155 26.375 54.75 C25 56 25 56 23 56 C23.33 57.32 23.66 58.64 24 60 C23.34 60 22.68 60 22 60 C22.10699219 60.86882812 22.21398437 61.73765625 22.32421875 62.6328125 C23.28586013 71.87697805 23.28586013 71.87697805 22.125 76.4375 C19.05540063 80.13907571 15.37177595 82.96458982 11 85 C10.01 84.67 9.02 84.34 8 84 C9.43229167 83.15364583 10.86458333 82.30729167 12.296875 81.4609375 C14.90522898 79.22349624 16.38861395 77.04055327 18 74 C17.99719487 70.31057696 17.99719487 70.31057696 17.4375 66.4375 C16.90714485 59.37206823 16.90714485 59.37206823 19.24595642 56.43571472 C20.94050444 54.98885729 22.68817407 53.63328376 24.453125 52.2734375 C29.46083661 47.85942774 31.78914557 44.34460477 32.39845276 37.62983704 C32.55078267 33.13707512 32.46886121 28.67878575 32.3125 24.1875 C32.2954714 22.31970629 32.28436061 20.45184884 32.27929688 18.58398438 C32.25432301 14.05236944 32.14964195 9.52914182 32 5 C31.12432373 5.02356567 31.12432373 5.02356567 30.23095703 5.04760742 C27.52907405 5.11082028 24.82734741 5.14925923 22.125 5.1875 C20.74828125 5.22520508 20.74828125 5.22520508 19.34375 5.26367188 C12.89965729 5.33174328 6.94547518 4.65239618 1 2 C0.67 1.34 0.34 0.68 0 0 Z " fill="#3A41AE" transform="translate(128,196)"/>
<path d="M0 0 C-0.804375 0.78375 -1.60875 1.5675 -2.4375 2.375 C-4.98690417 4.71982856 -4.98690417 4.71982856 -6 7 C-6.66 7 -7.32 7 -8 7 C-8 8.98 -8 10.96 -8 13 C-8.66 13 -9.32 13 -10 13 C-11.125 8.25 -11.125 8.25 -10 6 C-11.32 6.33 -12.64 6.66 -14 7 C-14 7.99 -14 8.98 -14 10 C-14.99 10 -15.98 10 -17 10 C-17.33 10.99 -17.66 11.98 -18 13 C-19.43725871 13.16873478 -20.87481838 13.33490737 -22.3125 13.5 C-23.11300781 13.5928125 -23.91351563 13.685625 -24.73828125 13.78125 C-27 14 -27 14 -30 14 C-29.67 12.68 -29.34 11.36 -29 10 C-37.415 10.495 -37.415 10.495 -46 11 C-46.66 12.98 -47.32 14.96 -48 17 C-48.763125 17.061875 -49.52625 17.12375 -50.3125 17.1875 C-53.90652146 18.27406463 -54.23341441 19.76125975 -56 23 C-58.5625 25.8125 -58.5625 25.8125 -61 28 C-61.66 28 -62.32 28 -63 28 C-63.33 28.66 -63.66 29.32 -64 30 C-64 28.68 -64 27.36 -64 26 C-65.32 26.33 -66.64 26.66 -68 27 C-65.41767584 19.25302752 -58.79958583 14.70337891 -51.75 11.0625 C-44.01801544 7.3354813 -35.05576169 6.5983421 -26.7734375 8.89453125 C-24.14273582 9.85640279 -21.56255105 10.87005623 -19 12 C-18.73703125 11.24074219 -18.4740625 10.48148438 -18.203125 9.69921875 C-15.95566644 4.65703088 -11.75151662 1.78989965 -6.8125 -0.4375 C-4.05498252 -0.9890035 -2.59560168 -0.99830834 0 0 Z " fill="#0915C5" transform="translate(182,119)"/>
<path d="M0 0 C2.59792234 2.22679057 4.6245032 4.48008136 6.625 7.25 C4.15 6.755 4.15 6.755 1.625 6.25 C1.13 4.765 1.13 4.765 0.625 3.25 C-1.39008358 2.51676204 -1.39008358 2.51676204 -3.375 2.25 C-3.705 2.91 -4.035 3.57 -4.375 4.25 C-5.695 3.59 -7.015 2.93 -8.375 2.25 C-8.705 3.57 -9.035 4.89 -9.375 6.25 C-10.4475 6.37375 -11.52 6.4975 -12.625 6.625 C-16.80019557 7.27287328 -16.80019557 7.27287328 -20.375 9.25 C-20.519375 9.889375 -20.66375 10.52875 -20.8125 11.1875 C-21.375 13.25 -21.375 13.25 -23.375 14.9375 C-29.13808422 17.45884935 -35.27662857 17.84719252 -41.375 16.25 C-42.365 15.59 -43.355 14.93 -44.375 14.25 C-44.375 13.59 -44.375 12.93 -44.375 12.25 C-39.53871695 13.24043705 -34.89881127 14.20698846 -30.375 16.25 C-30.2925 15.38375 -30.21 14.5175 -30.125 13.625 C-28.66566448 7.05799017 -24.72804996 3.10419597 -19.375 -0.75 C-13.0495685 -3.91271575 -6.15440084 -3.19117081 0 0 Z " fill="#0210D4" transform="translate(199.375,163.75)"/>
<path d="M0 0 C-1.32 0.33 -2.64 0.66 -4 1 C-4 1.66 -4 2.32 -4 3 C-4.83402344 3.07476562 -5.66804688 3.14953125 -6.52734375 3.2265625 C-17.19267293 4.47268344 -23.83306148 8.13948678 -31 16 C-30.34 16.66 -29.68 17.32 -29 18 C-28.61713197 21.73296326 -28.85084215 22.77626323 -31 26 C-29.68 25.67 -28.36 25.34 -27 25 C-27.33 25.99 -27.66 26.98 -28 28 C-28.66 28 -29.32 28 -30 28 C-29.67 29.98 -29.34 31.96 -29 34 C-27.02 34.66 -25.04 35.32 -23 36 C-23 37.32 -23 38.64 -23 40 C-22.34 40 -21.68 40 -21 40 C-21 40.66 -21 41.32 -21 42 C-20.34 42 -19.68 42 -19 42 C-18.67 43.65 -18.34 45.3 -18 47 C-18.70125 46.278125 -19.4025 45.55625 -20.125 44.8125 C-25.11923597 39.81038245 -25.11923597 39.81038245 -31 36 C-31 35.34 -31 34.68 -31 34 C-31.94875 33.855625 -32.8975 33.71125 -33.875 33.5625 C-37 33 -37 33 -39 32 C-38.0771083 22.95566138 -34.77703687 14.98635491 -27.734375 9.109375 C-19.08190168 2.79253865 -10.81346376 -0.25746342 0 0 Z " fill="#0311CD" transform="translate(235,118)"/>
<path d="M0 0 C1.29349365 0.00523682 2.5869873 0.01047363 3.91967773 0.01586914 C5.17594971 0.0183667 6.43222168 0.02086426 7.7265625 0.0234375 C9.33587646 0.0325415 10.94519043 0.04164551 12.60327148 0.05102539 C17.69764648 0.07165039 22.79202148 0.09227539 28.04077148 0.11352539 C28.04077148 11.99352539 28.04077148 23.87352539 28.04077148 36.11352539 C27.71077148 36.11352539 27.38077148 36.11352539 27.04077148 36.11352539 C27.04077148 24.89352539 27.04077148 13.67352539 27.04077148 2.11352539 C17.47077148 2.11352539 7.90077148 2.11352539 -1.95922852 2.11352539 C-1.95922852 6.07352539 -1.95922852 10.03352539 -1.95922852 14.11352539 C3.98077148 14.11352539 9.92077148 14.11352539 16.04077148 14.11352539 C16.04077148 23.02352539 16.04077148 31.93352539 16.04077148 41.11352539 C15.38077148 41.11352539 14.72077148 41.11352539 14.04077148 41.11352539 C14.04077148 33.52352539 14.04077148 25.93352539 14.04077148 18.11352539 C9.7508787 16.68356113 5.47178185 16.72808223 0.97436523 16.49243164 C-1.95922852 16.11352539 -1.95922852 16.11352539 -3.95922852 14.11352539 C-4.18969727 11.10961914 -4.18969727 11.10961914 -4.14672852 7.55102539 C-4.13706055 5.7856543 -4.13706055 5.7856543 -4.12719727 3.98461914 C-3.90284294 0.14972543 -3.90284294 0.14972543 0 0 Z " fill="#3840B1" transform="translate(218.959228515625,198.886474609375)"/>
<path d="M0 0 C2.86724686 0.57344937 3.8614515 0.8614515 6 3 C4.35 3.33 2.7 3.66 1 4 C1.16265854 4.54271545 1.32531708 5.08543091 1.49290466 5.64459229 C2.08327016 8.38678165 2.11973344 10.88048545 2.11352539 13.68652344 C2.11344986 14.82740417 2.11337433 15.96828491 2.11329651 17.14373779 C2.10813522 18.36989807 2.10297394 19.59605835 2.09765625 20.859375 C2.0962413 22.11888977 2.09482635 23.37840454 2.09336853 24.67608643 C2.08872073 28.01665119 2.07974281 31.35714721 2.06866455 34.69769287 C2.05841598 38.1096538 2.05386354 41.52162185 2.04882812 44.93359375 C2.03779963 51.6224148 2.02106189 58.31120343 2 65 C1.34 65 0.68 65 0 65 C0 44.87 0 24.74 0 4 C-10.23 4 -20.46 4 -31 4 C-31 3.34 -31 2.68 -31 2 C-20.77 2 -10.54 2 0 2 C0 1.34 0 0.68 0 0 Z " fill="#0512BA" transform="translate(205,196)"/>
<path d="M0 0 C4.45942458 4.45942458 4.125 11.05506437 4.125 17 C4.09317894 19.00018087 4.05486931 21.00031866 4 23 C4.92683594 23.13277344 5.85367187 23.26554687 6.80859375 23.40234375 C12.247588 24.42090693 15.67192887 27.15940504 18.875 31.5625 C21.75551612 36.5684455 21.88438992 41.37429745 21 47 C19.33757628 52.29676495 16.81183685 56.06595314 12 59 C9.1875 59.75 9.1875 59.75 7 60 C7.33 59.34 7.66 58.68 8 58 C8.66 58 9.32 58 10 58 C10 57.34 10 56.68 10 56 C11.98 55.505 11.98 55.505 14 55 C14.268125 53.88625 14.53625 52.7725 14.8125 51.625 C16 48 16 48 19 46 C19.76056062 39.69821201 18.54363752 35.26103181 15 30 C12.37247373 27.45209574 11.69284426 27 8 27 C8 26.34 8 25.68 8 25 C6.68 25 5.36 25 4 25 C3.67 25.66 3.34 26.32 3 27 C4.32 27.33 5.64 27.66 7 28 C7 28.66 7 29.32 7 30 C5.02 30 3.04 30 1 30 C0.67 28.68 0.34 27.36 0 26 C-1.65 25.67 -3.3 25.34 -5 25 C-5 24.34 -5 23.68 -5 23 C-3.02 23.33 -1.04 23.66 1 24 C1.2085819 11.95838424 1.2085819 11.95838424 0 0 Z " fill="#0917B4" transform="translate(265,139)"/>
<path d="M0 0 C0.66 0.33 1.32 0.66 2 1 C2.11667875 4.22886009 2.18740546 7.45717445 2.25 10.6875 C2.30027344 12.05551758 2.30027344 12.05551758 2.3515625 13.45117188 C2.415383 17.83883152 2.41446668 20.31064943 0.109375 24.14453125 C-2 26 -2 26 -4 26 C-4.0825 26.515625 -4.165 27.03125 -4.25 27.5625 C-6.40651541 34.57117509 -8.80874529 37.3175002 -15.25 40.9375 C-23.02949291 44.84762256 -30.49060398 44.69622331 -39 44 C-39 43.34 -39 42.68 -39 42 C-37.74896484 41.94392578 -37.74896484 41.94392578 -36.47265625 41.88671875 C-25.68401553 41.25645452 -16.98967848 39.72743521 -9 32 C-1.27889054 22.49401069 -0.45111734 11.8068298 0 0 Z " fill="#0F15B0" transform="translate(299,171)"/>
<path d="M0 0 C3.3125 0.9375 3.3125 0.9375 5.3125 2.9375 C5.97550618 9.01505662 5.97550618 9.01505662 3.875 11.9375 C-0.04643905 13.46781768 -3.6161271 12.65955972 -7.6875 11.9375 C-8.5 8.75 -8.5 8.75 -8.6875 4.9375 C-6.02788833 0.94808249 -4.85102141 -0.0822207 0 0 Z " fill="#3135A4" transform="translate(267.6875,256.0625)"/>
<path d="M0 0 C0.66 0.66 1.32 1.32 2 2 C1.6875 4.1875 1.6875 4.1875 1 7 C-0.43223417 14.9568565 -1.04895878 24.11938932 1 32 C3.31256494 34.72926391 3.31256494 34.72926391 6 37 C8.22943223 39.46006315 8.95951782 40.40626135 9.1875 43.75 C9.125625 44.4925 9.06375 45.235 9 46 C1.9506149 40.91788516 -1.66325016 34.32921499 -4 26 C-4.79898399 17.33569314 -4.06119616 9.1684768 -1 1 C-0.67 0.67 -0.34 0.34 0 0 Z " fill="#1E27AC" transform="translate(113,146)"/>
<path d="M0 0 C0.56203125 0.31710938 1.1240625 0.63421875 1.703125 0.9609375 C4.15196317 2.06874525 6.08387855 2.38975399 8.75 2.625 C9.54921875 2.69976562 10.3484375 2.77453125 11.171875 2.8515625 C11.77515625 2.90054688 12.3784375 2.94953125 13 3 C13 3.66 13 4.32 13 5 C17.04141194 5.63394697 20.9065307 6.12404452 25 6 C24.34 6.99 23.68 7.98 23 9 C22.19820312 8.855625 21.39640625 8.71125 20.5703125 8.5625 C4.87517395 6.0000284 -9.85688971 4.82272027 -23.9375 13.3125 C-27 15 -27 15 -29.375 14.875 C-31 14 -31 14 -32 12 C-31.18208984 11.85304688 -31.18208984 11.85304688 -30.34765625 11.703125 C-25.1643208 10.67531831 -20.68908938 9.13406898 -15.9453125 6.8046875 C-14 6 -14 6 -11 6 C-11 5.34 -11 4.68 -11 4 C-9.1128125 3.566875 -9.1128125 3.566875 -7.1875 3.125 C-4.1460601 2.42696461 -2.69330122 1.79553415 0 0 Z " fill="#0313C1" transform="translate(231,100)"/>
<path d="M0 0 C2 2 2 2 2.3125 5.4375 C2 9 2 9 0.8046875 10.7421875 C-1.70660369 12.49248136 -3.20123456 12.11410935 -6.1875 11.6875 C-7.08855469 11.56761719 -7.98960937 11.44773437 -8.91796875 11.32421875 C-9.60503906 11.21722656 -10.29210937 11.11023438 -11 11 C-11.60579065 3.73051225 -11.60579065 3.73051225 -8.875 0.4375 C-5.34522437 -1.32738782 -3.72617026 -1.15925297 0 0 Z " fill="#101DA6" transform="translate(202,274)"/>
<path d="M0 0 C2.875 1.0625 2.875 1.0625 4.875 3.3125 C5.875 6.0625 5.875 6.0625 5.1875 8.75 C3.875 11.0625 3.875 11.0625 1.875 13.0625 C-1.40802159 13.41935017 -3.49994615 13.35857814 -6.5 11.9375 C-8.125 10.0625 -8.125 10.0625 -8.6875 7.125 C-8.125 4.0625 -8.125 4.0625 -6 1.625 C-3.125 0.0625 -3.125 0.0625 0 0 Z " fill="#0512C5" transform="translate(130.125,255.9375)"/>
<path d="M0 0 C3.63 0 7.26 0 11 0 C11 0.99 11 1.98 11 3 C10.34 3 9.68 3 9 3 C9.33 3.66 9.66 4.32 10 5 C10.99 5 11.98 5 13 5 C13.66 6.32 14.32 7.64 15 9 C13.33871866 11.01270624 12.45159728 11.91655268 9.84375 12.3984375 C8.68359375 12.38683594 8.68359375 12.38683594 7.5 12.375 C6.7265625 12.38273438 5.953125 12.39046875 5.15625 12.3984375 C2.44955018 11.89828645 1.5664797 11.25274699 0 9 C-0.39500857 5.95053384 -0.13430156 3.08893588 0 0 Z " fill="#F6F9FC" transform="translate(261,201)"/>
<path d="M0 0 C5.94 0 11.88 0 18 0 C18 15.84 18 31.68 18 48 C16.68 48.66 15.36 49.32 14 50 C14 49.01 14 48.02 14 47 C14.66 47 15.32 47 16 47 C16 32.15 16 17.3 16 2 C10.72 2 5.44 2 0 2 C0 1.34 0 0.68 0 0 Z " fill="#2D39BA" transform="translate(174,213)"/>
<path d="M0 0 C0 1.65 0 3.3 0 5 C-0.763125 5.061875 -1.52625 5.12375 -2.3125 5.1875 C-5.90652146 6.27406463 -6.23341441 7.76125975 -8 11 C-10.5625 13.8125 -10.5625 13.8125 -13 16 C-13.66 16 -14.32 16 -15 16 C-15.33 16.66 -15.66 17.32 -16 18 C-16 16.68 -16 15.36 -16 14 C-17.32 14.33 -18.64 14.66 -20 15 C-18.01060632 8.96866361 -14.04076468 5.6652619 -9 2 C-6.03834236 0.63607872 -3.28741225 0 0 0 Z " fill="#040FD4" transform="translate(134,131)"/>
<path d="M0 0 C1.20970459 0.00523682 2.41940918 0.01047363 3.66577148 0.01586914 C4.97094727 0.0190918 6.27612305 0.02231445 7.62084961 0.02563477 C9.00952213 0.03399138 10.39819401 0.04245634 11.78686523 0.05102539 C13.17944179 0.05603873 14.57202005 0.06060193 15.96459961 0.06469727 C19.38456394 0.07653105 22.80444367 0.09301659 26.22436523 0.11352539 C25.56436523 1.10352539 24.90436523 2.09352539 24.22436523 3.11352539 C21.98461914 3.37475586 21.98461914 3.37475586 19.20092773 3.23071289 C17.67737671 3.17681396 17.67737671 3.17681396 16.12304688 3.12182617 C14.50257446 3.05584229 14.50257446 3.05584229 12.84936523 2.98852539 C3.38244181 2.79747162 -3.56545987 3.04057179 -11.77563477 8.11352539 C-13.01120117 8.81735352 -13.01120117 8.81735352 -14.27172852 9.53540039 C-18.89700467 12.36069223 -22.35364035 15.52196589 -25.68188477 19.79321289 C-26.04282227 20.22891602 -26.40375977 20.66461914 -26.77563477 21.11352539 C-27.10563477 21.11352539 -27.43563477 21.11352539 -27.77563477 21.11352539 C-27.77563477 19.46352539 -27.77563477 17.81352539 -27.77563477 16.11352539 C-26.78563477 16.11352539 -25.79563477 16.11352539 -24.77563477 16.11352539 C-24.77563477 15.45352539 -24.77563477 14.79352539 -24.77563477 14.11352539 C-24.11563477 14.11352539 -23.45563477 14.11352539 -22.77563477 14.11352539 C-22.77563477 13.35040039 -22.77563477 12.58727539 -22.77563477 11.80102539 C-22.44563477 10.91415039 -22.11563477 10.02727539 -21.77563477 9.11352539 C-18.33813477 7.61352539 -18.33813477 7.61352539 -16.18188477 6.93383789 C-10.87912899 5.12608024 -5.34933007 0.21879132 0 0 Z " fill="#0E1AAC" transform="translate(133.775634765625,112.886474609375)"/>
<path d="M0 0 C4.77643795 2.02080067 8.89737561 4.94510909 11.375 9.5625 C12.30991051 14.70450779 12.15176475 19.78941038 12 25 C11.67 25 11.34 25 11 25 C11 22.03 11 19.06 11 16 C10.01 16.33 9.02 16.66 8 17 C7.34 15.35 6.68 13.7 6 12 C4.02 12.33 2.04 12.66 0 13 C0 8.66666667 0 4.33333333 0 0 Z " fill="#E8EAF3" transform="translate(273,245)"/>
<path d="M0 0 C0.66 0.33 1.32 0.66 2 1 C2 1.66 2 2.32 2 3 C7.55053286 2.25640327 7.55053286 2.25640327 13 1 C13.495 1.99 13.495 1.99 14 3 C13.34 3.33 12.68 3.66 12 4 C12.66 4.99 13.32 5.98 14 7 C13.67 7.66 13.34 8.32 13 9 C10.23936931 7.91247882 7.6652998 6.8148467 5.0625 5.375 C-1.23993876 2.68577559 -9.29069939 2.88406634 -15.765625 4.83203125 C-17.92608087 5.78706721 -19.9520777 6.82608638 -22 8 C-23.33054011 8.6722241 -24.66312072 9.34047289 -26 10 C-25.67 8.68 -25.34 7.36 -25 6 C-24.01 6 -23.02 6 -22 6 C-22 4.35 -22 2.7 -22 1 C-21.16855469 1.01160156 -20.33710938 1.02320312 -19.48046875 1.03515625 C-17.85044922 1.04869141 -17.85044922 1.04869141 -16.1875 1.0625 C-14.56908203 1.07990234 -14.56908203 1.07990234 -12.91796875 1.09765625 C-8.4666245 0.94868221 -4.58662398 -0.16678633 0 0 Z " fill="#1821AD" transform="translate(186,103)"/>
<path d="M0 0 C8.67086886 -0.73794629 15.41871139 3.02289066 22.13671875 8.2734375 C25.24506829 11.15371107 27.64846984 14.49051938 30 18 C29.67 18.66 29.34 19.32 29 20 C28.34 19.01 27.68 18.02 27 17 C23.94570927 15.78715124 23.94570927 15.78715124 21 15 C20.67 13.02 20.34 11.04 20 9 C18.989375 8.87625 17.97875 8.7525 16.9375 8.625 C13.12062388 8.01914665 9.68499888 7.12806088 6 6 C6.33 4.68 6.66 3.36 7 2 C4.69 2 2.38 2 0 2 C0 1.34 0 0.68 0 0 Z " fill="#0813BC" transform="translate(235,119)"/>
<path d="M0 0 C3.63 0 7.26 0 11 0 C12.85210756 20.14868529 12.85210756 20.14868529 7.67236328 26.46435547 C4.23348526 29.87490082 1.44014738 31.8197749 -3.40234375 32.42578125 C-6.39548348 32.20868075 -9.1069484 31.78258813 -12 31 C-11.34 30.34 -10.68 29.68 -10 29 C-8.00902404 29.03263895 -6.01803724 29.06648375 -4.02734375 29.11328125 C-0.01040215 28.88882787 2.36092766 26.56806431 5.25 24 C7.73585863 21.1590187 8.12470546 18.63059632 8.31640625 14.98828125 C8.35830078 14.23095703 8.40019531 13.47363281 8.44335938 12.69335938 C8.48267578 11.90767578 8.52199219 11.12199219 8.5625 10.3125 C8.60568359 9.51521484 8.64886719 8.71792969 8.69335938 7.89648438 C8.79927368 5.93118553 8.90012551 3.96561504 9 2 C7.329375 2.061875 7.329375 2.061875 5.625 2.125 C2 2 2 2 0 0 Z " fill="#252DA6" transform="translate(138,213)"/>
<path d="M0 0 C1.98 0.66 3.96 1.32 6 2 C6 2.66 6 3.32 6 4 C5.236875 4.5775 4.47375 5.155 3.6875 5.75 C-0.18805923 8.99465424 -1.69973286 11.6869531 -2.35546875 16.73828125 C-2.70278447 24.12578049 -1.25804054 28.97791409 3 35 C2.01 34.67 1.02 34.34 0 34 C-0.33 33.34 -0.66 32.68 -1 32 C-3.475 32.495 -3.475 32.495 -6 33 C-5.88985294 29.74931846 -5.75928788 26.49976672 -5.625 23.25 C-5.5940625 22.32960938 -5.563125 21.40921875 -5.53125 20.4609375 C-5.49257812 19.57148438 -5.45390625 18.68203125 -5.4140625 17.765625 C-5.3826416 16.94868164 -5.3512207 16.13173828 -5.31884766 15.29003906 C-4.97656307 12.83167042 -4.2260723 11.14240001 -3 9 C-2.34 9 -1.68 9 -1 9 C-0.67 6.03 -0.34 3.06 0 0 Z " fill="#0B15B1" transform="translate(182,260)"/>
<path d="M0 0 C1.5405098 3.0810196 1.50119881 6.36387643 1.75 9.75 C1.81832031 10.45382812 1.88664063 11.15765625 1.95703125 11.8828125 C2.30869987 16.73403599 1.78032853 19.82346301 -1 24 C-3.15625 25.93359375 -3.15625 25.93359375 -5.5 27.4375 C-6.2734375 27.95183594 -7.046875 28.46617187 -7.84375 28.99609375 C-10 30 -10 30 -13 29 C-11.56770833 28.15364583 -10.13541667 27.30729167 -8.703125 26.4609375 C-6.09422802 24.22303046 -4.62576176 22.03640103 -3 19 C-2.79432158 16.12895472 -2.74676668 13.647372 -2.9375 10.8125 C-3.38127858 3.50671227 -3.38127858 3.50671227 -1.50390625 1.01171875 C-1.00761719 0.67785156 -0.51132813 0.34398437 0 0 Z " fill="#232BA9" transform="translate(149,251)"/>
<path d="M0 0 C6.72788324 -0.4893006 11.05144928 0.93627275 17 4 C17.721875 4.29648438 18.44375 4.59296875 19.1875 4.8984375 C21 6 21 6 22.25 9.75 C23.49697207 16.74437968 25.1955137 26.42785797 21.25 32.75 C19.20517699 34.79482301 17.7083047 36.03274832 15 37 C16.375 34.5 16.375 34.5 18 32 C18.66 32 19.32 32 20 32 C21.82552676 25.83148619 22.15209569 18.14368496 19.875 12.0625 C17.67733673 8.47298333 15.81003206 5.81971681 12 4 C7.69282771 3.01550348 3.39395946 2.43678826 -1 2 C-0.67 1.34 -0.34 0.68 0 0 Z " fill="#3139A4" transform="translate(263,242)"/>
<path d="M0 0 C2.59792234 2.22679057 4.6245032 4.48008136 6.625 7.25 C4.15 6.755 4.15 6.755 1.625 6.25 C1.295 5.26 0.965 4.27 0.625 3.25 C-1.87947516 2.03130071 -1.87947516 2.03130071 -4.375 1.25 C-4.375 0.59 -4.375 -0.07 -4.375 -0.75 C-5.365 -0.75 -6.355 -0.75 -7.375 -0.75 C-7.375 -0.09 -7.375 0.57 -7.375 1.25 C-9.35246603 1.98080266 -11.35572489 2.64421747 -13.375 3.25 C-14.035 2.92 -14.695 2.59 -15.375 2.25 C-15.375 1.59 -15.375 0.93 -15.375 0.25 C-16.035 0.25 -16.695 0.25 -17.375 0.25 C-17.705 0.91 -18.035 1.57 -18.375 2.25 C-20.34985205 3.6203055 -22.34886717 4.95672372 -24.375 6.25 C-25.035 5.92 -25.695 5.59 -26.375 5.25 C-18.41626599 -2.237803 -10.32270841 -5.35251547 0 0 Z " fill="#1920A8" transform="translate(199.375,163.75)"/>
<path d="M0 0 C2.0625 0.4375 2.0625 0.4375 4 1 C3.2575 2.1446875 3.2575 2.1446875 2.5 3.3125 C0.28524261 8.75711192 -0.205266 14.47492095 1.7265625 20.125 C4.73382055 25.79722656 9.02299182 29.00478484 15 31 C17.89651829 31.23971089 17.89651829 31.23971089 20.8125 31.125 C21.78832031 31.10695313 22.76414063 31.08890625 23.76953125 31.0703125 C24.50558594 31.04710937 25.24164063 31.02390625 26 31 C26 31.66 26 32.32 26 33 C17.02669634 33.85914609 9.22825474 32.78034142 2 27 C-1.28804619 21.41665819 -1.40590003 16.49741379 -1.25 10.125 C-1.24484375 9.25875 -1.2396875 8.3925 -1.234375 7.5 C-1.15481151 1.15481151 -1.15481151 1.15481151 0 0 Z " fill="#0F18A8" transform="translate(110,250)"/>
<path d="M0 0 C0.66 0.99 1.32 1.98 2 3 C1.01 3.495 1.01 3.495 0 4 C-0.91280138 6.57437581 -0.91280138 6.57437581 -1.625 9.5625 C-1.88539063 10.57441406 -2.14578125 11.58632812 -2.4140625 12.62890625 C-2.60742188 13.41136719 -2.80078125 14.19382813 -3 15 C-1.91138672 14.92265625 -1.91138672 14.92265625 -0.80078125 14.84375 C2.41591386 15.023203 4.06615577 15.86039151 6.8125 17.5 C7.99779297 18.19609375 7.99779297 18.19609375 9.20703125 18.90625 C9.79871094 19.2671875 10.39039063 19.628125 11 20 C11 21.32 11 22.64 11 24 C11.66 24 12.32 24 13 24 C13 24.66 13 25.32 13 26 C13.66 26 14.32 26 15 26 C15.33 27.65 15.66 29.3 16 31 C15.29875 30.278125 14.5975 29.55625 13.875 28.8125 C8.88076403 23.81038245 8.88076403 23.81038245 3 20 C3 19.34 3 18.68 3 18 C2.05125 17.855625 1.1025 17.71125 0.125 17.5625 C-3 17 -3 17 -5 16 C-4.37827268 9.90707222 -2.71441363 5.42882726 0 0 Z " fill="#2E35A5" transform="translate(201,134)"/>
<path d="M0 0 C5.48601863 1.27581829 7.73952441 3.47156168 11 8 C13.85366245 12.76940787 13.60543726 17.59591186 13 23 C11.37575221 28.29416983 8.79040533 32.07902114 4 35 C1.1875 35.75 1.1875 35.75 -1 36 C-0.67 35.34 -0.34 34.68 0 34 C0.66 34 1.32 34 2 34 C2 33.34 2 32.68 2 32 C3.32 31.67 4.64 31.34 6 31 C6.268125 29.88625 6.53625 28.7725 6.8125 27.625 C8 24 8 24 11 22 C11.76056062 15.69821201 10.54363752 11.26103181 7 6 C4.37247373 3.45209574 3.69284426 3 0 3 C0 2.01 0 1.02 0 0 Z " fill="#1219A6" transform="translate(273,163)"/>
<path d="M0 0 C1.17309778 3.51929333 0.44734919 5.32745953 -0.49755859 8.81494141 C-1.29338554 12.27589921 -1.33886073 15.64898373 -1.3125 19.1875 C-1.31121094 19.91638428 -1.30992188 20.64526855 -1.30859375 21.39624023 C-1.18959365 28.20973958 0.08682743 34.45193911 2 41 C0.04296875 40.28515625 0.04296875 40.28515625 -2 39 C-2.57421875 36.87109375 -2.57421875 36.87109375 -2.6875 34.4375 C-2.62268451 31.41906099 -2.62268451 31.41906099 -4 29 C-4.08685603 27.43827255 -4.10702219 25.87270656 -4.09765625 24.30859375 C-4.09443359 23.36435547 -4.09121094 22.42011719 -4.08789062 21.44726562 C-4.07951172 20.45404297 -4.07113281 19.46082031 -4.0625 18.4375 C-4.05798828 17.44041016 -4.05347656 16.44332031 -4.04882812 15.41601562 C-4.03700007 12.94395151 -4.02051849 10.47200482 -4 8 C-3.34 8 -2.68 8 -2 8 C-1.34 5.36 -0.68 2.72 0 0 Z " fill="#0C18A4" transform="translate(99,144)"/>
<path d="M0 0 C2.475 0.495 2.475 0.495 5 1 C3.71107323 3.87529818 2.50703617 6.05008298 0 8 C-2.71942049 8.80847636 -4.8541748 9.01017385 -7.6875 8.8125 C-14.1253921 9.17690899 -20.01080504 11.98795152 -25 16 C-25 13 -25 13 -23.453125 11.4296875 C-17.83667315 7.46630481 -13.46270992 6.29162391 -6.6015625 6.10546875 C-3.88506734 6.11587781 -3.88506734 6.11587781 -1 5 C-0.67 3.35 -0.34 1.7 0 0 Z " fill="#0411C9" transform="translate(139,234)"/>
<path d="M0 0 C0.98120464 3.05263664 0.98120464 4.94736336 0 8 C-5.75 8.125 -5.75 8.125 -8 7 C-8.625 3.9375 -8.625 3.9375 -9 1 C-5.64919071 -1.10976881 -3.77897651 -1.0497157 0 0 Z " fill="#0610D0" transform="translate(271,259)"/>
<path d="M0 0 C4.43040026 0.51516282 7.25702378 1.62158411 11 4 C10.16855469 5.59328125 10.16855469 5.59328125 9.3203125 7.21875 C8.58810766 8.64561071 7.85636127 10.07270673 7.125 11.5 C6.76019531 12.19609375 6.39539063 12.8921875 6.01953125 13.609375 C3.60521878 18.35020677 2.11367918 22.79501519 1 28 C0.67 28 0.34 28 0 28 C0 25.03 0 22.06 0 19 C0.66 19 1.32 19 2 19 C2 17.02 2 15.04 2 13 C2.99 12.67 3.98 12.34 5 12 C6.42094268 8.95512282 7.24383464 7.00243131 6.4375 3.6875 C4.50250129 1.41597977 2.90224607 1.30549959 0 1 C0 0.67 0 0.34 0 0 Z " fill="#1920A2" transform="translate(183,119)"/>
<path d="M0 0 C2.875 1.0625 2.875 1.0625 4.875 3.3125 C5.875 6.0625 5.875 6.0625 5.1875 8.75 C3.875 11.0625 3.875 11.0625 1.875 13.0625 C-1.40802159 13.41935017 -3.49994615 13.35857814 -6.5 11.9375 C-8.125 10.0625 -8.125 10.0625 -8.6875 7.125 C-8.125 4.0625 -8.125 4.0625 -6 1.625 C-3.125 0.0625 -3.125 0.0625 0 0 Z M-6.125 4.0625 C-6.3752157 7.14615871 -6.3752157 7.14615871 -6.125 10.0625 C-3.815 10.7225 -1.505 11.3825 0.875 12.0625 C3.34323846 8.71848531 3.34323846 8.71848531 3.5625 4.75 C3.335625 4.193125 3.10875 3.63625 2.875 3.0625 C-1.86576549 1.87551999 -1.86576549 1.87551999 -6.125 4.0625 Z " fill="#20249B" transform="translate(130.125,255.9375)"/>
<path d="M0 0 C0.66 0.33 1.32 0.66 2 1 C0.625 3 0.625 3 -1 5 C-1.66 5 -2.32 5 -3 5 C-3 5.99 -3 6.98 -3 8 C-4.98 8.66 -6.96 9.32 -9 10 C-9.66 9.34 -10.32 8.68 -11 8 C-12.91854347 7.70688512 -12.91854347 7.70688512 -15.10546875 7.76953125 C-15.92466797 7.77146484 -16.74386719 7.77339844 -17.58789062 7.77539062 C-18.87469727 7.79375977 -18.87469727 7.79375977 -20.1875 7.8125 C-21.44530273 7.8134668 -21.44530273 7.8134668 -22.72851562 7.81445312 C-27.58335011 7.84856203 -32.21310244 8.19030826 -37 9 C-32.94421803 6.29614536 -30.45160051 5.89512337 -25.703125 6.11328125 C-24.6615625 6.14357422 -23.62 6.17386719 -22.546875 6.20507812 C-20.36383926 6.27620784 -18.18135015 6.36708848 -16 6.47851562 C-10.56417251 6.60236145 -6.98134653 6.61904985 -2.734375 2.98046875 C-1.79410381 2.01420381 -0.87057123 1.02950648 0 0 Z " fill="#DBDFF9" transform="translate(165,109)"/>
<path d="M0 0 C0.495 0.99 0.495 0.99 1 2 C0.0867395 1.9685791 0.0867395 1.9685791 -0.8449707 1.93652344 C-13.93264362 1.54529227 -24.44166172 1.43894669 -35.9375 8.3125 C-39 10 -39 10 -41.375 9.875 C-43 9 -43 9 -44 7 C-42.7625 6.773125 -41.525 6.54625 -40.25 6.3125 C-36.38946866 5.49881878 -33.3669957 4.18244059 -29.875 2.375 C-20.58350144 -1.76129375 -9.94839627 -0.41093401 0 0 Z " fill="#1B24A0" transform="translate(243,105)"/>
<path d="M0 0 C1.125 6.75 1.125 6.75 0 9 C-2.32156597 9.40729228 -4.6568787 9.74438677 -7 10 C-7.33 7.69 -7.66 5.38 -8 3 C-4.93882432 0.37613513 -4.26826873 0 0 0 Z " fill="#0510C9" transform="translate(201,274)"/>
<path d="M0 0 C0.94875 0.495 1.8975 0.99 2.875 1.5 C10.14591379 4.57841108 17.1921379 3.34342252 24.3828125 0.65625 C24.91648438 0.4396875 25.45015625 0.223125 26 0 C24.63016497 3.16115776 24.0109362 3.9927092 21 6 C18.3253355 6.24840297 15.79922387 6.37018158 13.125 6.375 C12.06345703 6.41173828 12.06345703 6.41173828 10.98046875 6.44921875 C7.25243393 6.47004576 5.16940175 6.10692111 1.9921875 4.1015625 C0 2 0 2 0 0 Z " fill="#0D15AC" transform="translate(186,295)"/>
<path d="M0 0 C0 0.33 0 0.66 0 1 C-2.31 1 -4.62 1 -7 1 C-7 0.34 -7 -0.32 -7 -1 C-9.91747073 -0.8859425 -12.83344495 -0.75919732 -15.75 -0.625 C-16.9875 -0.57859375 -16.9875 -0.57859375 -18.25 -0.53125 C-19.04921875 -0.49257812 -19.8484375 -0.45390625 -20.671875 -0.4140625 C-21.77160645 -0.36693115 -21.77160645 -0.36693115 -22.89355469 -0.31884766 C-25.24781937 0.03751183 -26.89141431 0.92808973 -29 2 C-31.25 1.625 -31.25 1.625 -33 1 C-22.05722854 -3.93497537 -11.24251463 -4.76955166 0 0 Z " fill="#111BA1" transform="translate(161,130)"/>
<path d="M0 0 C-1.32 0.33 -2.64 0.66 -4 1 C-4 1.66 -4 2.32 -4 3 C-4.83402344 3.07476562 -5.66804688 3.14953125 -6.52734375 3.2265625 C-17.19267293 4.47268344 -23.83306148 8.13948678 -31 16 C-31.66 15.67 -32.32 15.34 -33 15 C-23.60669558 5.01961405 -13.96293339 -0.3324508 0 0 Z " fill="#151EA4" transform="translate(235,118)"/>
<path d="M0 0 C0.99 0.33 1.98 0.66 3 1 C4.1875 3.5625 4.1875 3.5625 5 6 C4.01 6 3.02 6 2 6 C0.52007842 7.22722741 0.52007842 7.22722741 -1 9 C-2.66666667 10.66666667 -4.33333333 12.33333333 -6 14 C-6.33 11.69 -6.66 9.38 -7 7 C-5.68 7.33 -4.36 7.66 -3 8 C-3 7.01 -3 6.02 -3 5 C-3.99 4.67 -4.98 4.34 -6 4 C-4.0625 3.4375 -4.0625 3.4375 -2 3 C-1.67 3.33 -1.34 3.66 -1 4 C-0.67 2.68 -0.34 1.36 0 0 Z " fill="#F3F7F8" transform="translate(210,267)"/>
<path d="M0 0 C0.33 0 0.66 0 1 0 C0.88590407 1.45922693 0.75834456 2.91740598 0.625 4.375 C0.55539063 5.18710938 0.48578125 5.99921875 0.4140625 6.8359375 C0 9 0 9 -2 11 C-6.65452911 11.63433406 -10.81527331 11.52127974 -15.125 9.625 C-15.74375 9.08875 -16.3625 8.5525 -17 8 C-17 7.34 -17 6.68 -17 6 C-12.16371695 6.99043705 -7.52381127 7.95698846 -3 10 C-2.87625 9.0925 -2.7525 8.185 -2.625 7.25 C-2.07890323 4.41029677 -1.42736197 2.47409409 0 0 Z " fill="#0C17AF" transform="translate(172,170)"/>
<path d="M0 0 C7.14681247 3.29216593 12.45414411 7.51751672 17 14 C17.71875 16.27734375 17.71875 16.27734375 18 18 C17.62875 17.54625 17.2575 17.0925 16.875 16.625 C14.45735315 14.52970606 12.04569398 13.87986715 9 13 C8.67 11.02 8.34 9.04 8 7 C7.01 6.67 6.02 6.34 5 6 C5 5.34 5 4.68 5 4 C2.525 3.01 2.525 3.01 0 2 C0 1.34 0 0.68 0 0 Z " fill="#1019AF" transform="translate(247,121)"/>
<path d="M0 0 C0.66 0.33 1.32 0.66 2 1 C2.08706892 4.27066566 2.14041241 7.54103365 2.1875 10.8125 C2.21263672 11.74126953 2.23777344 12.67003906 2.26367188 13.62695312 C2.27333984 14.51962891 2.28300781 15.41230469 2.29296875 16.33203125 C2.3086792 17.15421143 2.32438965 17.9763916 2.34057617 18.82348633 C2 21 2 21 -1 24 C-0.67 16.08 -0.34 8.16 0 0 Z " fill="#0B13B3" transform="translate(299,171)"/>
<path d="M0 0 C0.66 0.33 1.32 0.66 2 1 C1.67 1.66 1.34 2.32 1 3 C0.34 3 -0.32 3 -1 3 C-1.33 4.32 -1.66 5.64 -2 7 C-1.01 7.33 -0.02 7.66 1 8 C0.34 9.32 -0.32 10.64 -1 12 C-1.66 12 -2.32 12 -3 12 C-3.33 12.66 -3.66 13.32 -4 14 C-4 12.68 -4 11.36 -4 10 C-5.32 10.33 -6.64 10.66 -8 11 C-6.52670958 5.99081256 -3.72484762 3.48192278 0 0 Z " fill="#141BBE" transform="translate(122,135)"/>
<path d="M0 0 C1.32 0.33 2.64 0.66 4 1 C3.46890625 1.43570313 2.9378125 1.87140625 2.390625 2.3203125 C-4.12499877 7.81341137 -8.000033 12.66680416 -10 21 C-11.53166168 16.91556885 -10.63081652 13.20544343 -10 9 C-9.34 9 -8.68 9 -8 9 C-7.67 8.34 -7.34 7.68 -7 7 C-6.34 7 -5.68 7 -5 7 C-5 6.01 -5 5.02 -5 4 C-4.360625 3.896875 -3.72125 3.79375 -3.0625 3.6875 C-2.381875 3.460625 -1.70125 3.23375 -1 3 C-0.67 2.01 -0.34 1.02 0 0 Z " fill="#CFD6EF" transform="translate(121,133)"/>
<path d="M0 0 C6.0546875 -0.1953125 6.0546875 -0.1953125 8 0 C8.66 0.66 9.32 1.32 10 2 C11.423125 2.37125 11.423125 2.37125 12.875 2.75 C17.4162419 4.56649676 18.88186673 7.76373346 21 12 C18.02798898 10.60101283 15.42983013 8.95669648 12.75 7.0625 C8.62915531 4.26743287 4.72221873 2.5454534 0 1 C0 0.67 0 0.34 0 0 Z " fill="#3F45B1" transform="translate(246,108)"/>
<path d="M0 0 C0.89138672 0.32484375 0.89138672 0.32484375 1.80078125 0.65625 C8.35522322 2.85805321 14.1134378 3.35349274 21 3 C21.33 3.99 21.66 4.98 22 6 C13.67889465 6.67620721 6.81816322 4.74493505 -1 2 C-0.67 1.34 -0.34 0.68 0 0 Z " fill="#E4EDFB" transform="translate(126,207)"/>
<path d="M0 0 C0.66 0.33 1.32 0.66 2 1 C2.37890625 3.87109375 2.37890625 3.87109375 2.5625 7.4375 C2.66007452 11.8784668 2.66007452 11.8784668 4 16 C1.4837822 18.60608273 -1.05134359 20.89381685 -4 23 C-4.66 22.67 -5.32 22.34 -6 22 C-5.566875 21.62875 -5.13375 21.2575 -4.6875 20.875 C0.98077874 14.57691252 0.32170864 8.03080089 0 0 Z " fill="#343EB6" transform="translate(215,273)"/>
<path d="M0 0 C1.32 0 2.64 0 4 0 C2.49364535 4.21779303 -0.24012422 5.7747674 -4 8 C-6.75078884 8.91692961 -8.35948913 9.10886083 -11.1875 9.0625 C-13.0746875 9.0315625 -13.0746875 9.0315625 -15 9 C-15 8.67 -15 8.34 -15 8 C-13.7625 7.67 -12.525 7.34 -11.25 7 C-10.20585937 6.7215625 -10.20585937 6.7215625 -9.140625 6.4375 C-7 6 -7 6 -3 6 C-3.33 4.35 -3.66 2.7 -4 1 C-2.68 1.33 -1.36 1.66 0 2 C0 1.34 0 0.68 0 0 Z " fill="#DFE7F8" transform="translate(140,273)"/>
<path d="M0 0 C0.99 0.495 0.99 0.495 2 1 C2 1.99 2 2.98 2 4 C2.99 4.33 3.98 4.66 5 5 C5.09796875 5.74765625 5.1959375 6.4953125 5.296875 7.265625 C6.1242422 13.41179202 6.1242422 13.41179202 9.125 18.6875 C10.053125 19.3371875 10.053125 19.3371875 11 20 C8 20 8 20 5.953125 19.04296875 C2.98102311 15.93415017 2.57744034 12.44631055 1.75 8.3125 C1.57726562 7.51521484 1.40453125 6.71792969 1.2265625 5.89648438 C0.8035112 3.93399639 0.39984985 1.96734634 0 0 Z " fill="#3C459E" transform="translate(277,136)"/>
<path d="M0 0 C1.06927734 0.54140625 1.06927734 0.54140625 2.16015625 1.09375 C11.00764522 5.38055489 16.65343084 5.62359836 26 3 C26 3.66 26 4.32 26 5 C19.78124595 7.79118225 13.60645914 8.10303936 7.0625 6.1015625 C4.66444055 5.14097619 2.32308382 4.12878693 0 3 C0 2.01 0 1.02 0 0 Z " fill="#121A9F" transform="translate(252,276)"/>
<path d="M0 0 C0 0.66 0 1.32 0 2 C-1.97746603 2.73080266 -3.98072489 3.39421747 -6 4 C-6.66 3.67 -7.32 3.34 -8 3 C-8 2.34 -8 1.68 -8 1 C-8.66 1 -9.32 1 -10 1 C-10.33 1.66 -10.66 2.32 -11 3 C-12.97485205 4.3703055 -14.97386717 5.70672372 -17 7 C-17.66 6.67 -18.32 6.34 -19 6 C-13.42546815 -0.59522078 -8.31096986 -0.73693329 0 0 Z " fill="#0E18BA" transform="translate(192,163)"/>
<path d="M0 0 C0 0.66 0 1.32 0 2 C-4.95 4.31 -9.9 6.62 -15 9 C-15 8.34 -15 7.68 -15 7 C-14.34 6.67 -13.68 6.34 -13 6 C-13.33 4.35 -13.66 2.7 -14 1 C-13.01 1.33 -12.02 1.66 -11 2 C-8.76425558 1.68803667 -8.76425558 1.68803667 -6.4375 1.0625 C-2.15231788 0 -2.15231788 0 0 0 Z " fill="#0C14C1" transform="translate(183,147)"/>
<path d="M0 0 C6.6 0 13.2 0 20 0 C19.01 1.485 19.01 1.485 18 3 C16.12060547 3.2487793 16.12060547 3.2487793 13.8671875 3.07421875 C12.65869141 2.99204102 12.65869141 2.99204102 11.42578125 2.90820312 C10.58402344 2.83537109 9.74226562 2.76253906 8.875 2.6875 C8.02550781 2.62626953 7.17601562 2.56503906 6.30078125 2.50195312 C4.19946335 2.34848609 2.09954876 2.17602278 0 2 C0 1.34 0 0.68 0 0 Z " fill="#313AA5" transform="translate(140,113)"/>
<path d="M0 0 C0.55042969 0.13277344 1.10085937 0.26554688 1.66796875 0.40234375 C11.66192538 2.52509113 21.8224748 2.65134783 32 3 C32 3.33 32 3.66 32 4 C27.79179855 4.08742801 23.58383224 4.14053641 19.375 4.1875 C17.59029297 4.22520508 17.59029297 4.22520508 15.76953125 4.26367188 C4.87831038 4.35493909 4.87831038 4.35493909 0 1 C0 0.67 0 0.34 0 0 Z " fill="#2E37A3" transform="translate(128,196)"/>
<path d="M0 0 C1.91635217 -0.05423638 3.83314925 -0.09289963 5.75 -0.125 C7.35101563 -0.15980469 7.35101563 -0.15980469 8.984375 -0.1953125 C12 0 12 0 16 2 C12.04 2 8.08 2 4 2 C4 5.96 4 9.92 4 14 C3.67 14 3.34 14 3 14 C3 10.04 3 6.08 3 2 C2.01 2 1.02 2 0 2 C0 1.34 0 0.68 0 0 Z " fill="#0A13B5" transform="translate(256,198)"/>
<path d="M0 0 C0.50789063 0.38671875 1.01578125 0.7734375 1.5390625 1.171875 C4.80591668 3.6434276 8.06163502 6.08332079 11.5 8.3125 C12.7375 9.1478125 12.7375 9.1478125 14 10 C14 10.33 14 10.66 14 11 C11.69 11 9.38 11 7 11 C6.67 10.34 6.34 9.68 6 9 C5.01 8.34 4.02 7.68 3 7 C1.66074475 4.69350484 0.84725588 2.54176763 0 0 Z " fill="#0D18AC" transform="translate(109,197)"/>
<path d="M0 0 C2.64 0.33 5.28 0.66 8 1 C7.01 1.495 7.01 1.495 6 2 C6 2.66 6 3.32 6 4 C2.66666667 5.66666667 -0.66666667 7.33333333 -4 9 C-3.67 7.68 -3.34 6.36 -3 5 C-2.01 5 -1.02 5 0 5 C0 3.35 0 1.7 0 0 Z " fill="#0C15BB" transform="translate(164,104)"/>
<path d="M0 0 C-0.66 0.66 -1.32 1.32 -2 2 C-1.01 3.485 -1.01 3.485 0 5 C-0.33 5.66 -0.66 6.32 -1 7 C-5.75 5.125 -5.75 5.125 -8 4 C-8 3.01 -8 2.02 -8 1 C-4.93251126 -0.86240388 -3.40254489 -1.2151946 0 0 Z " fill="#1C28BA" transform="translate(200,105)"/>
<path d="M0 0 C-2 2 -2 2 -5.6953125 2.1953125 C-7.17200108 2.182009 -8.64862358 2.15814835 -10.125 2.125 C-10.87910156 2.11597656 -11.63320313 2.10695312 -12.41015625 2.09765625 C-14.27357254 2.0740687 -16.13682593 2.03819719 -18 2 C-18 1.34 -18 0.68 -18 0 C-15.93831015 -0.19620767 -13.87559002 -0.38160753 -11.8125 -0.5625 C-10.08966797 -0.71912109 -10.08966797 -0.71912109 -8.33203125 -0.87890625 C-5.31368801 -0.98859985 -2.91076064 -0.74002389 0 0 Z " fill="#0B15A8" transform="translate(278,213)"/>
<path d="M0 0 C0.66 0 1.32 0 2 0 C1.63503187 2.48699712 1.4324049 3.66778648 -0.6015625 5.23046875 C-5.1362347 7.37524614 -8.99223064 8.58268589 -14 9 C-9.76486783 5.03810217 -5.452999 3.56818272 0 2 C0 1.34 0 0.68 0 0 Z " fill="#D8E1FC" transform="translate(183,147)"/>
<path d="M0 0 C0.8353125 0.37125 0.8353125 0.37125 1.6875 0.75 C-0.2925 1.74 -2.2725 2.73 -4.3125 3.75 C-3.9825 6.39 -3.6525 9.03 -3.3125 11.75 C-4.6325 11.75 -5.9525 11.75 -7.3125 11.75 C-7.55084364 8.8898763 -7.74487406 6.55242445 -7.3125 3.75 C-3.67131999 -0.39689946 -3.67131999 -0.39689946 0 0 Z " fill="#2A359C" transform="translate(198.3125,273.25)"/>
<path d="M0 0 C-3.7455843 1.95082515 -7.61472552 3.41591037 -11.5625 4.90234375 C-14.01586139 6.00714271 -15.91795235 7.30833628 -18 9 C-18 8.01 -18 7.02 -18 6 C-12.47158139 0.62841596 -7.50103985 -0.71438475 0 0 Z " fill="#0E15AA" transform="translate(132,241)"/>
<path d="M0 0 C1.61261719 0.11794922 1.61261719 0.11794922 3.2578125 0.23828125 C4.55332031 0.46064453 4.55332031 0.46064453 5.875 0.6875 C6.205 1.3475 6.535 2.0075 6.875 2.6875 C6.18792969 2.66429687 5.50085938 2.64109375 4.79296875 2.6171875 C3.89191406 2.59914062 2.99085938 2.58109375 2.0625 2.5625 C1.16917969 2.53929687 0.27585937 2.51609375 -0.64453125 2.4921875 C-3.37902714 2.50464173 -3.37902714 2.50464173 -6.125 4.6875 C-7.115 4.6875 -8.105 4.6875 -9.125 4.6875 C-9.125 3.3675 -9.125 2.0475 -9.125 0.6875 C-5.74377565 -0.43957478 -3.5356498 -0.28540788 0 0 Z " fill="#0912B9" transform="translate(266.125,240.3125)"/>
<path d="M0 0 C0 1.65 0 3.3 0 5 C-3.3 4.67 -6.6 4.34 -10 4 C-6.62026577 0.62026577 -4.66218416 0 0 0 Z " fill="#0614C2" transform="translate(134,131)"/>
<path d="M0 0 C1.32 0.33 2.64 0.66 4 1 C1 5 -2 9 -5 13 C-5 11.02 -5 9.04 -5 7 C-4.34 7 -3.68 7 -3 7 C-3 5.68 -3 4.36 -3 3 C-2.01 3 -1.02 3 0 3 C0 2.01 0 1.02 0 0 Z " fill="#0F19AD" transform="translate(164,156)"/>
<path d="M0 0 C0.80824219 0.11085938 1.61648437 0.22171875 2.44921875 0.3359375 C3.37154297 0.47902344 3.37154297 0.47902344 4.3125 0.625 C1.91486815 3.02263185 0.97976502 2.96780586 -2.3125 3.25 C-3.12976563 3.32476562 -3.94703125 3.39953125 -4.7890625 3.4765625 C-5.41554687 3.52554688 -6.04203125 3.57453125 -6.6875 3.625 C-7.0175 2.965 -7.3475 2.305 -7.6875 1.625 C-4.33422361 -0.61051759 -3.78006343 -0.54783528 0 0 Z " fill="#0511C6" transform="translate(205.6875,108.375)"/>
<path d="M0 0 C0.33 0.99 0.66 1.98 1 3 C1.66 3.66 2.32 4.32 3 5 C2.01 5.99 1.02 6.98 0 8 C-1.65 6.35 -3.3 4.7 -5 3 C-2.25 0 -2.25 0 0 0 Z " fill="#F9FCF6" transform="translate(257,269)"/>
<path d="M0 0 C0.99 0 1.98 0 3 0 C3 1.32 3 2.64 3 4 C3.99 4.33 4.98 4.66 6 5 C6 5.99 6 6.98 6 8 C5.01 8 4.02 8 3 8 C3 7.34 3 6.68 3 6 C1.02 6 -0.96 6 -3 6 C-2.505 5.566875 -2.01 5.13375 -1.5 4.6875 C0.33218192 3.00259517 0.33218192 3.00259517 0 0 Z " fill="#0714BE" transform="translate(216,162)"/>
<path d="M0 0 C2.00720923 0.28674418 4.0085944 0.61866701 6 1 C6 1.99 6 2.98 6 4 C5.360625 4.103125 4.72125 4.20625 4.0625 4.3125 C3.381875 4.539375 2.70125 4.76625 2 5 C1.67 5.99 1.34 6.98 1 8 C0.34 8 -0.32 8 -1 8 C-1.04241723 5.66705225 -1.04092937 3.33297433 -1 1 C-0.67 0.67 -0.34 0.34 0 0 Z " fill="#0311D9" transform="translate(127,258)"/>
<path d="M0 0 C0.66 0.33 1.32 0.66 2 1 C0.37660195 2.70884005 -1.29319053 4.37446717 -3 6 C-3.66 6 -4.32 6 -5 6 C-4.67 7.32 -4.34 8.64 -4 10 C-4.99 10 -5.98 10 -7 10 C-6.39053254 4.5147929 -6.39053254 4.5147929 -4.625 2.1875 C-3 1 -3 1 0 0 Z " fill="#0D10C4" transform="translate(156,246)"/>
<path d="M0 0 C7.48291572 6.15034169 7.48291572 6.15034169 10 10 C4.25 8.125 4.25 8.125 2 7 C2 6.01 2 5.02 2 4 C1.34 4 0.68 4 0 4 C0 2.68 0 1.36 0 0 Z " fill="#171FAE" transform="translate(235,240)"/>
<path d="M0 0 C0.33 0 0.66 0 1 0 C1 1.65 1 3.3 1 5 C2.65 5 4.3 5 6 5 C6 5.99 6 6.98 6 8 C5.01 8 4.02 8 3 8 C3.33 9.32 3.66 10.64 4 12 C3.01 11.67 2.02 11.34 1 11 C0.67 7.37 0.34 3.74 0 0 Z " fill="#0410C9" transform="translate(282,141)"/>
<path d="M0 0 C0.99 0.33 1.98 0.66 3 1 C1.68 2.32 0.36 3.64 -1 5 C-1 4.34 -1 3.68 -1 3 C-1.7425 3.350625 -2.485 3.70125 -3.25 4.0625 C-6.1322726 5.04509293 -7.21176345 5.0326802 -10 4 C-10 3.34 -10 2.68 -10 2 C-9.04287109 1.90912109 -9.04287109 1.90912109 -8.06640625 1.81640625 C-6.82697266 1.69072266 -6.82697266 1.69072266 -5.5625 1.5625 C-4.73878906 1.48128906 -3.91507813 1.40007812 -3.06640625 1.31640625 C-1.01337975 1.21069185 -1.01337975 1.21069185 0 0 Z " fill="#080EE0" transform="translate(165,130)"/>
<path d="M0 0 C0.33 0.66 0.66 1.32 1 2 C0.34 2 -0.32 2 -1 2 C-1.20625 2.598125 -1.4125 3.19625 -1.625 3.8125 C-3.50926082 6.81018767 -5.81132084 7.61361776 -9 9 C-8.67 8.01 -8.34 7.02 -8 6 C-7.01 6 -6.02 6 -5 6 C-5.33 4.68 -5.66 3.36 -6 2 C-4.02 1.34 -2.04 0.68 0 0 Z " fill="#D3D9F5" transform="translate(282,272)"/>
<path d="M0 0 C0.66 0 1.32 0 2 0 C2 0.99 2 1.98 2 3 C2.66 3 3.32 3 4 3 C4 4.65 4 6.3 4 8 C3.67 7.34 3.34 6.68 3 6 C1.68 6.33 0.36 6.66 -1 7 C-1.33 5.35 -1.66 3.7 -2 2 C-1.34 2 -0.68 2 0 2 C0 1.34 0 0.68 0 0 Z " fill="#0511CB" transform="translate(243,250)"/>
<path d="M0 0 C2.97 0 5.94 0 9 0 C9 0.33 9 0.66 9 1 C6.36 1 3.72 1 1 1 C1.11458693 2.43836751 1.24209116 3.87570966 1.375 5.3125 C1.44460938 6.11300781 1.51421875 6.91351563 1.5859375 7.73828125 C1.89564426 10.27224441 1.89564426 10.27224441 4 13 C2.68 13 1.36 13 0 13 C0 8.71 0 4.42 0 0 Z " fill="#AFBBEC" transform="translate(260,200)"/>
<path d="M0 0 C0.763125 0.309375 1.52625 0.61875 2.3125 0.9375 C4.18789677 1.67893593 6.08684652 2.36228217 8 3 C7.67 3.99 7.34 4.98 7 6 C4.36 5.34 1.72 4.68 -1 4 C-0.67 2.68 -0.34 1.36 0 0 Z " fill="#FAFCEE" transform="translate(185,289)"/>
<path d="M0 0 C2.9375 0.875 2.9375 0.875 4.3125 2.9375 C4.51875 3.576875 4.725 4.21625 4.9375 4.875 C4.215625 4.524375 3.49375 4.17375 2.75 3.8125 C-0.41616266 2.75711245 -1.92167285 2.85635336 -5.0625 3.875 C-5.7225 4.535 -6.3825 5.195 -7.0625 5.875 C-6.75 4 -6.75 4 -6.0625 1.875 C-3.0625 -0.125 -3.0625 -0.125 0 0 Z " fill="#101799" transform="translate(130.0625,256.125)"/>
<path d="M0 0 C0.33 0 0.66 0 1 0 C1 2.64 1 5.28 1 8 C0.01 8.33 -0.98 8.66 -2 9 C-2.73323796 11.01508358 -2.73323796 11.01508358 -3 13 C-3.99 13 -4.98 13 -6 13 C-5.071875 11.7315625 -5.071875 11.7315625 -4.125 10.4375 C-1.86952264 7.08627655 -0.93874355 3.91143146 0 0 Z " fill="#383EAC" transform="translate(297,188)"/>
<path d="M0 0 C-0.9075 0.598125 -1.815 1.19625 -2.75 1.8125 C-5.22901481 3.48106766 -7.63317911 5.17936855 -10 7 C-10.33 6.01 -10.66 5.02 -11 4 C-10.34 3.34 -9.68 2.68 -9 2 C-8.67 1.34 -8.34 0.68 -8 0 C-4.71585695 -0.95067299 -3.30306592 -1.10102197 0 0 Z " fill="#DADFFA" transform="translate(174,120)"/>
<path d="M0 0 C0.99 0.33 1.98 0.66 3 1 C1.59248779 1.86916887 0.1735479 2.71985149 -1.25 3.5625 C-2.03890625 4.03816406 -2.8278125 4.51382813 -3.640625 5.00390625 C-6 6 -6 6 -8.234375 5.77734375 C-10 5 -10 5 -11 3 C-10.37351563 2.86722656 -9.74703125 2.73445313 -9.1015625 2.59765625 C-8.28429687 2.42105469 -7.46703125 2.24445313 -6.625 2.0625 C-5.81289062 1.88847656 -5.00078125 1.71445313 -4.1640625 1.53515625 C-1.970537 1.07669307 -1.970537 1.07669307 0 0 Z " fill="#2D35A5" transform="translate(210,109)"/>
<path d="M0 0 C0.99 0.495 0.99 0.495 2 1 C2 1.99 2 2.98 2 4 C4.64 4.33 7.28 4.66 10 5 C9.34 5.66 8.68 6.32 8 7 C1.42307692 6.42307692 1.42307692 6.42307692 0 5 C-0.04063832 3.33382885 -0.042721 1.66611905 0 0 Z " fill="#11169E" transform="translate(261,262)"/>
<path d="M0 0 C1.984375 1.515625 1.984375 1.515625 4 4 C4.2911521 6.73682971 4.38322418 9.03940039 4.25 11.75 C4.23195313 12.44738281 4.21390625 13.14476562 4.1953125 13.86328125 C4.14838554 15.57611539 4.07664605 17.28823824 4 19 C3.67 19 3.34 19 3 19 C2.95101563 18.21496094 2.90203125 17.42992187 2.8515625 16.62109375 C2.4379964 10.80977697 1.88217852 5.521057 0 0 Z " fill="#4D57A4" transform="translate(295,167)"/>
<path d="M0 0 C0 0.99 0 1.98 0 3 C-1.32 3.33 -2.64 3.66 -4 4 C-4.33 5.65 -4.66 7.3 -5 9 C-5.66 9 -6.32 9 -7 9 C-7 8.34 -7 7.68 -7 7 C-7.66 6.34 -8.32 5.68 -9 5 C-7.87926138 4.16094435 -6.75325453 3.32892169 -5.625 2.5 C-4.99851563 2.0359375 -4.37203125 1.571875 -3.7265625 1.09375 C-2 0 -2 0 0 0 Z " fill="#0410CB" transform="translate(148,275)"/>
<path d="M0 0 C2.35953094 2.35953094 2.49141413 3.77895617 3 7 C1.35 6.67 -0.3 6.34 -2 6 C-2.33 4.35 -2.66 2.7 -3 1 C-2.01 0.67 -1.02 0.34 0 0 Z " fill="#060EE1" transform="translate(198,276)"/>
<path d="M0 0 C-4.33664919 3.11696661 -7.80408388 3.55966813 -13 4 C-9.68492165 -0.05176242 -5.01001751 -1.92692981 0 0 Z " fill="#151DAD" transform="translate(182,119)"/>
<path d="M0 0 C3.3 0 6.6 0 10 0 C9.34 1.65 8.68 3.3 8 5 C7.34 5 6.68 5 6 5 C6 3.68 6 2.36 6 1 C4.02 1.33 2.04 1.66 0 2 C0 1.34 0 0.68 0 0 Z " fill="#0212CB" transform="translate(260,215)"/>
<path d="M0 0 C1.75140143 0.45294865 3.50107344 0.91258748 5.25 1.375 C6.71179688 1.75785156 6.71179688 1.75785156 8.203125 2.1484375 C11 3 11 3 15 5 C11.04 4.67 7.08 4.34 3 4 C3 3.34 3 2.68 3 2 C2.01 1.67 1.02 1.34 0 1 C0 0.67 0 0.34 0 0 Z " fill="#131C9E" transform="translate(123,208)"/>
<path d="M0 0 C0.66 0 1.32 0 2 0 C1.67 1.98 1.34 3.96 1 6 C0.01 6.33 -0.98 6.66 -2 7 C-2.66 5.35 -3.32 3.7 -4 2 C-2.68 2 -1.36 2 0 2 C0 1.34 0 0.68 0 0 Z " fill="#0811B9" transform="translate(157,169)"/>
<path d="M0 0 C1.32 0.33 2.64 0.66 4 1 C0.04 4.465 0.04 4.465 -4 8 C-4.33 6.68 -4.66 5.36 -5 4 C-4.0409375 3.8453125 -4.0409375 3.8453125 -3.0625 3.6875 C-2.381875 3.460625 -1.70125 3.23375 -1 3 C-0.67 2.01 -0.34 1.02 0 0 Z " fill="#DBE1FB" transform="translate(121,133)"/>
<path d="M0 0 C4.75 0.875 4.75 0.875 7 2 C6.67 2.99 6.34 3.98 6 5 C4.02 4.34 2.04 3.68 0 3 C0 2.01 0 1.02 0 0 Z " fill="#040BE3" transform="translate(192,98)"/>
<path d="M0 0 C0.598125 0.309375 1.19625 0.61875 1.8125 0.9375 C4.08956772 2.10209704 4.08956772 2.10209704 7 3 C7.33 4.65 7.66 6.3 8 8 C3.79373966 6.49776416 2.26099979 3.71449966 0 0 Z " fill="#141FA1" transform="translate(277,245)"/>
<path d="M0 0 C0.99 0.33 1.98 0.66 3 1 C3 2.32 3 3.64 3 5 C3.99 5.33 4.98 5.66 6 6 C5.67 6.99 5.34 7.98 5 9 C1.7457985 6.16569547 0.4793247 4.31392226 0 0 Z " fill="#242BAD" transform="translate(251,235)"/>
<path d="M0 0 C2.16874252 0.50603992 3.99967627 0.99983813 6 2 C6 2.66 6 3.32 6 4 C8.31 4 10.62 4 13 4 C13 4.33 13 4.66 13 5 C9.37169157 5.92817192 7.58926645 6.26901295 4.125 4.6875 C3.42375 4.130625 2.7225 3.57375 2 3 C2 2.34 2 1.68 2 1 C1.34 0.67 0.68 0.34 0 0 Z " fill="#070FC2" transform="translate(120,208)"/>
<path d="M0 0 C0.33 0 0.66 0 1 0 C0.67 2.97 0.34 5.94 0 9 C-0.99 9.33 -1.98 9.66 -3 10 C-2.49287967 6.28111761 -1.88391785 3.26545761 0 0 Z " fill="#3739AF" transform="translate(172,170)"/>
<path d="M0 0 C0 0.99 0 1.98 0 3 C-1.3303125 3.433125 -1.3303125 3.433125 -2.6875 3.875 C-5.50382424 4.83148748 -8.25083156 5.86798946 -11 7 C-4.36842105 0 -4.36842105 0 0 0 Z " fill="#0611C5" transform="translate(220,122)"/>
<path d="M0 0 C-0.99 0.66 -1.98 1.32 -3 2 C-3.66 2.556875 -4.32 3.11375 -5 3.6875 C-5.66 4.120625 -6.32 4.55375 -7 5 C-7.99 4.67 -8.98 4.34 -10 4 C-6.87839899 0.56623888 -4.64008112 -1.54669371 0 0 Z " fill="#E5ECFE" transform="translate(214,111)"/>
<path d="M0 0 C1 1.33333333 2 2.66666667 3 4 C3.556875 4.70125 4.11375 5.4025 4.6875 6.125 C6 8 6 8 6 10 C4.125 9.8125 4.125 9.8125 2 9 C0.21715186 5.70173093 0 3.8225249 0 0 Z " fill="#1820AA" transform="translate(110,268)"/>
<path d="M0 0 C1.98 0.99 1.98 0.99 4 2 C3.625 3.9375 3.625 3.9375 3 6 C2.01 6.495 2.01 6.495 1 7 C0.67 4.69 0.34 2.38 0 0 Z " fill="#FEFEEE" transform="translate(137,259)"/>
<path d="M0 0 C1.32 1.32 2.64 2.64 4 4 C2.33333333 5.66666667 0.66666667 7.33333333 -1 9 C-1.66 7.68 -2.32 6.36 -3 5 C-2.01 4.67 -1.02 4.34 0 4 C0 2.68 0 1.36 0 0 Z " fill="#E1E1E5" transform="translate(247,235)"/>
<path d="M0 0 C0.8125 1.6875 0.8125 1.6875 1 4 C-1.4375 6.75 -1.4375 6.75 -4 9 C-4.99 8.67 -5.98 8.34 -7 8 C-6.21625 7.236875 -5.4325 6.47375 -4.625 5.6875 C-1.92742283 3.09108195 -1.92742283 3.09108195 0 0 Z " fill="#E3EAFC" transform="translate(284,189)"/>
<path d="M0 0 C3.82946843 1.45255699 5.12050295 3.42895561 7 7 C6.34 7 5.68 7 5 7 C4.34 6.34 3.68 5.68 3 5 C2.01 4.67 1.02 4.34 0 4 C0 2.68 0 1.36 0 0 Z " fill="#D2DAE8" transform="translate(286,157)"/>
<path d="M0 0 C4.571279 0.54855348 8.67435795 1.41744803 13 3 C11.296875 4.1171875 11.296875 4.1171875 9 5 C6.640625 4.3203125 6.640625 4.3203125 4.25 3.125 C3.45078125 2.73570313 2.6515625 2.34640625 1.828125 1.9453125 C0.92320312 1.47738281 0.92320312 1.47738281 0 1 C0 0.67 0 0.34 0 0 Z " fill="#E7EDFC" transform="translate(242,119)"/>
<path d="M0 0 C2.64 0 5.28 0 8 0 C8.66 1.32 9.32 2.64 10 4 C6.7 3.01 3.4 2.02 0 1 C0 0.67 0 0.34 0 0 Z " fill="#4B52B2" transform="translate(246,108)"/>
<path d="M0 0 C5.875 2.75 5.875 2.75 7 5 C4 6 4 6 1 5 C0.67 3.35 0.34 1.7 0 0 Z " fill="#0514DF" transform="translate(262,260)"/>
<path d="M0 0 C0.33 1.65 0.66 3.3 1 5 C-0.65 4.67 -2.3 4.34 -4 4 C-4 3.01 -4 2.02 -4 1 C-2 0 -2 0 0 0 Z " fill="#FAFBF3" transform="translate(286,198)"/>
<path d="M0 0 C1.98 0.495 1.98 0.495 4 1 C4 1.99 4 2.98 4 4 C3.01 4 2.02 4 1 4 C1 4.99 1 5.98 1 7 C0.34 7 -0.32 7 -1 7 C-0.67 4.69 -0.34 2.38 0 0 Z " fill="#0612C6" transform="translate(105,195)"/>
<path d="M0 0 C3 0 3 0 4.75 1.25 C6 3 6 3 5.6875 5.1875 C5.460625 5.785625 5.23375 6.38375 5 7 C3.29115995 5.37660195 1.62553283 3.70680947 0 2 C0 1.34 0 0.68 0 0 Z " fill="#2F33A0" transform="translate(116,185)"/>
<path d="M0 0 C0.33 0.66 0.66 1.32 1 2 C-0.5039544 4.79305817 -2.24016054 7.36024081 -4 10 C-4.66 10 -5.32 10 -6 10 C-4.6302836 6.00499382 -2.74277578 3.19990508 0 0 Z " fill="#DBE7FA" transform="translate(109,130)"/>
<path d="M0 0 C5.53846154 0.61538462 5.53846154 0.61538462 7.875 2.5625 C8.431875 3.2740625 8.431875 3.2740625 9 4 C8.34 4.66 7.68 5.32 7 6 C6.6596875 5.0409375 6.6596875 5.0409375 6.3125 4.0625 C5.14749104 1.72806339 5.14749104 1.72806339 2.375 1.25 C1.59125 1.1675 0.8075 1.085 0 1 C0 0.67 0 0.34 0 0 Z " fill="#0C12A3" transform="translate(183,119)"/>
<path d="M0 0 C1.65 0.33 3.3 0.66 5 1 C5 1.99 5 2.98 5 4 C3.02 4 1.04 4 -1 4 C-0.67 2.68 -0.34 1.36 0 0 Z " fill="#0913B1" transform="translate(196,282)"/>
<path d="M0 0 C0.33 1.32 0.66 2.64 1 4 C-2.61029169 4 -5.55806676 3.03907418 -9 2 C-6.30234449 0.65117225 -3.98421978 1 -1 1 C-0.67 0.67 -0.34 0.34 0 0 Z " fill="#C9CFED" transform="translate(133,267)"/>
<path d="M0 0 C0 0.99 0 1.98 0 3 C-2.35953094 5.35953094 -3.77895617 5.49141413 -7 6 C-2.25 1.125 -2.25 1.125 0 0 Z " fill="#DDE7FA" transform="translate(191,261)"/>
<path d="M0 0 C0.66 0 1.32 0 2 0 C2.33 0.99 2.66 1.98 3 3 C0.03 5.475 0.03 5.475 -3 8 C-2.67 6.68 -2.34 5.36 -2 4 C-1.34 4 -0.68 4 0 4 C0 2.68 0 1.36 0 0 Z " fill="#DBDFF8" transform="translate(149,246)"/>
<path d="M0 0 C1.32 1.65 2.64 3.3 4 5 C3.67 5.66 3.34 6.32 3 7 C0.9375 7.625 0.9375 7.625 -1 8 C-0.67 5.36 -0.34 2.72 0 0 Z " fill="#0B17AD" transform="translate(101,185)"/>
<path d="M0 0 C0.66 0.99 1.32 1.98 2 3 C0.625 6.6875 0.625 6.6875 -1 10 C-1.66 10 -2.32 10 -3 10 C-2.69201674 8.51988629 -2.378482 7.04092675 -2.0625 5.5625 C-1.88847656 4.73878906 -1.71445313 3.91507813 -1.53515625 3.06640625 C-1 1 -1 1 0 0 Z " fill="#242FA5" transform="translate(113,146)"/>
<path d="M0 0 C0.33 0.66 0.66 1.32 1 2 C-0.0625 3.5625 -0.0625 3.5625 -2 5 C-5.625 4.8125 -5.625 4.8125 -9 4 C-9.33 3.34 -9.66 2.68 -10 2 C-8.72125 2.04125 -7.4425 2.0825 -6.125 2.125 C-3.98128508 2.24212873 -3.98128508 2.24212873 -2 2 C-1.34 1.34 -0.68 0.68 0 0 Z " fill="#B7BCE4" transform="translate(203,283)"/>
<path d="M0 0 C3.96 1.98 3.96 1.98 8 4 C7.34 4.66 6.68 5.32 6 6 C4.02 5.01 2.04 4.02 0 3 C0 2.01 0 1.02 0 0 Z " fill="#1721AE" transform="translate(252,276)"/>
<path d="M0 0 C0.99 0.33 1.98 0.66 3 1 C4.1875 3.5625 4.1875 3.5625 5 6 C2 6 2 6 0 5 C0 3.35 0 1.7 0 0 Z " fill="#D6DDE7" transform="translate(210,267)"/>
<path d="M0 0 C2.475 0.495 2.475 0.495 5 1 C5.33 2.65 5.66 4.3 6 6 C5.67 5.34 5.34 4.68 5 4 C4.34 3.67 3.68 3.34 3 3 C1 2 1 2 0 0 Z " fill="#3E48A4" transform="translate(208,264)"/>
<path d="M0 0 C0 0.66 0 1.32 0 2 C-4.455 3.485 -4.455 3.485 -9 5 C-4.32258065 0 -4.32258065 0 0 0 Z " fill="#191FA3" transform="translate(183,147)"/>
<path d="M0 0 C1.093125 0.0825 2.18625 0.165 3.3125 0.25 C0.02786341 2.43975773 -2.89446275 3.24806563 -6.6875 4.25 C-4.79150483 0.68106792 -4.16790733 0.28256999 0 0 Z " fill="#D6DEFB" transform="translate(219.6875,118.75)"/>
</svg>
