<?xml version="1.0" encoding="UTF-8"?>
<svg version="1.1" xmlns="http://www.w3.org/2000/svg" width="700" height="970">
<path d="M0 0 C15.84 0 31.68 0 48 0 C48 199.98 48 399.96 48 606 C40.08 606 32.16 606 24 606 C24 605.34 24 604.68 24 604 C16.08 604 8.16 604 0 604 C0 603.34 0 602.68 0 602 C-7.92 602 -15.84 602 -24 602 C-24 601.34 -24 600.68 -24 600 C-27.96 600 -31.92 600 -36 600 C-36 599.34 -36 598.68 -36 598 C-39.3 598 -42.6 598 -46 598 C-46 597.34 -46 596.68 -46 596 C-48.64 596 -51.28 596 -54 596 C-54 595.34 -54 594.68 -54 594 C-55.98 594 -57.96 594 -60 594 C-60 593.34 -60 592.68 -60 592 C-61.98 592 -63.96 592 -66 592 C-66 591.34 -66 590.68 -66 590 C-67.98 590 -69.96 590 -72 590 C-72 589.34 -72 588.68 -72 588 C-75.3 588 -78.6 588 -82 588 C-82 587.34 -82 586.68 -82 586 C-83.98 586 -85.96 586 -88 586 C-88 585.34 -88 584.68 -88 584 C-89.32 584 -90.64 584 -92 584 C-92 583.34 -92 582.68 -92 582 C-93.32 582 -94.64 582 -96 582 C-96 581.34 -96 580.68 -96 580 C-97.32 580 -98.64 580 -100 580 C-100 579.34 -100 578.68 -100 578 C-101.98 578 -103.96 578 -106 578 C-106 577.34 -106 576.68 -106 576 C-107.98 576 -109.96 576 -112 576 C-112 575.34 -112 574.68 -112 574 C-113.32 574 -114.64 574 -116 574 C-116 573.34 -116 572.68 -116 572 C-117.32 572 -118.64 572 -120 572 C-120 571.34 -120 570.68 -120 570 C-121.32 570 -122.64 570 -124 570 C-124 569.34 -124 568.68 -124 568 C-124.66 568 -125.32 568 -126 568 C-126 567.34 -126 566.68 -126 566 C-127.32 566 -128.64 566 -130 566 C-130 565.34 -130 564.68 -130 564 C-131.32 564 -132.64 564 -134 564 C-134 563.34 -134 562.68 -134 562 C-135.32 562 -136.64 562 -138 562 C-138 561.34 -138 560.68 -138 560 C-139.32 560 -140.64 560 -142 560 C-142 559.34 -142 558.68 -142 558 C-142.66 558 -143.32 558 -144 558 C-144 557.34 -144 556.68 -144 556 C-145.32 556 -146.64 556 -148 556 C-148 555.34 -148 554.68 -148 554 C-148.66 554 -149.32 554 -150 554 C-150 553.34 -150 552.68 -150 552 C-151.32 552 -152.64 552 -154 552 C-154 551.34 -154 550.68 -154 550 C-155.32 550 -156.64 550 -158 550 C-158 549.34 -158 548.68 -158 548 C-158.66 548 -159.32 548 -160 548 C-160 547.34 -160 546.68 -160 546 C-160.66 546 -161.32 546 -162 546 C-162 545.34 -162 544.68 -162 544 C-163.32 544 -164.64 544 -166 544 C-166 543.34 -166 542.68 -166 542 C-166.66 542 -167.32 542 -168 542 C-168 541.34 -168 540.68 -168 540 C-169.32 540 -170.64 540 -172 540 C-172 539.34 -172 538.68 -172 538 C-172.66 538 -173.32 538 -174 538 C-174 537.34 -174 536.68 -174 536 C-174.66 536 -175.32 536 -176 536 C-176 535.34 -176 534.68 -176 534 C-176.66 534 -177.32 534 -178 534 C-178 533.34 -178 532.68 -178 532 C-179.32 532 -180.64 532 -182 532 C-182 531.34 -182 530.68 -182 530 C-182.66 530 -183.32 530 -184 530 C-184 529.34 -184 528.68 -184 528 C-184.66 528 -185.32 528 -186 528 C-186 527.34 -186 526.68 -186 526 C-186.66 526 -187.32 526 -188 526 C-188 525.34 -188 524.68 -188 524 C-188.66 524 -189.32 524 -190 524 C-190 523.34 -190 522.68 -190 522 C-191.32 522 -192.64 522 -194 522 C-194 521.34 -194 520.68 -194 520 C-194.66 520 -195.32 520 -196 520 C-196 519.34 -196 518.68 -196 518 C-196.66 518 -197.32 518 -198 518 C-198 517.34 -198 516.68 -198 516 C-198.66 516 -199.32 516 -200 516 C-200 515.34 -200 514.68 -200 514 C-200.66 514 -201.32 514 -202 514 C-202 513.34 -202 512.68 -202 512 C-202.66 512 -203.32 512 -204 512 C-204 511.34 -204 510.68 -204 510 C-204.66 510 -205.32 510 -206 510 C-206 509.34 -206 508.68 -206 508 C-206.66 508 -207.32 508 -208 508 C-208 507.34 -208 506.68 -208 506 C-208.66 506 -209.32 506 -210 506 C-210 505.34 -210 504.68 -210 504 C-210.66 504 -211.32 504 -212 504 C-212 503.34 -212 502.68 -212 502 C-212.66 502 -213.32 502 -214 502 C-214 501.34 -214 500.68 -214 500 C-214.66 500 -215.32 500 -216 500 C-216 498.68 -216 497.36 -216 496 C-216.66 496 -217.32 496 -218 496 C-218 495.34 -218 494.68 -218 494 C-218.66 494 -219.32 494 -220 494 C-220 493.34 -220 492.68 -220 492 C-220.66 492 -221.32 492 -222 492 C-222 491.34 -222 490.68 -222 490 C-222.66 490 -223.32 490 -224 490 C-224 488.68 -224 487.36 -224 486 C-224.66 486 -225.32 486 -226 486 C-226 485.34 -226 484.68 -226 484 C-226.66 484 -227.32 484 -228 484 C-228 483.34 -228 482.68 -228 482 C-228.66 482 -229.32 482 -230 482 C-230 480.68 -230 479.36 -230 478 C-230.66 478 -231.32 478 -232 478 C-232 477.34 -232 476.68 -232 476 C-232.66 476 -233.32 476 -234 476 C-234 474.68 -234 473.36 -234 472 C-234.66 472 -235.32 472 -236 472 C-236 471.34 -236 470.68 -236 470 C-236.66 470 -237.32 470 -238 470 C-238 468.68 -238 467.36 -238 466 C-238.66 466 -239.32 466 -240 466 C-240 465.34 -240 464.68 -240 464 C-240.66 464 -241.32 464 -242 464 C-242 462.68 -242 461.36 -242 460 C-242.66 460 -243.32 460 -244 460 C-244 459.34 -244 458.68 -244 458 C-244.66 458 -245.32 458 -246 458 C-246 456.68 -246 455.36 -246 454 C-246.66 454 -247.32 454 -248 454 C-248 452.68 -248 451.36 -248 450 C-248.66 450 -249.32 450 -250 450 C-250 448.68 -250 447.36 -250 446 C-250.66 446 -251.32 446 -252 446 C-252 445.34 -252 444.68 -252 444 C-252.66 444 -253.32 444 -254 444 C-254 442.68 -254 441.36 -254 440 C-254.66 440 -255.32 440 -256 440 C-256 438.68 -256 437.36 -256 436 C-256.66 436 -257.32 436 -258 436 C-258 434.02 -258 432.04 -258 430 C-258.66 430 -259.32 430 -260 430 C-260 428.68 -260 427.36 -260 426 C-260.66 426 -261.32 426 -262 426 C-262 424.68 -262 423.36 -262 422 C-262.66 422 -263.32 422 -264 422 C-264 420.68 -264 419.36 -264 418 C-264.66 418 -265.32 418 -266 418 C-266 416.02 -266 414.04 -266 412 C-266.66 412 -267.32 412 -268 412 C-268 410.68 -268 409.36 -268 408 C-268.66 408 -269.32 408 -270 408 C-270 405.36 -270 402.72 -270 400 C-270.66 400 -271.32 400 -272 400 C-272 398.02 -272 396.04 -272 394 C-272.66 394 -273.32 394 -274 394 C-274 392.02 -274 390.04 -274 388 C-274.66 388 -275.32 388 -276 388 C-276 385.36 -276 382.72 -276 380 C-276.66 380 -277.32 380 -278 380 C-278 377.36 -278 374.72 -278 372 C-278.66 372 -279.32 372 -280 372 C-280 370.02 -280 368.04 -280 366 C-280.66 366 -281.32 366 -282 366 C-282 360.06 -282 354.12 -282 348 C-282.66 348 -283.32 348 -284 348 C-284 343.38 -284 338.76 -284 334 C-284.66 334 -285.32 334 -286 334 C-286 326.74 -286 319.48 -286 312 C-286.66 312 -287.32 312 -288 312 C-288 299.46 -288 286.92 -288 274 C-287.34 274 -286.68 274 -286 274 C-286 265.42 -286 256.84 -286 248 C-285.34 248 -284.68 248 -284 248 C-284 244.7 -284 241.4 -284 238 C-283.34 238 -282.68 238 -282 238 C-282 234.04 -282 230.08 -282 226 C-281.34 226 -280.68 226 -280 226 C-280 223.36 -280 220.72 -280 218 C-279.34 218 -278.68 218 -278 218 C-278 216.02 -278 214.04 -278 212 C-277.34 212 -276.68 212 -276 212 C-276 210.02 -276 208.04 -276 206 C-275.34 206 -274.68 206 -274 206 C-274 204.02 -274 202.04 -274 200 C-273.34 200 -272.68 200 -272 200 C-272 198.68 -272 197.36 -272 196 C-271.34 196 -270.68 196 -270 196 C-270 194.02 -270 192.04 -270 190 C-269.34 190 -268.68 190 -268 190 C-268 188.02 -268 186.04 -268 184 C-267.34 184 -266.68 184 -266 184 C-266 182.68 -266 181.36 -266 180 C-265.34 180 -264.68 180 -264 180 C-264 178.68 -264 177.36 -264 176 C-263.34 176 -262.68 176 -262 176 C-262 175.34 -262 174.68 -262 174 C-261.34 174 -260.68 174 -260 174 C-260 172.68 -260 171.36 -260 170 C-259.34 170 -258.68 170 -258 170 C-258 168.68 -258 167.36 -258 166 C-257.34 166 -256.68 166 -256 166 C-256 164.68 -256 163.36 -256 162 C-255.34 162 -254.68 162 -254 162 C-254 160.68 -254 159.36 -254 158 C-253.34 158 -252.68 158 -252 158 C-252 156.68 -252 155.36 -252 154 C-251.34 154 -250.68 154 -250 154 C-250 153.34 -250 152.68 -250 152 C-249.34 152 -248.68 152 -248 152 C-248 150.68 -248 149.36 -248 148 C-247.34 148 -246.68 148 -246 148 C-246 147.34 -246 146.68 -246 146 C-245.34 146 -244.68 146 -244 146 C-244 144.68 -244 143.36 -244 142 C-243.34 142 -242.68 142 -242 142 C-242 141.34 -242 140.68 -242 140 C-241.34 140 -240.68 140 -240 140 C-240 138.68 -240 137.36 -240 136 C-239.34 136 -238.68 136 -238 136 C-238 135.34 -238 134.68 -238 134 C-237.34 134 -236.68 134 -236 134 C-236 133.34 -236 132.68 -236 132 C-235.34 132 -234.68 132 -234 132 C-234 130.68 -234 129.36 -234 128 C-233.34 128 -232.68 128 -232 128 C-232 127.34 -232 126.68 -232 126 C-231.34 126 -230.68 126 -230 126 C-230 124.68 -230 123.36 -230 122 C-229.34 122 -228.68 122 -228 122 C-228 121.34 -228 120.68 -228 120 C-227.34 120 -226.68 120 -226 120 C-226 119.34 -226 118.68 -226 118 C-225.34 118 -224.68 118 -224 118 C-224 117.34 -224 116.68 -224 116 C-223.34 116 -222.68 116 -222 116 C-222 115.34 -222 114.68 -222 114 C-221.34 114 -220.68 114 -220 114 C-220 113.34 -220 112.68 -220 112 C-219.34 112 -218.68 112 -218 112 C-218 111.34 -218 110.68 -218 110 C-217.34 110 -216.68 110 -216 110 C-216 109.34 -216 108.68 -216 108 C-215.34 108 -214.68 108 -214 108 C-214 107.34 -214 106.68 -214 106 C-213.34 106 -212.68 106 -212 106 C-212 105.34 -212 104.68 -212 104 C-211.34 104 -210.68 104 -210 104 C-210 103.34 -210 102.68 -210 102 C-209.34 102 -208.68 102 -208 102 C-208 101.34 -208 100.68 -208 100 C-207.34 100 -206.68 100 -206 100 C-206 99.34 -206 98.68 -206 98 C-205.34 98 -204.68 98 -204 98 C-204 97.34 -204 96.68 -204 96 C-203.34 96 -202.68 96 -202 96 C-202 95.34 -202 94.68 -202 94 C-201.34 94 -200.68 94 -200 94 C-200 93.34 -200 92.68 -200 92 C-199.34 92 -198.68 92 -198 92 C-198 91.34 -198 90.68 -198 90 C-197.34 90 -196.68 90 -196 90 C-196 89.34 -196 88.68 -196 88 C-195.34 88 -194.68 88 -194 88 C-194 87.34 -194 86.68 -194 86 C-193.34 86 -192.68 86 -192 86 C-192 85.34 -192 84.68 -192 84 C-191.34 84 -190.68 84 -190 84 C-190 83.34 -190 82.68 -190 82 C-188.68 82 -187.36 82 -186 82 C-186 81.34 -186 80.68 -186 80 C-185.34 80 -184.68 80 -184 80 C-184 79.34 -184 78.68 -184 78 C-183.34 78 -182.68 78 -182 78 C-182 77.34 -182 76.68 -182 76 C-181.34 76 -180.68 76 -180 76 C-180 75.34 -180 74.68 -180 74 C-178.68 74 -177.36 74 -176 74 C-176 73.34 -176 72.68 -176 72 C-175.34 72 -174.68 72 -174 72 C-174 71.34 -174 70.68 -174 70 C-172.68 70 -171.36 70 -170 70 C-170 69.34 -170 68.68 -170 68 C-169.34 68 -168.68 68 -168 68 C-168 67.34 -168 66.68 -168 66 C-167.34 66 -166.68 66 -166 66 C-166 65.34 -166 64.68 -166 64 C-164.68 64 -163.36 64 -162 64 C-162 63.34 -162 62.68 -162 62 C-161.34 62 -160.68 62 -160 62 C-160 61.34 -160 60.68 -160 60 C-159.34 60 -158.68 60 -158 60 C-158 59.34 -158 58.68 -158 58 C-156.68 58 -155.36 58 -154 58 C-154 57.34 -154 56.68 -154 56 C-153.34 56 -152.68 56 -152 56 C-152 55.34 -152 54.68 -152 54 C-150.68 54 -149.36 54 -148 54 C-148 53.34 -148 52.68 -148 52 C-146.68 52 -145.36 52 -144 52 C-144 51.34 -144 50.68 -144 50 C-143.34 50 -142.68 50 -142 50 C-142 49.34 -142 48.68 -142 48 C-140.68 48 -139.36 48 -138 48 C-138 47.34 -138 46.68 -138 46 C-137.34 46 -136.68 46 -136 46 C-136 45.34 -136 44.68 -136 44 C-134.68 44 -133.36 44 -132 44 C-132 43.34 -132 42.68 -132 42 C-130.02 42 -128.04 42 -126 42 C-126 41.34 -126 40.68 -126 40 C-125.34 40 -124.68 40 -124 40 C-124 39.34 -124 38.68 -124 38 C-122.68 38 -121.36 38 -120 38 C-120 37.34 -120 36.68 -120 36 C-118.68 36 -117.36 36 -116 36 C-116 35.34 -116 34.68 -116 34 C-114.68 34 -113.36 34 -112 34 C-112 33.34 -112 32.68 -112 32 C-110.68 32 -109.36 32 -108 32 C-108 31.34 -108 30.68 -108 30 C-106.02 30 -104.04 30 -102 30 C-102 29.34 -102 28.68 -102 28 C-100.68 28 -99.36 28 -98 28 C-98 27.34 -98 26.68 -98 26 C-96.68 26 -95.36 26 -94 26 C-94 25.34 -94 24.68 -94 24 C-92.68 24 -91.36 24 -90 24 C-90 23.34 -90 22.68 -90 22 C-88.02 22 -86.04 22 -84 22 C-84 21.34 -84 20.68 -84 20 C-82.68 20 -81.36 20 -80 20 C-80 19.34 -80 18.68 -80 18 C-76.7 18 -73.4 18 -70 18 C-70 17.34 -70 16.68 -70 16 C-68.68 16 -67.36 16 -66 16 C-66 15.34 -66 14.68 -66 14 C-63.36 14 -60.72 14 -58 14 C-58 13.34 -58 12.68 -58 12 C-56.68 12 -55.36 12 -54 12 C-54 11.34 -54 10.68 -54 10 C-51.36 10 -48.72 10 -46 10 C-46 9.34 -46 8.68 -46 8 C-43.36 8 -40.72 8 -38 8 C-38 7.34 -38 6.68 -38 6 C-35.36 6 -32.72 6 -30 6 C-30 5.34 -30 4.68 -30 4 C-23.4 4 -16.8 4 -10 4 C-10 3.34 -10 2.68 -10 2 C-6.7 2 -3.4 2 0 2 C0 1.34 0 0.68 0 0 Z " fill="#FCFCFC" transform="translate(288,364)"/>
<path d="M0 0 C108.9 0 217.8 0 330 0 C330 109.56 330 219.12 330 332 C220.44 332 110.88 332 -2 332 C-2 223.1 -2 114.2 -2 2 C-1.34 2 -0.68 2 0 2 C0 1.34 0 0.68 0 0 Z " fill="#FCFCFC" transform="translate(6,4)"/>
<path d="M0 0 C18.48 0 36.96 0 56 0 C56 0.66 56 1.32 56 2 C61.94 2 67.88 2 74 2 C74 2.66 74 3.32 74 4 C76.64 4 79.28 4 82 4 C82 4.66 82 5.32 82 6 C83.98 6 85.96 6 88 6 C88 6.66 88 7.32 88 8 C89.32 8 90.64 8 92 8 C92 8.66 92 9.32 92 10 C93.98 10 95.96 10 98 10 C98 10.66 98 11.32 98 12 C99.32 12 100.64 12 102 12 C102 12.66 102 13.32 102 14 C103.98 14 105.96 14 108 14 C108 14.66 108 15.32 108 16 C109.32 16 110.64 16 112 16 C112 16.66 112 17.32 112 18 C112.66 18 113.32 18 114 18 C114 18.66 114 19.32 114 20 C115.32 20 116.64 20 118 20 C118 20.66 118 21.32 118 22 C118.66 22 119.32 22 120 22 C120 22.66 120 23.32 120 24 C121.32 24 122.64 24 124 24 C124 24.66 124 25.32 124 26 C124.66 26 125.32 26 126 26 C126 26.66 126 27.32 126 28 C127.32 28 128.64 28 130 28 C130 28.66 130 29.32 130 30 C131.32 30 132.64 30 134 30 C134 30.66 134 31.32 134 32 C134.66 32 135.32 32 136 32 C136 32.66 136 33.32 136 34 C137.32 34 138.64 34 140 34 C140 34.66 140 35.32 140 36 C140.66 36 141.32 36 142 36 C142 36.66 142 37.32 142 38 C143.32 38 144.64 38 146 38 C146 38.66 146 39.32 146 40 C147.32 40 148.64 40 150 40 C150 40.66 150 41.32 150 42 C150.66 42 151.32 42 152 42 C152 42.66 152 43.32 152 44 C152.66 44 153.32 44 154 44 C154 44.66 154 45.32 154 46 C154.66 46 155.32 46 156 46 C156 46.66 156 47.32 156 48 C156.66 48 157.32 48 158 48 C158 48.66 158 49.32 158 50 C158.66 50 159.32 50 160 50 C160 50.66 160 51.32 160 52 C160.66 52 161.32 52 162 52 C162 52.66 162 53.32 162 54 C162.66 54 163.32 54 164 54 C164 54.66 164 55.32 164 56 C164.66 56 165.32 56 166 56 C166 57.32 166 58.64 166 60 C166.66 60 167.32 60 168 60 C168 60.66 168 61.32 168 62 C168.66 62 169.32 62 170 62 C170 62.66 170 63.32 170 64 C170.66 64 171.32 64 172 64 C172 64.66 172 65.32 172 66 C172.66 66 173.32 66 174 66 C174 67.32 174 68.64 174 70 C174.66 70 175.32 70 176 70 C176 70.66 176 71.32 176 72 C176.66 72 177.32 72 178 72 C178 73.32 178 74.64 178 76 C178.66 76 179.32 76 180 76 C180 77.32 180 78.64 180 80 C180.66 80 181.32 80 182 80 C182 81.32 182 82.64 182 84 C182.66 84 183.32 84 184 84 C184 84.66 184 85.32 184 86 C184.66 86 185.32 86 186 86 C186 87.32 186 88.64 186 90 C186.66 90 187.32 90 188 90 C188 91.98 188 93.96 188 96 C188.66 96 189.32 96 190 96 C190 98.64 190 101.28 190 104 C190.66 104 191.32 104 192 104 C192 105.98 192 107.96 192 110 C192.66 110 193.32 110 194 110 C194 111.98 194 113.96 194 116 C194.66 116 195.32 116 196 116 C196 118.64 196 121.28 196 124 C196.66 124 197.32 124 198 124 C198 127.3 198 130.6 198 134 C198.66 134 199.32 134 200 134 C200 153.14 200 172.28 200 192 C199.34 192 198.68 192 198 192 C198 195.96 198 199.92 198 204 C197.34 204 196.68 204 196 204 C196 207.96 196 211.92 196 216 C195.34 216 194.68 216 194 216 C194 217.98 194 219.96 194 222 C193.34 222 192.68 222 192 222 C192 223.98 192 225.96 192 228 C191.34 228 190.68 228 190 228 C190 230.64 190 233.28 190 236 C189.34 236 188.68 236 188 236 C188 237.32 188 238.64 188 240 C187.34 240 186.68 240 186 240 C186 241.32 186 242.64 186 244 C185.34 244 184.68 244 184 244 C184 245.32 184 246.64 184 248 C183.34 248 182.68 248 182 248 C182 249.32 182 250.64 182 252 C181.34 252 180.68 252 180 252 C180 253.32 180 254.64 180 256 C179.34 256 178.68 256 178 256 C178 257.32 178 258.64 178 260 C177.34 260 176.68 260 176 260 C176 260.66 176 261.32 176 262 C175.34 262 174.68 262 174 262 C174 263.32 174 264.64 174 266 C173.34 266 172.68 266 172 266 C172 266.66 172 267.32 172 268 C171.34 268 170.68 268 170 268 C170 268.66 170 269.32 170 270 C169.34 270 168.68 270 168 270 C168 271.32 168 272.64 168 274 C167.34 274 166.68 274 166 274 C166 274.66 166 275.32 166 276 C165.34 276 164.68 276 164 276 C164 276.66 164 277.32 164 278 C163.34 278 162.68 278 162 278 C162 278.66 162 279.32 162 280 C161.34 280 160.68 280 160 280 C160 280.66 160 281.32 160 282 C159.34 282 158.68 282 158 282 C158 282.66 158 283.32 158 284 C157.34 284 156.68 284 156 284 C156 284.66 156 285.32 156 286 C155.34 286 154.68 286 154 286 C154 286.66 154 287.32 154 288 C153.34 288 152.68 288 152 288 C152 288.66 152 289.32 152 290 C151.34 290 150.68 290 150 290 C150 290.66 150 291.32 150 292 C149.34 292 148.68 292 148 292 C148 292.66 148 293.32 148 294 C147.34 294 146.68 294 146 294 C146 294.66 146 295.32 146 296 C145.34 296 144.68 296 144 296 C144 296.66 144 297.32 144 298 C143.34 298 142.68 298 142 298 C142 298.66 142 299.32 142 300 C141.34 300 140.68 300 140 300 C140 300.66 140 301.32 140 302 C139.34 302 138.68 302 138 302 C138 302.66 138 303.32 138 304 C137.34 304 136.68 304 136 304 C136 304.66 136 305.32 136 306 C135.34 306 134.68 306 134 306 C134 306.66 134 307.32 134 308 C132.68 308 131.36 308 130 308 C130 308.66 130 309.32 130 310 C128.68 310 127.36 310 126 310 C126 310.66 126 311.32 126 312 C125.34 312 124.68 312 124 312 C124 312.66 124 313.32 124 314 C123.34 314 122.68 314 122 314 C122 314.66 122 315.32 122 316 C120.68 316 119.36 316 118 316 C118 316.66 118 317.32 118 318 C116.68 318 115.36 318 114 318 C114 318.66 114 319.32 114 320 C112.68 320 111.36 320 110 320 C110 320.66 110 321.32 110 322 C108.68 322 107.36 322 106 322 C106 322.66 106 323.32 106 324 C104.68 324 103.36 324 102 324 C102 324.66 102 325.32 102 326 C100.68 326 99.36 326 98 326 C98 326.66 98 327.32 98 328 C96.68 328 95.36 328 94 328 C94 328.66 94 329.32 94 330 C92.02 330 90.04 330 88 330 C88 330.66 88 331.32 88 332 C84.7 332 81.4 332 78 332 C78 332.66 78 333.32 78 334 C76.02 334 74.04 334 72 334 C72 334.66 72 335.32 72 336 C68.7 336 65.4 336 62 336 C62 336.66 62 337.32 62 338 C53.42 338 44.84 338 36 338 C36 338.66 36 339.32 36 340 C26.76 340 17.52 340 8 340 C8 339.34 8 338.68 8 338 C5.36 338 2.72 338 0 338 C0 337.34 0 336.68 0 336 C-2.64 336 -5.28 336 -8 336 C-8 335.34 -8 334.68 -8 334 C-11.96 334 -15.92 334 -20 334 C-20 333.34 -20 332.68 -20 332 C-21.98 332 -23.96 332 -26 332 C-26 331.34 -26 330.68 -26 330 C-27.32 330 -28.64 330 -30 330 C-30 329.34 -30 328.68 -30 328 C-31.98 328 -33.96 328 -36 328 C-36 327.34 -36 326.68 -36 326 C-37.32 326 -38.64 326 -40 326 C-40 325.34 -40 324.68 -40 324 C-41.32 324 -42.64 324 -44 324 C-44 323.34 -44 322.68 -44 322 C-45.32 322 -46.64 322 -48 322 C-48 321.34 -48 320.68 -48 320 C-49.32 320 -50.64 320 -52 320 C-52 319.34 -52 318.68 -52 318 C-53.32 318 -54.64 318 -56 318 C-56 317.34 -56 316.68 -56 316 C-57.32 316 -58.64 316 -60 316 C-60 315.34 -60 314.68 -60 314 C-60.66 314 -61.32 314 -62 314 C-62 313.34 -62 312.68 -62 312 C-63.32 312 -64.64 312 -66 312 C-66 311.34 -66 310.68 -66 310 C-67.32 310 -68.64 310 -70 310 C-70 309.34 -70 308.68 -70 308 C-70.66 308 -71.32 308 -72 308 C-72 307.34 -72 306.68 -72 306 C-72.66 306 -73.32 306 -74 306 C-74 305.34 -74 304.68 -74 304 C-75.32 304 -76.64 304 -78 304 C-78 303.34 -78 302.68 -78 302 C-78.66 302 -79.32 302 -80 302 C-80 301.34 -80 300.68 -80 300 C-80.66 300 -81.32 300 -82 300 C-82 299.34 -82 298.68 -82 298 C-82.66 298 -83.32 298 -84 298 C-84 297.34 -84 296.68 -84 296 C-84.66 296 -85.32 296 -86 296 C-86 295.34 -86 294.68 -86 294 C-86.66 294 -87.32 294 -88 294 C-88 293.34 -88 292.68 -88 292 C-88.66 292 -89.32 292 -90 292 C-90 291.34 -90 290.68 -90 290 C-90.66 290 -91.32 290 -92 290 C-92 289.34 -92 288.68 -92 288 C-92.66 288 -93.32 288 -94 288 C-94 287.34 -94 286.68 -94 286 C-94.66 286 -95.32 286 -96 286 C-96 285.34 -96 284.68 -96 284 C-96.66 284 -97.32 284 -98 284 C-98 283.34 -98 282.68 -98 282 C-98.66 282 -99.32 282 -100 282 C-100 281.34 -100 280.68 -100 280 C-100.66 280 -101.32 280 -102 280 C-102 279.34 -102 278.68 -102 278 C-102.66 278 -103.32 278 -104 278 C-104 276.68 -104 275.36 -104 274 C-104.66 274 -105.32 274 -106 274 C-106 272.68 -106 271.36 -106 270 C-106.66 270 -107.32 270 -108 270 C-108 269.34 -108 268.68 -108 268 C-108.66 268 -109.32 268 -110 268 C-110 266.68 -110 265.36 -110 264 C-110.66 264 -111.32 264 -112 264 C-112 262.68 -112 261.36 -112 260 C-112.66 260 -113.32 260 -114 260 C-114 258.68 -114 257.36 -114 256 C-114.66 256 -115.32 256 -116 256 C-116 254.68 -116 253.36 -116 252 C-116.66 252 -117.32 252 -118 252 C-118 250.68 -118 249.36 -118 248 C-118.66 248 -119.32 248 -120 248 C-120 246.68 -120 245.36 -120 244 C-120.66 244 -121.32 244 -122 244 C-122 242.68 -122 241.36 -122 240 C-122.66 240 -123.32 240 -124 240 C-124 238.02 -124 236.04 -124 234 C-124.66 234 -125.32 234 -126 234 C-126 232.68 -126 231.36 -126 230 C-126.66 230 -127.32 230 -128 230 C-128 227.36 -128 224.72 -128 222 C-128.66 222 -129.32 222 -130 222 C-130 219.36 -130 216.72 -130 214 C-130.66 214 -131.32 214 -132 214 C-132 212.02 -132 210.04 -132 208 C-132.66 208 -133.32 208 -134 208 C-134 204.7 -134 201.4 -134 198 C-134.66 198 -135.32 198 -136 198 C-136 175.56 -136 153.12 -136 130 C-135.34 130 -134.68 130 -134 130 C-134 126.7 -134 123.4 -134 120 C-133.34 120 -132.68 120 -132 120 C-132 118.68 -132 117.36 -132 116 C-131.34 116 -130.68 116 -130 116 C-130 114.02 -130 112.04 -130 110 C-129.34 110 -128.68 110 -128 110 C-128 107.36 -128 104.72 -128 102 C-127.34 102 -126.68 102 -126 102 C-126 100.68 -126 99.36 -126 98 C-125.34 98 -124.68 98 -124 98 C-124 96.68 -124 95.36 -124 94 C-123.34 94 -122.68 94 -122 94 C-122 92.68 -122 91.36 -122 90 C-121.34 90 -120.68 90 -120 90 C-120 88.68 -120 87.36 -120 86 C-119.34 86 -118.68 86 -118 86 C-118 84.68 -118 83.36 -118 82 C-117.34 82 -116.68 82 -116 82 C-116 80.68 -116 79.36 -116 78 C-115.34 78 -114.68 78 -114 78 C-114 76.68 -114 75.36 -114 74 C-113.34 74 -112.68 74 -112 74 C-112 73.34 -112 72.68 -112 72 C-111.34 72 -110.68 72 -110 72 C-110 70.68 -110 69.36 -110 68 C-109.34 68 -108.68 68 -108 68 C-108 67.34 -108 66.68 -108 66 C-107.34 66 -106.68 66 -106 66 C-106 65.34 -106 64.68 -106 64 C-105.34 64 -104.68 64 -104 64 C-104 62.68 -104 61.36 -104 60 C-103.34 60 -102.68 60 -102 60 C-102 59.34 -102 58.68 -102 58 C-101.34 58 -100.68 58 -100 58 C-100 57.34 -100 56.68 -100 56 C-99.34 56 -98.68 56 -98 56 C-98 55.34 -98 54.68 -98 54 C-97.34 54 -96.68 54 -96 54 C-96 53.34 -96 52.68 -96 52 C-95.34 52 -94.68 52 -94 52 C-94 51.34 -94 50.68 -94 50 C-93.34 50 -92.68 50 -92 50 C-92 49.34 -92 48.68 -92 48 C-91.34 48 -90.68 48 -90 48 C-90 47.34 -90 46.68 -90 46 C-89.34 46 -88.68 46 -88 46 C-88 45.34 -88 44.68 -88 44 C-87.34 44 -86.68 44 -86 44 C-86 43.34 -86 42.68 -86 42 C-85.34 42 -84.68 42 -84 42 C-84 41.34 -84 40.68 -84 40 C-83.34 40 -82.68 40 -82 40 C-82 39.34 -82 38.68 -82 38 C-81.34 38 -80.68 38 -80 38 C-80 37.34 -80 36.68 -80 36 C-79.34 36 -78.68 36 -78 36 C-78 35.34 -78 34.68 -78 34 C-77.34 34 -76.68 34 -76 34 C-76 33.34 -76 32.68 -76 32 C-75.34 32 -74.68 32 -74 32 C-74 31.34 -74 30.68 -74 30 C-73.34 30 -72.68 30 -72 30 C-72 29.34 -72 28.68 -72 28 C-71.34 28 -70.68 28 -70 28 C-70 27.34 -70 26.68 -70 26 C-68.68 26 -67.36 26 -66 26 C-66 25.34 -66 24.68 -66 24 C-65.34 24 -64.68 24 -64 24 C-64 23.34 -64 22.68 -64 22 C-62.68 22 -61.36 22 -60 22 C-60 21.34 -60 20.68 -60 20 C-59.34 20 -58.68 20 -58 20 C-58 19.34 -58 18.68 -58 18 C-57.34 18 -56.68 18 -56 18 C-56 17.34 -56 16.68 -56 16 C-55.34 16 -54.68 16 -54 16 C-54 15.34 -54 14.68 -54 14 C-52.68 14 -51.36 14 -50 14 C-50 13.34 -50 12.68 -50 12 C-49.34 12 -48.68 12 -48 12 C-48 11.34 -48 10.68 -48 10 C-46.02 10 -44.04 10 -42 10 C-42 9.34 -42 8.68 -42 8 C-40.02 8 -38.04 8 -36 8 C-36 7.34 -36 6.68 -36 6 C-33.36 6 -30.72 6 -28 6 C-28 5.34 -28 4.68 -28 4 C-24.7 4 -21.4 4 -18 4 C-18 3.34 -18 2.68 -18 2 C-12.06 2 -6.12 2 0 2 C0 1.34 0 0.68 0 0 Z " fill="#FAFAFA" transform="translate(500,0)"/>
<path d="M0 0 C15.84 0 31.68 0 48 0 C48 199.98 48 399.96 48 606 C40.08 606 32.16 606 24 606 C24 605.34 24 604.68 24 604 C16.08 604 8.16 604 0 604 C0 603.67 0 603.34 0 603 C4.08331679 602.97001631 8.16660419 602.95288416 12.25 602.9375 C13.37019531 602.92912109 14.49039063 602.92074219 15.64453125 602.91210938 C26.16076638 602.88273442 36.44467894 603.47223395 47 604 C47 405.01 47 206.02 47 1 C6.54103863 1.72015523 6.54103863 1.72015523 -33.4609375 9.3125 C-37.54633351 10.41869953 -41.70927743 10.93230766 -45.89453125 11.52734375 C-49.98761866 12.1503168 -53.97285439 13.04440613 -58 14 C-58 13.34 -58 12.68 -58 12 C-56.68 12 -55.36 12 -54 12 C-54 11.34 -54 10.68 -54 10 C-51.36 10 -48.72 10 -46 10 C-46 9.34 -46 8.68 -46 8 C-43.36 8 -40.72 8 -38 8 C-38 7.34 -38 6.68 -38 6 C-35.36 6 -32.72 6 -30 6 C-30 5.34 -30 4.68 -30 4 C-23.4 4 -16.8 4 -10 4 C-10 3.34 -10 2.68 -10 2 C-6.7 2 -3.4 2 0 2 C0 1.34 0 0.68 0 0 Z " fill="#C8C8C8" transform="translate(288,364)"/>
<path d="M0 0 C0.66 0 1.32 0 2 0 C1.01 3.3 0.02 6.6 -1 10 C-1.66 10 -2.32 10 -3 10 C-3.103125 10.70125 -3.20625 11.4025 -3.3125 12.125 C-4 15 -4 15 -5.4375 17.6875 C-7.47415692 22.00521268 -8.21315673 26.3159683 -9 31 C-9.66 31 -10.32 31 -11 31 C-11.1340625 31.55300781 -11.268125 32.10601563 -11.40625 32.67578125 C-12.05049562 35.19766377 -12.76256647 37.69128751 -13.5 40.1875 C-13.7578125 41.06792969 -14.015625 41.94835937 -14.28125 42.85546875 C-15 45 -15 45 -16 46 C-16.34191545 47.37584248 -16.63374741 48.76423538 -16.90234375 50.15625 C-17.07056641 51.01476562 -17.23878906 51.87328125 -17.41210938 52.7578125 C-17.58548828 53.66273438 -17.75886719 54.56765625 -17.9375 55.5 C-18.27897442 57.26060576 -18.62141688 59.02102405 -18.96484375 60.78125 C-19.13435547 61.65402588 -19.30386719 62.52680176 -19.47851562 63.42602539 C-19.97314757 65.86746015 -20.52318364 68.28928091 -21.08984375 70.71484375 C-21.94234174 74.49395856 -22.38044156 78.19032473 -22.625 82.0625 C-22.73714844 83.75052734 -22.73714844 83.75052734 -22.8515625 85.47265625 C-22.90054687 86.30667969 -22.94953125 87.14070312 -23 88 C-23.66 88 -24.32 88 -25 88 C-25.83847088 130.63090297 -25.83847088 130.63090297 -21.35986328 172.88867188 C-20.75645946 176.42885926 -20.39290752 179.99400978 -20 183.5625 C-19.38141796 188.72075851 -18.45316307 193.37299378 -16.7890625 198.28125 C-15.51851902 202.65896418 -14.81846835 207.14833029 -14.09008789 211.64453125 C-13.45287544 215.74956989 -13.45287544 215.74956989 -11 219 C-10.875 221.625 -10.875 221.625 -11 224 C-10.34 224 -9.68 224 -9 224 C-8.81824219 225.00160156 -8.63648437 226.00320313 -8.44921875 227.03515625 C-8.19573451 228.37768391 -7.94180432 229.72012743 -7.6875 231.0625 C-7.56955078 231.71927734 -7.45160156 232.37605469 -7.33007812 233.05273438 C-6.2866925 238.48369034 -5.01286226 243.98713774 -1 248 C-0.1484375 249.8046875 -0.1484375 249.8046875 0.625 251.875 C1.01558594 252.89207031 1.01558594 252.89207031 1.4140625 253.9296875 C2 256 2 256 2 260 C1.34 260 0.68 260 0 260 C0 258.68 0 257.36 0 256 C-0.66 256 -1.32 256 -2 256 C-2 254.68 -2 253.36 -2 252 C-2.66 252 -3.32 252 -4 252 C-4 250.68 -4 249.36 -4 248 C-4.66 248 -5.32 248 -6 248 C-6 246.02 -6 244.04 -6 242 C-6.66 242 -7.32 242 -8 242 C-8 240.68 -8 239.36 -8 238 C-8.66 238 -9.32 238 -10 238 C-10 235.36 -10 232.72 -10 230 C-10.66 230 -11.32 230 -12 230 C-12 228.02 -12 226.04 -12 224 C-12.66 224 -13.32 224 -14 224 C-14 222.02 -14 220.04 -14 218 C-14.66 218 -15.32 218 -16 218 C-16 215.36 -16 212.72 -16 210 C-16.66 210 -17.32 210 -18 210 C-18 207.36 -18 204.72 -18 202 C-18.66 202 -19.32 202 -20 202 C-20 200.02 -20 198.04 -20 196 C-20.66 196 -21.32 196 -22 196 C-22 190.06 -22 184.12 -22 178 C-22.66 178 -23.32 178 -24 178 C-24 173.38 -24 168.76 -24 164 C-24.66 164 -25.32 164 -26 164 C-26 156.74 -26 149.48 -26 142 C-26.66 142 -27.32 142 -28 142 C-28 129.46 -28 116.92 -28 104 C-27.34 104 -26.68 104 -26 104 C-26 95.42 -26 86.84 -26 78 C-25.34 78 -24.68 78 -24 78 C-24 74.7 -24 71.4 -24 68 C-23.34 68 -22.68 68 -22 68 C-22 64.04 -22 60.08 -22 56 C-21.34 56 -20.68 56 -20 56 C-20 53.36 -20 50.72 -20 48 C-19.34 48 -18.68 48 -18 48 C-18 46.02 -18 44.04 -18 42 C-17.34 42 -16.68 42 -16 42 C-16 40.02 -16 38.04 -16 36 C-15.34 36 -14.68 36 -14 36 C-14 34.02 -14 32.04 -14 30 C-13.34 30 -12.68 30 -12 30 C-12 28.68 -12 27.36 -12 26 C-11.34 26 -10.68 26 -10 26 C-10 24.02 -10 22.04 -10 20 C-9.34 20 -8.68 20 -8 20 C-8 18.02 -8 16.04 -8 14 C-7.34 14 -6.68 14 -6 14 C-6 12.68 -6 11.36 -6 10 C-5.34 10 -4.68 10 -4 10 C-4 8.68 -4 7.36 -4 6 C-3.34 6 -2.68 6 -2 6 C-2 5.34 -2 4.68 -2 4 C-1.34 4 -0.68 4 0 4 C0 2.68 0 1.36 0 0 Z " fill="#6E6E6E" transform="translate(28,534)"/>
<path d="M0 0 C0.66 0 1.32 0 2 0 C2.40992188 0.84304688 2.81984375 1.68609375 3.2421875 2.5546875 C3.78101563 3.65039062 4.31984375 4.74609375 4.875 5.875 C5.67550781 7.51082031 5.67550781 7.51082031 6.4921875 9.1796875 C7.84535937 12.03882547 7.84535937 12.03882547 10 14 C10.2475 14.8353125 10.495 15.670625 10.75 16.53125 C12.48004183 21.33211607 15.18459556 25.26584387 18 29.5 C18.58450928 30.3863916 19.16901855 31.2727832 19.77124023 32.18603516 C21.50275046 34.79855558 23.24735374 37.40162094 25 40 C25.46035645 40.68288086 25.92071289 41.36576172 26.39501953 42.06933594 C31.81397223 50.03776889 37.74893743 57.40812564 44.09375 64.65625 C47.55803078 68.61542804 50.86105207 72.69519876 54.16015625 76.79296875 C57.43475181 80.79686832 57.43475181 80.79686832 62 83 C63.6484375 84.7421875 63.6484375 84.7421875 65.375 86.875 C68.06561518 90.05430729 70.4041542 91.89511465 74 94 C75.33594412 95.28862943 76.64595659 96.60437281 77.9375 97.9375 C81.07198709 101.16003448 84.20036961 103.57470401 88 106 C89.13594789 106.98754615 90.26033232 107.98849569 91.375 109 C94.95148447 112.15242703 98.67277684 114.02617891 103 116 C103 116.66 103 117.32 103 118 C104.65 118.66 106.3 119.32 108 120 C108 120.66 108 121.32 108 122 C106.68 122 105.36 122 104 122 C104 121.34 104 120.68 104 120 C102.68 120 101.36 120 100 120 C100 119.34 100 118.68 100 118 C99.34 118 98.68 118 98 118 C98 117.34 98 116.68 98 116 C97.34 116 96.68 116 96 116 C96 115.34 96 114.68 96 114 C94.68 114 93.36 114 92 114 C92 113.34 92 112.68 92 112 C91.34 112 90.68 112 90 112 C90 111.34 90 110.68 90 110 C88.68 110 87.36 110 86 110 C86 109.34 86 108.68 86 108 C85.34 108 84.68 108 84 108 C84 107.34 84 106.68 84 106 C83.34 106 82.68 106 82 106 C82 105.34 82 104.68 82 104 C81.34 104 80.68 104 80 104 C80 103.34 80 102.68 80 102 C78.68 102 77.36 102 76 102 C76 101.34 76 100.68 76 100 C75.34 100 74.68 100 74 100 C74 99.34 74 98.68 74 98 C73.34 98 72.68 98 72 98 C72 97.34 72 96.68 72 96 C71.34 96 70.68 96 70 96 C70 95.34 70 94.68 70 94 C69.34 94 68.68 94 68 94 C68 93.34 68 92.68 68 92 C66.68 92 65.36 92 64 92 C64 91.34 64 90.68 64 90 C63.34 90 62.68 90 62 90 C62 89.34 62 88.68 62 88 C61.34 88 60.68 88 60 88 C60 87.34 60 86.68 60 86 C59.34 86 58.68 86 58 86 C58 85.34 58 84.68 58 84 C57.34 84 56.68 84 56 84 C56 83.34 56 82.68 56 82 C55.34 82 54.68 82 54 82 C54 81.34 54 80.68 54 80 C53.34 80 52.68 80 52 80 C52 79.34 52 78.68 52 78 C51.34 78 50.68 78 50 78 C50 77.34 50 76.68 50 76 C49.34 76 48.68 76 48 76 C48 75.34 48 74.68 48 74 C47.34 74 46.68 74 46 74 C46 73.34 46 72.68 46 72 C45.34 72 44.68 72 44 72 C44 71.34 44 70.68 44 70 C43.34 70 42.68 70 42 70 C42 68.68 42 67.36 42 66 C41.34 66 40.68 66 40 66 C40 65.34 40 64.68 40 64 C39.34 64 38.68 64 38 64 C38 63.34 38 62.68 38 62 C37.34 62 36.68 62 36 62 C36 61.34 36 60.68 36 60 C35.34 60 34.68 60 34 60 C34 58.68 34 57.36 34 56 C33.34 56 32.68 56 32 56 C32 55.34 32 54.68 32 54 C31.34 54 30.68 54 30 54 C30 53.34 30 52.68 30 52 C29.34 52 28.68 52 28 52 C28 50.68 28 49.36 28 48 C27.34 48 26.68 48 26 48 C26 47.34 26 46.68 26 46 C25.34 46 24.68 46 24 46 C24 44.68 24 43.36 24 42 C23.34 42 22.68 42 22 42 C22 41.34 22 40.68 22 40 C21.34 40 20.68 40 20 40 C20 38.68 20 37.36 20 36 C19.34 36 18.68 36 18 36 C18 35.34 18 34.68 18 34 C17.34 34 16.68 34 16 34 C16 32.68 16 31.36 16 30 C15.34 30 14.68 30 14 30 C14 29.34 14 28.68 14 28 C13.34 28 12.68 28 12 28 C12 26.68 12 25.36 12 24 C11.34 24 10.68 24 10 24 C10 22.68 10 21.36 10 20 C9.34 20 8.68 20 8 20 C8 18.68 8 17.36 8 16 C7.34 16 6.68 16 6 16 C6 15.34 6 14.68 6 14 C5.34 14 4.68 14 4 14 C4 12.68 4 11.36 4 10 C3.34 10 2.68 10 2 10 C2 8.68 2 7.36 2 6 C1.34 6 0.68 6 0 6 C0 4.02 0 2.04 0 0 Z " fill="#151515" transform="translate(30,794)"/>
<path d="M0 0 C1.98 0 3.96 0 6 0 C3.08315259 2.52793442 0.0652511 4.61068835 -3.25 6.5625 C-22.3270273 16.24097559 -22.3270273 16.24097559 -37 30 C-38.68189167 30.95063442 -40.3651646 31.89895401 -42.05712891 32.83154297 C-45.2231503 34.73561163 -47.91966446 37.12956271 -50.6875 39.5625 C-60.4126506 48 -60.4126506 48 -63 48 C-63 48.66 -63 49.32 -63 50 C-64.6796875 51.7265625 -64.6796875 51.7265625 -66.875 53.625 C-67.59429687 54.25664062 -68.31359375 54.88828125 -69.0546875 55.5390625 C-71 57 -71 57 -73 57 C-73.23589844 57.56589844 -73.47179687 58.13179688 -73.71484375 58.71484375 C-75.29414316 61.52302052 -77.22686006 63.34382481 -79.5625 65.5625 C-84.82765983 70.72159905 -89.42627273 76.22956273 -94 82 C-94.76054688 82.928125 -95.52109375 83.85625 -96.3046875 84.8125 C-97.02914062 85.699375 -97.75359375 86.58625 -98.5 87.5 C-99.1496875 88.2940625 -99.799375 89.088125 -100.46875 89.90625 C-102.17441267 92.01527847 -102.17441267 92.01527847 -103 95 C-103.70125 95.66 -104.4025 96.32 -105.125 97 C-110.8915612 102.53255582 -114.72827826 110.13757793 -118.1640625 117.2734375 C-119.30244919 119.62468477 -120.51958155 121.84666408 -122 124 C-122.66 124 -123.32 124 -124 124 C-124 122.68 -124 121.36 -124 120 C-123.34 120 -122.68 120 -122 120 C-122 118.68 -122 117.36 -122 116 C-121.34 116 -120.68 116 -120 116 C-120 114.68 -120 113.36 -120 112 C-119.34 112 -118.68 112 -118 112 C-118 111.34 -118 110.68 -118 110 C-117.34 110 -116.68 110 -116 110 C-116 108.68 -116 107.36 -116 106 C-115.34 106 -114.68 106 -114 106 C-114 105.34 -114 104.68 -114 104 C-113.34 104 -112.68 104 -112 104 C-112 102.68 -112 101.36 -112 100 C-111.34 100 -110.68 100 -110 100 C-110 99.34 -110 98.68 -110 98 C-109.34 98 -108.68 98 -108 98 C-108 96.68 -108 95.36 -108 94 C-107.34 94 -106.68 94 -106 94 C-106 93.34 -106 92.68 -106 92 C-105.34 92 -104.68 92 -104 92 C-104 91.34 -104 90.68 -104 90 C-103.34 90 -102.68 90 -102 90 C-102 88.68 -102 87.36 -102 86 C-101.34 86 -100.68 86 -100 86 C-100 85.34 -100 84.68 -100 84 C-99.34 84 -98.68 84 -98 84 C-98 82.68 -98 81.36 -98 80 C-97.34 80 -96.68 80 -96 80 C-96 79.34 -96 78.68 -96 78 C-95.34 78 -94.68 78 -94 78 C-94 77.34 -94 76.68 -94 76 C-93.34 76 -92.68 76 -92 76 C-92 75.34 -92 74.68 -92 74 C-91.34 74 -90.68 74 -90 74 C-90 73.34 -90 72.68 -90 72 C-89.34 72 -88.68 72 -88 72 C-88 71.34 -88 70.68 -88 70 C-87.34 70 -86.68 70 -86 70 C-86 69.34 -86 68.68 -86 68 C-85.34 68 -84.68 68 -84 68 C-84 67.34 -84 66.68 -84 66 C-83.34 66 -82.68 66 -82 66 C-82 65.34 -82 64.68 -82 64 C-81.34 64 -80.68 64 -80 64 C-80 63.34 -80 62.68 -80 62 C-79.34 62 -78.68 62 -78 62 C-78 61.34 -78 60.68 -78 60 C-77.34 60 -76.68 60 -76 60 C-76 59.34 -76 58.68 -76 58 C-75.34 58 -74.68 58 -74 58 C-74 57.34 -74 56.68 -74 56 C-73.34 56 -72.68 56 -72 56 C-72 55.34 -72 54.68 -72 54 C-71.34 54 -70.68 54 -70 54 C-70 53.34 -70 52.68 -70 52 C-69.34 52 -68.68 52 -68 52 C-68 51.34 -68 50.68 -68 50 C-67.34 50 -66.68 50 -66 50 C-66 49.34 -66 48.68 -66 48 C-65.34 48 -64.68 48 -64 48 C-64 47.34 -64 46.68 -64 46 C-63.34 46 -62.68 46 -62 46 C-62 45.34 -62 44.68 -62 44 C-61.34 44 -60.68 44 -60 44 C-60 43.34 -60 42.68 -60 42 C-59.34 42 -58.68 42 -58 42 C-58 41.34 -58 40.68 -58 40 C-56.68 40 -55.36 40 -54 40 C-54 39.34 -54 38.68 -54 38 C-53.34 38 -52.68 38 -52 38 C-52 37.34 -52 36.68 -52 36 C-51.34 36 -50.68 36 -50 36 C-50 35.34 -50 34.68 -50 34 C-49.34 34 -48.68 34 -48 34 C-48 33.34 -48 32.68 -48 32 C-46.68 32 -45.36 32 -44 32 C-44 31.34 -44 30.68 -44 30 C-43.34 30 -42.68 30 -42 30 C-42 29.34 -42 28.68 -42 28 C-40.68 28 -39.36 28 -38 28 C-38 27.34 -38 26.68 -38 26 C-37.34 26 -36.68 26 -36 26 C-36 25.34 -36 24.68 -36 24 C-35.34 24 -34.68 24 -34 24 C-34 23.34 -34 22.68 -34 22 C-32.68 22 -31.36 22 -30 22 C-30 21.34 -30 20.68 -30 20 C-29.34 20 -28.68 20 -28 20 C-28 19.34 -28 18.68 -28 18 C-27.34 18 -26.68 18 -26 18 C-26 17.34 -26 16.68 -26 16 C-24.68 16 -23.36 16 -22 16 C-22 15.34 -22 14.68 -22 14 C-21.34 14 -20.68 14 -20 14 C-20 13.34 -20 12.68 -20 12 C-18.68 12 -17.36 12 -16 12 C-16 11.34 -16 10.68 -16 10 C-14.68 10 -13.36 10 -12 10 C-12 9.34 -12 8.68 -12 8 C-11.34 8 -10.68 8 -10 8 C-10 7.34 -10 6.68 -10 6 C-8.68 6 -7.36 6 -6 6 C-6 5.34 -6 4.68 -6 4 C-5.34 4 -4.68 4 -4 4 C-4 3.34 -4 2.68 -4 2 C-2.68 2 -1.36 2 0 2 C0 1.34 0 0.68 0 0 Z " fill="#101010" transform="translate(156,406)"/>
<path d="M0 0 C4.62 0 9.24 0 14 0 C14 0.33 14 0.66 14 1 C11.02194722 1.65135437 8.04271741 2.29618739 5.0625 2.9375 C4.23169922 3.11990234 3.40089844 3.30230469 2.54492188 3.49023438 C-2.29005532 4.52495712 -7.06601321 5.32115886 -11.98828125 5.79882812 C-15.00769967 6.10076997 -17.9989933 6.55304155 -21 7 C-21 7.66 -21 8.32 -21 9 C-22.46759766 9.29777344 -22.46759766 9.29777344 -23.96484375 9.6015625 C-28.97271487 11.04244131 -32.56799985 14.1369521 -36.5625 17.375 C-37.34246338 17.99334717 -38.12242676 18.61169434 -38.92602539 19.2487793 C-44.63244712 23.8042576 -50.21555204 28.50282129 -55.67211914 33.35498047 C-58.11938297 35.5115503 -59.86782239 36.9559408 -63 38 C-63 38.66 -63 39.32 -63 40 C-65.54926371 42.77419875 -68.24671008 45.22142891 -71.1875 47.5625 C-73.83347405 49.85567751 -74.58261101 50.97623681 -76 54 C-77.64302953 55.68997323 -79.31471312 57.35216394 -81 59 C-87.0359595 65.30966649 -93.20815028 72.62445085 -96 81 C-96.66 81 -97.32 81 -98 81 C-98.33 81.99 -98.66 82.98 -99 84 C-99.33 82.68 -99.66 81.36 -100 80 C-99.34 80 -98.68 80 -98 80 C-98 78.68 -98 77.36 -98 76 C-97.34 76 -96.68 76 -96 76 C-96 74.68 -96 73.36 -96 72 C-95.34 72 -94.68 72 -94 72 C-94 71.34 -94 70.68 -94 70 C-93.34 70 -92.68 70 -92 70 C-92 68.68 -92 67.36 -92 66 C-91.34 66 -90.68 66 -90 66 C-90 65.34 -90 64.68 -90 64 C-89.34 64 -88.68 64 -88 64 C-88 63.34 -88 62.68 -88 62 C-87.34 62 -86.68 62 -86 62 C-86 60.68 -86 59.36 -86 58 C-85.34 58 -84.68 58 -84 58 C-84 57.34 -84 56.68 -84 56 C-83.34 56 -82.68 56 -82 56 C-82 55.34 -82 54.68 -82 54 C-81.34 54 -80.68 54 -80 54 C-80 53.34 -80 52.68 -80 52 C-79.34 52 -78.68 52 -78 52 C-78 51.34 -78 50.68 -78 50 C-77.34 50 -76.68 50 -76 50 C-76 49.34 -76 48.68 -76 48 C-75.34 48 -74.68 48 -74 48 C-74 47.34 -74 46.68 -74 46 C-73.34 46 -72.68 46 -72 46 C-72 45.34 -72 44.68 -72 44 C-71.34 44 -70.68 44 -70 44 C-70 43.34 -70 42.68 -70 42 C-69.34 42 -68.68 42 -68 42 C-68 41.34 -68 40.68 -68 40 C-67.34 40 -66.68 40 -66 40 C-66 39.34 -66 38.68 -66 38 C-65.34 38 -64.68 38 -64 38 C-64 37.34 -64 36.68 -64 36 C-63.34 36 -62.68 36 -62 36 C-62 35.34 -62 34.68 -62 34 C-61.34 34 -60.68 34 -60 34 C-60 33.34 -60 32.68 -60 32 C-59.34 32 -58.68 32 -58 32 C-58 31.34 -58 30.68 -58 30 C-57.34 30 -56.68 30 -56 30 C-56 29.34 -56 28.68 -56 28 C-55.34 28 -54.68 28 -54 28 C-54 27.34 -54 26.68 -54 26 C-53.34 26 -52.68 26 -52 26 C-52 25.34 -52 24.68 -52 24 C-50.68 24 -49.36 24 -48 24 C-48 23.34 -48 22.68 -48 22 C-47.34 22 -46.68 22 -46 22 C-46 21.34 -46 20.68 -46 20 C-44.68 20 -43.36 20 -42 20 C-42 19.34 -42 18.68 -42 18 C-41.34 18 -40.68 18 -40 18 C-40 17.34 -40 16.68 -40 16 C-39.34 16 -38.68 16 -38 16 C-38 15.34 -38 14.68 -38 14 C-37.34 14 -36.68 14 -36 14 C-36 13.34 -36 12.68 -36 12 C-34.68 12 -33.36 12 -32 12 C-32 11.34 -32 10.68 -32 10 C-31.34 10 -30.68 10 -30 10 C-30 9.34 -30 8.68 -30 8 C-28.02 8 -26.04 8 -24 8 C-24 7.34 -24 6.68 -24 6 C-22.02 6 -20.04 6 -18 6 C-18 5.34 -18 4.68 -18 4 C-15.36 4 -12.72 4 -10 4 C-10 3.34 -10 2.68 -10 2 C-6.7 2 -3.4 2 0 2 C0 1.34 0 0.68 0 0 Z " fill="#0F0F0F" transform="translate(482,2)"/>
<path d="M0 0 C3.37462715 0.54723683 5.08235 1.0549 8 3 C8 3.66 8 4.32 8 5 C10.97 5.495 10.97 5.495 14 6 C14 6.66 14 7.32 14 8 C15.051875 8.1546875 15.051875 8.1546875 16.125 8.3125 C21.68830405 9.64285532 25.61928469 12.44806866 30 16 C30.99 16.33 31.98 16.66 33 17 C33 17.66 33 18.32 33 19 C33.99 19.103125 34.98 19.20625 36 19.3125 C40.28297163 19.90808706 43.99996371 21.38595027 48 23 C48 23.66 48 24.32 48 25 C48.58136719 25.13535156 49.16273438 25.27070312 49.76171875 25.41015625 C51.85670021 25.96223688 53.79807456 26.645679 55.8125 27.4375 C60.77320954 29.33125318 65.83834673 30.76120322 71 32 C71 32.66 71 33.32 71 34 C76.445 34.495 76.445 34.495 82 35 C82 35.66 82 36.32 82 37 C82.6290625 37.10957031 83.258125 37.21914063 83.90625 37.33203125 C84.7621875 37.49058594 85.618125 37.64914062 86.5 37.8125 C87.3353125 37.96332031 88.170625 38.11414063 89.03125 38.26953125 C91.44840664 38.864279 93.55654704 39.57269868 95.859375 40.48046875 C99.74980093 41.9801327 103.63919451 42.84453888 107.75 43.5 C108.46881348 43.62036621 109.18762695 43.74073242 109.92822266 43.86474609 C112.28383687 44.25424124 114.64143864 44.6287887 117 45 C118.26505371 45.20157715 118.26505371 45.20157715 119.55566406 45.40722656 C129.00895244 46.90432165 138.44187721 48.3642533 148 49 C148 49.33 148 49.66 148 50 C140.74 50 133.48 50 126 50 C126 49.34 126 48.68 126 48 C122.04 48 118.08 48 114 48 C114 47.34 114 46.68 114 46 C110.7 46 107.4 46 104 46 C104 45.34 104 44.68 104 44 C101.36 44 98.72 44 96 44 C96 43.34 96 42.68 96 42 C94.02 42 92.04 42 90 42 C90 41.34 90 40.68 90 40 C88.02 40 86.04 40 84 40 C84 39.34 84 38.68 84 38 C82.02 38 80.04 38 78 38 C78 37.34 78 36.68 78 36 C74.7 36 71.4 36 68 36 C68 35.34 68 34.68 68 34 C66.02 34 64.04 34 62 34 C62 33.34 62 32.68 62 32 C60.68 32 59.36 32 58 32 C58 31.34 58 30.68 58 30 C56.68 30 55.36 30 54 30 C54 29.34 54 28.68 54 28 C52.68 28 51.36 28 50 28 C50 27.34 50 26.68 50 26 C48.02 26 46.04 26 44 26 C44 25.34 44 24.68 44 24 C42.02 24 40.04 24 38 24 C38 23.34 38 22.68 38 22 C36.68 22 35.36 22 34 22 C34 21.34 34 20.68 34 20 C32.68 20 31.36 20 30 20 C30 19.34 30 18.68 30 18 C28.68 18 27.36 18 26 18 C26 17.34 26 16.68 26 16 C25.34 16 24.68 16 24 16 C24 15.34 24 14.68 24 14 C22.68 14 21.36 14 20 14 C20 13.34 20 12.68 20 12 C18.68 12 17.36 12 16 12 C16 11.34 16 10.68 16 10 C14.68 10 13.36 10 12 10 C12 9.34 12 8.68 12 8 C10.68 8 9.36 8 8 8 C8 7.34 8 6.68 8 6 C7.34 6 6.68 6 6 6 C6 5.34 6 4.68 6 4 C4.68 4 3.36 4 2 4 C2 3.34 2 2.68 2 2 C1.34 2 0.68 2 0 2 C0 1.34 0 0.68 0 0 Z " fill="#232323" transform="translate(138,916)"/>
<path d="M0 0 C1.32 0 2.64 0 4 0 C4 0.66 4 1.32 4 2 C5.98 2 7.96 2 10 2 C10 2.66 10 3.32 10 4 C11.32 4 12.64 4 14 4 C14 4.66 14 5.32 14 6 C14.66 6 15.32 6 16 6 C16 6.66 16 7.32 16 8 C17.32 8 18.64 8 20 8 C20 8.66 20 9.32 20 10 C20.66 10 21.32 10 22 10 C22 10.66 22 11.32 22 12 C23.32 12 24.64 12 26 12 C26 12.66 26 13.32 26 14 C26.66 14 27.32 14 28 14 C28 14.66 28 15.32 28 16 C29.32 16 30.64 16 32 16 C32 16.66 32 17.32 32 18 C33.32 18 34.64 18 36 18 C36 18.66 36 19.32 36 20 C36.66 20 37.32 20 38 20 C38 20.66 38 21.32 38 22 C39.32 22 40.64 22 42 22 C42 22.66 42 23.32 42 24 C42.66 24 43.32 24 44 24 C44 24.66 44 25.32 44 26 C45.32 26 46.64 26 48 26 C48 26.66 48 27.32 48 28 C49.32 28 50.64 28 52 28 C52 28.66 52 29.32 52 30 C52.66 30 53.32 30 54 30 C54 30.66 54 31.32 54 32 C54.66 32 55.32 32 56 32 C56 32.66 56 33.32 56 34 C56.66 34 57.32 34 58 34 C58 34.66 58 35.32 58 36 C58.66 36 59.32 36 60 36 C60 36.66 60 37.32 60 38 C60.66 38 61.32 38 62 38 C62 38.66 62 39.32 62 40 C62.66 40 63.32 40 64 40 C64 40.66 64 41.32 64 42 C64.66 42 65.32 42 66 42 C66 42.66 66 43.32 66 44 C66.66 44 67.32 44 68 44 C68 45.32 68 46.64 68 48 C68.66 48 69.32 48 70 48 C70 48.66 70 49.32 70 50 C70.66 50 71.32 50 72 50 C72 50.66 72 51.32 72 52 C72.66 52 73.32 52 74 52 C74 52.66 74 53.32 74 54 C74.66 54 75.32 54 76 54 C76 55.32 76 56.64 76 58 C76.66 58 77.32 58 78 58 C78 58.66 78 59.32 78 60 C78.66 60 79.32 60 80 60 C80 61.32 80 62.64 80 64 C80.66 64 81.32 64 82 64 C82 65.32 82 66.64 82 68 C82.66 68 83.32 68 84 68 C84 69.32 84 70.64 84 72 C84.66 72 85.32 72 86 72 C86 72.66 86 73.32 86 74 C86.66 74 87.32 74 88 74 C88 75.32 88 76.64 88 78 C88.66 78 89.32 78 90 78 C90 79.98 90 81.96 90 84 C90.66 84 91.32 84 92 84 C92 86.31 92 88.62 92 91 C89.66911211 88.12145363 88.16775203 85.38015172 86.8125 81.9375 C86.46832031 81.08027344 86.12414062 80.22304687 85.76953125 79.33984375 C85 77 85 77 85 74 C84.34 74 83.68 74 83 74 C83 73.01 83 72.02 83 71 C82.34 71 81.68 71 81 71 C80.67 69.02 80.34 67.04 80 65 C79.34 65 78.68 65 78 65 C76.61446518 62.94149112 75.33108734 60.87904933 74.0625 58.75 C67.36182846 47.92817393 57.77806996 35.43603229 46 30 C46 29.34 46 28.68 46 28 C43.03 27.01 40.06 26.02 37 25 C37 24.34 37 23.68 37 23 C36.27425781 22.73832031 35.54851563 22.47664063 34.80078125 22.20703125 C31.93600054 20.97241864 29.70444655 19.52133343 27.1875 17.6875 C23.35832947 14.93187503 19.48014123 12.40648494 15.3984375 10.04296875 C14.93695312 9.69878906 14.47546875 9.35460938 14 9 C14 8.34 14 7.68 14 7 C10.7 6.34 7.4 5.68 4 5 C4 4.34 4 3.68 4 3 C2.68 3 1.36 3 0 3 C0 2.01 0 1.02 0 0 Z " fill="#111111" transform="translate(598,12)"/>
<path d="M0 0 C0.33 0 0.66 0 1 0 C1 2.31 1 4.62 1 7 C0.34 7 -0.32 7 -1 7 C-1 8.32 -1 9.64 -1 11 C-1.66 11 -2.32 11 -3 11 C-3 12.32 -3 13.64 -3 15 C-3.66 15 -4.32 15 -5 15 C-5 16.32 -5 17.64 -5 19 C-5.66 19 -6.32 19 -7 19 C-7 20.32 -7 21.64 -7 23 C-7.66 23 -8.32 23 -9 23 C-9 24.32 -9 25.64 -9 27 C-9.66 27 -10.32 27 -11 27 C-11 28.32 -11 29.64 -11 31 C-11.66 31 -12.32 31 -13 31 C-13 31.66 -13 32.32 -13 33 C-13.66 33 -14.32 33 -15 33 C-15 34.32 -15 35.64 -15 37 C-15.66 37 -16.32 37 -17 37 C-17 37.66 -17 38.32 -17 39 C-17.66 39 -18.32 39 -19 39 C-19 39.66 -19 40.32 -19 41 C-19.66 41 -20.32 41 -21 41 C-21 42.32 -21 43.64 -21 45 C-21.66 45 -22.32 45 -23 45 C-23 45.66 -23 46.32 -23 47 C-23.66 47 -24.32 47 -25 47 C-25 47.66 -25 48.32 -25 49 C-25.66 49 -26.32 49 -27 49 C-27 49.66 -27 50.32 -27 51 C-27.66 51 -28.32 51 -29 51 C-29 51.66 -29 52.32 -29 53 C-29.66 53 -30.32 53 -31 53 C-31 53.66 -31 54.32 -31 55 C-31.66 55 -32.32 55 -33 55 C-33 55.66 -33 56.32 -33 57 C-33.66 57 -34.32 57 -35 57 C-35 57.66 -35 58.32 -35 59 C-35.66 59 -36.32 59 -37 59 C-37 59.66 -37 60.32 -37 61 C-37.66 61 -38.32 61 -39 61 C-39 61.66 -39 62.32 -39 63 C-39.66 63 -40.32 63 -41 63 C-41 63.66 -41 64.32 -41 65 C-41.66 65 -42.32 65 -43 65 C-43 65.66 -43 66.32 -43 67 C-43.66 67 -44.32 67 -45 67 C-45 67.66 -45 68.32 -45 69 C-45.66 69 -46.32 69 -47 69 C-47 69.66 -47 70.32 -47 71 C-47.66 71 -48.32 71 -49 71 C-49 71.66 -49 72.32 -49 73 C-49.66 73 -50.32 73 -51 73 C-51 73.66 -51 74.32 -51 75 C-51.66 75 -52.32 75 -53 75 C-53 75.66 -53 76.32 -53 77 C-53.66 77 -54.32 77 -55 77 C-55 77.66 -55 78.32 -55 79 C-56.32 79 -57.64 79 -59 79 C-59 79.66 -59 80.32 -59 81 C-60.32 81 -61.64 81 -63 81 C-63 81.66 -63 82.32 -63 83 C-63.66 83 -64.32 83 -65 83 C-65 83.66 -65 84.32 -65 85 C-65.66 85 -66.32 85 -67 85 C-67 85.66 -67 86.32 -67 87 C-68.32 87 -69.64 87 -71 87 C-71 87.66 -71 88.32 -71 89 C-72.32 89 -73.64 89 -75 89 C-75 89.66 -75 90.32 -75 91 C-76.32 91 -77.64 91 -79 91 C-79 91.66 -79 92.32 -79 93 C-80.32 93 -81.64 93 -83 93 C-83 92.34 -83 91.68 -83 91 C-81.56705502 90.15885829 -80.12845595 89.32734313 -78.6875 88.5 C-77.48673828 87.80390625 -77.48673828 87.80390625 -76.26171875 87.09375 C-74 86 -74 86 -71 86 C-71 85.34 -71 84.68 -71 84 C-68.525 83.01 -68.525 83.01 -66 82 C-66 81.34 -66 80.68 -66 80 C-65.030625 79.484375 -64.06125 78.96875 -63.0625 78.4375 C-56.96348498 74.94352986 -51.45194876 70.60698006 -46.5625 65.5625 C-45.716875 64.716875 -44.87125 63.87125 -44 63 C-43.34 63 -42.68 63 -42 63 C-41.67 62.01 -41.34 61.02 -41 60 C-40.34 60 -39.68 60 -39 60 C-38.731875 59.40058594 -38.46375 58.80117188 -38.1875 58.18359375 C-36.98294983 55.96864788 -35.85458345 54.74321625 -34 53.0625 C-23.586818 42.95303581 -14.66689584 29.82274043 -8 17 C-7.64035156 16.3090625 -7.28070312 15.618125 -6.91015625 14.90625 C-4.75357344 10.67446487 -2.83889217 6.3783147 -1 2 C-0.67 1.34 -0.34 0.68 0 0 Z " fill="#323232" transform="translate(689,229)"/>
<path d="M0 0 C0.66 0 1.32 0 2 0 C2.8353125 1.64935547 2.8353125 1.64935547 3.6875 3.33203125 C11.84720571 19.23669519 25.72785739 43.9092858 44 50 C44 50.66 44 51.32 44 52 C44.81210937 52.37511719 44.81210937 52.37511719 45.640625 52.7578125 C48.50076595 54.2636483 51.08529659 56.04560517 53.75 57.875 C58.38808693 60.99722437 62.9348986 63.64834578 68 66 C69.3352086 66.66290286 70.66900992 67.32866728 72 68 C72 68.66 72 69.32 72 70 C70.68 70 69.36 70 68 70 C68 69.34 68 68.68 68 68 C66.68 68 65.36 68 64 68 C64 67.34 64 66.68 64 66 C62.68 66 61.36 66 60 66 C60 65.34 60 64.68 60 64 C58.68 64 57.36 64 56 64 C56 63.34 56 62.68 56 62 C55.34 62 54.68 62 54 62 C54 61.34 54 60.68 54 60 C52.68 60 51.36 60 50 60 C50 59.34 50 58.68 50 58 C48.68 58 47.36 58 46 58 C46 57.34 46 56.68 46 56 C45.34 56 44.68 56 44 56 C44 55.34 44 54.68 44 54 C43.34 54 42.68 54 42 54 C42 53.34 42 52.68 42 52 C40.68 52 39.36 52 38 52 C38 51.34 38 50.68 38 50 C37.34 50 36.68 50 36 50 C36 49.34 36 48.68 36 48 C35.34 48 34.68 48 34 48 C34 47.34 34 46.68 34 46 C33.34 46 32.68 46 32 46 C32 45.34 32 44.68 32 44 C31.34 44 30.68 44 30 44 C30 43.34 30 42.68 30 42 C29.34 42 28.68 42 28 42 C28 41.34 28 40.68 28 40 C27.34 40 26.68 40 26 40 C26 39.34 26 38.68 26 38 C25.34 38 24.68 38 24 38 C24 37.34 24 36.68 24 36 C23.34 36 22.68 36 22 36 C22 35.34 22 34.68 22 34 C21.34 34 20.68 34 20 34 C20 33.34 20 32.68 20 32 C19.34 32 18.68 32 18 32 C18 31.34 18 30.68 18 30 C17.34 30 16.68 30 16 30 C16 29.34 16 28.68 16 28 C15.34 28 14.68 28 14 28 C14 27.34 14 26.68 14 26 C13.34 26 12.68 26 12 26 C12 24.68 12 23.36 12 22 C11.34 22 10.68 22 10 22 C10 20.68 10 19.36 10 18 C9.34 18 8.68 18 8 18 C8 17.34 8 16.68 8 16 C7.34 16 6.68 16 6 16 C6 14.68 6 13.36 6 12 C5.34 12 4.68 12 4 12 C4 10.68 4 9.36 4 8 C3.34 8 2.68 8 2 8 C2 6.68 2 5.36 2 4 C1.34 4 0.68 4 0 4 C0 2.68 0 1.36 0 0 Z " fill="#1B1B1B" transform="translate(384,252)"/>
<path d="M0 0 C0.33 0 0.66 0 1 0 C1.07516846 0.68288086 1.15033691 1.36576172 1.2277832 2.06933594 C3.39120917 28.09859342 3.39120917 28.09859342 9.24609375 53.421875 C10.51111325 57.74784843 11.1898191 62.20005638 11.91015625 66.64550781 C12.54727582 70.75003987 12.54727582 70.75003987 15 74 C15.125 76.625 15.125 76.625 15 79 C15.66 79 16.32 79 17 79 C17.18175781 80.00160156 17.36351563 81.00320313 17.55078125 82.03515625 C17.80426549 83.37768391 18.05819568 84.72012743 18.3125 86.0625 C18.48942383 87.04766602 18.48942383 87.04766602 18.66992188 88.05273438 C19.7133075 93.48369034 20.98713774 98.98713774 25 103 C25.8515625 104.8046875 25.8515625 104.8046875 26.625 106.875 C26.88539062 107.55304688 27.14578125 108.23109375 27.4140625 108.9296875 C28 111 28 111 28 115 C27.34 115 26.68 115 26 115 C26 113.68 26 112.36 26 111 C25.34 111 24.68 111 24 111 C24 109.68 24 108.36 24 107 C23.34 107 22.68 107 22 107 C22 105.68 22 104.36 22 103 C21.34 103 20.68 103 20 103 C20 101.02 20 99.04 20 97 C19.34 97 18.68 97 18 97 C18 95.68 18 94.36 18 93 C17.34 93 16.68 93 16 93 C16 90.36 16 87.72 16 85 C15.34 85 14.68 85 14 85 C14 83.02 14 81.04 14 79 C13.34 79 12.68 79 12 79 C12 77.02 12 75.04 12 73 C11.34 73 10.68 73 10 73 C10 70.36 10 67.72 10 65 C9.34 65 8.68 65 8 65 C8 62.36 8 59.72 8 57 C7.34 57 6.68 57 6 57 C6 55.02 6 53.04 6 51 C5.34 51 4.68 51 4 51 C4 45.06 4 39.12 4 33 C3.34 33 2.68 33 2 33 C2 28.38 2 23.76 2 19 C1.34 19 0.68 19 0 19 C0 12.73 0 6.46 0 0 Z " fill="#575757" transform="translate(2,679)"/>
<path d="M0 0 C0.66 0 1.32 0 2 0 C1.54055693 3.67554457 0.98782675 7.04412803 0 10.625 C-1.28801756 15.46222152 -1.47370071 20.35904723 -1.75390625 25.33984375 C-2 28 -2 28 -3 29 C-3.10927859 30.66402888 -3.14907571 32.33267449 -3.16113281 34.00024414 C-3.17554413 35.60440941 -3.17554413 35.60440941 -3.19024658 37.24098206 C-3.19449646 38.41055954 -3.19874634 39.58013702 -3.203125 40.78515625 C-3.20882507 41.98877304 -3.21452515 43.19238983 -3.22039795 44.43247986 C-3.22987495 46.99574907 -3.23639257 49.55903061 -3.24023438 52.12231445 C-3.24982993 55.99388017 -3.28078112 59.86488971 -3.3125 63.73632812 C-3.36617109 76.5877469 -2.92145755 88.4758481 0 101 C0 101.99 0 102.98 0 104 C-0.66 104 -1.32 104 -2 104 C-2 102.02 -2 100.04 -2 98 C-2.66 98 -3.32 98 -4 98 C-4 94.7 -4 91.4 -4 88 C-4.66 88 -5.32 88 -6 88 C-6 65.56 -6 43.12 -6 20 C-5.34 20 -4.68 20 -4 20 C-4 16.7 -4 13.4 -4 10 C-3.34 10 -2.68 10 -2 10 C-2 8.68 -2 7.36 -2 6 C-1.34 6 -0.68 6 0 6 C0 4.02 0 2.04 0 0 Z " fill="#D4D4D4" transform="translate(370,110)"/>
<path d="M0 0 C0.66 0 1.32 0 2 0 C2.40992188 0.84304688 2.81984375 1.68609375 3.2421875 2.5546875 C3.78101563 3.65039062 4.31984375 4.74609375 4.875 5.875 C5.67550781 7.51082031 5.67550781 7.51082031 6.4921875 9.1796875 C7.84535937 12.03882547 7.84535937 12.03882547 10 14 C10.2475 14.8353125 10.495 15.670625 10.75 16.53125 C12.48006374 21.33217689 15.18475666 25.26568111 18 29.5 C18.58305908 30.38494141 19.16611816 31.26988281 19.7668457 32.18164062 C27.59496443 44.00041793 35.74798351 55.25191276 45 66 C44.01 66.495 44.01 66.495 43 67 C42.01 66.67 41.02 66.34 40 66 C40 65.34 40 64.68 40 64 C39.34 64 38.68 64 38 64 C38 63.34 38 62.68 38 62 C37.34 62 36.68 62 36 62 C36 61.34 36 60.68 36 60 C35.34 60 34.68 60 34 60 C34 58.68 34 57.36 34 56 C33.34 56 32.68 56 32 56 C32 55.34 32 54.68 32 54 C31.34 54 30.68 54 30 54 C30 53.34 30 52.68 30 52 C29.34 52 28.68 52 28 52 C28 50.68 28 49.36 28 48 C27.34 48 26.68 48 26 48 C26 47.34 26 46.68 26 46 C25.34 46 24.68 46 24 46 C24 44.68 24 43.36 24 42 C23.34 42 22.68 42 22 42 C22 41.34 22 40.68 22 40 C21.34 40 20.68 40 20 40 C20 38.68 20 37.36 20 36 C19.34 36 18.68 36 18 36 C18 35.34 18 34.68 18 34 C17.34 34 16.68 34 16 34 C16 32.68 16 31.36 16 30 C15.34 30 14.68 30 14 30 C14 29.34 14 28.68 14 28 C13.34 28 12.68 28 12 28 C12 26.68 12 25.36 12 24 C11.34 24 10.68 24 10 24 C10 22.68 10 21.36 10 20 C9.34 20 8.68 20 8 20 C8 18.68 8 17.36 8 16 C7.34 16 6.68 16 6 16 C6 15.34 6 14.68 6 14 C5.34 14 4.68 14 4 14 C4 12.68 4 11.36 4 10 C3.34 10 2.68 10 2 10 C2 8.68 2 7.36 2 6 C1.34 6 0.68 6 0 6 C0 4.02 0 2.04 0 0 Z " fill="#2A2A2A" transform="translate(30,794)"/>
<path d="M0 0 C0.99 0.33 1.98 0.66 3 1 C2.23816406 1.73863281 1.47632813 2.47726562 0.69140625 3.23828125 C-6.03011427 9.81767462 -12.17502163 16.60012007 -18 24 C-18.75796875 24.92554688 -19.5159375 25.85109375 -20.296875 26.8046875 C-21.02390625 27.69414062 -21.7509375 28.58359375 -22.5 29.5 C-23.1496875 30.2940625 -23.799375 31.088125 -24.46875 31.90625 C-26.17441267 34.01527847 -26.17441267 34.01527847 -27 37 C-27.70125 37.66 -28.4025 38.32 -29.125 39 C-34.8915612 44.53255582 -38.72827826 52.13757793 -42.1640625 59.2734375 C-43.30244919 61.62468477 -44.51958155 63.84666408 -46 66 C-46.66 66 -47.32 66 -48 66 C-48 64.68 -48 63.36 -48 62 C-47.34 62 -46.68 62 -46 62 C-46 60.68 -46 59.36 -46 58 C-45.34 58 -44.68 58 -44 58 C-44 56.68 -44 55.36 -44 54 C-43.34 54 -42.68 54 -42 54 C-42 53.34 -42 52.68 -42 52 C-41.34 52 -40.68 52 -40 52 C-40 50.68 -40 49.36 -40 48 C-39.34 48 -38.68 48 -38 48 C-38 47.34 -38 46.68 -38 46 C-37.34 46 -36.68 46 -36 46 C-36 44.68 -36 43.36 -36 42 C-35.34 42 -34.68 42 -34 42 C-34 41.34 -34 40.68 -34 40 C-33.34 40 -32.68 40 -32 40 C-32 38.68 -32 37.36 -32 36 C-31.34 36 -30.68 36 -30 36 C-30 35.34 -30 34.68 -30 34 C-29.34 34 -28.68 34 -28 34 C-28 33.34 -28 32.68 -28 32 C-27.34 32 -26.68 32 -26 32 C-26 30.68 -26 29.36 -26 28 C-25.34 28 -24.68 28 -24 28 C-24 27.34 -24 26.68 -24 26 C-23.34 26 -22.68 26 -22 26 C-22 24.68 -22 23.36 -22 22 C-21.34 22 -20.68 22 -20 22 C-20 21.34 -20 20.68 -20 20 C-19.34 20 -18.68 20 -18 20 C-18 19.34 -18 18.68 -18 18 C-17.34 18 -16.68 18 -16 18 C-16 17.34 -16 16.68 -16 16 C-15.34 16 -14.68 16 -14 16 C-14 15.34 -14 14.68 -14 14 C-13.34 14 -12.68 14 -12 14 C-12 13.34 -12 12.68 -12 12 C-11.34 12 -10.68 12 -10 12 C-10 11.34 -10 10.68 -10 10 C-9.34 10 -8.68 10 -8 10 C-8 9.34 -8 8.68 -8 8 C-7.34 8 -6.68 8 -6 8 C-6 7.34 -6 6.68 -6 6 C-5.34 6 -4.68 6 -4 6 C-4 5.34 -4 4.68 -4 4 C-3.34 4 -2.68 4 -2 4 C-2 3.34 -2 2.68 -2 2 C-1.34 2 -0.68 2 0 2 C0 1.34 0 0.68 0 0 Z " fill="#181818" transform="translate(80,464)"/>
<path d="M0 0 C11.55 0 23.1 0 35 0 C35 0.33 35 0.66 35 1 C34.27748047 1.04487549 33.55496094 1.08975098 32.81054688 1.13598633 C3.95496279 2.96566368 -24.38346648 6.10266179 -52.3984375 13.4140625 C-55 14 -55 14 -58 14 C-58 13.34 -58 12.68 -58 12 C-56.68 12 -55.36 12 -54 12 C-54 11.34 -54 10.68 -54 10 C-51.36 10 -48.72 10 -46 10 C-46 9.34 -46 8.68 -46 8 C-43.36 8 -40.72 8 -38 8 C-38 7.34 -38 6.68 -38 6 C-35.36 6 -32.72 6 -30 6 C-30 5.34 -30 4.68 -30 4 C-23.4 4 -16.8 4 -10 4 C-10 3.34 -10 2.68 -10 2 C-6.7 2 -3.4 2 0 2 C0 1.34 0 0.68 0 0 Z " fill="#3F3F3F" transform="translate(288,364)"/>
<path d="M0 0 C0.66 0 1.32 0 2 0 C2 1.98 2 3.96 2 6 C2.66 6 3.32 6 4 6 C4 8.64 4 11.28 4 14 C4.66 14 5.32 14 6 14 C6 17.3 6 20.6 6 24 C6.66 24 7.32 24 8 24 C8 43.14 8 62.28 8 82 C7.34 82 6.68 82 6 82 C5.98969254 81.33316193 5.97938507 80.66632385 5.96876526 79.97927856 C5.86010561 73.00302494 5.74556067 66.02688512 5.62768555 59.05078125 C5.5845262 56.45152175 5.54283879 53.85223736 5.50268555 51.25292969 C5.44451997 47.50448117 5.38096166 43.75615577 5.31640625 40.0078125 C5.29969376 38.85636749 5.28298126 37.70492249 5.26576233 36.51858521 C5.12794874 23.46651802 5.12794874 23.46651802 1.69921875 11.02734375 C0.46746272 7.45593939 0.25174783 3.75017464 0 0 Z " fill="#878787" transform="translate(692,110)"/>
<path d="M0 0 C0.33 0 0.66 0 1 0 C1 2.31 1 4.62 1 7 C0.34 7 -0.32 7 -1 7 C-1 8.32 -1 9.64 -1 11 C-1.66 11 -2.32 11 -3 11 C-3 12.32 -3 13.64 -3 15 C-3.66 15 -4.32 15 -5 15 C-5 16.32 -5 17.64 -5 19 C-5.66 19 -6.32 19 -7 19 C-7 20.32 -7 21.64 -7 23 C-7.66 23 -8.32 23 -9 23 C-9 24.32 -9 25.64 -9 27 C-9.66 27 -10.32 27 -11 27 C-11 28.32 -11 29.64 -11 31 C-11.66 31 -12.32 31 -13 31 C-13 31.66 -13 32.32 -13 33 C-13.66 33 -14.32 33 -15 33 C-15 34.32 -15 35.64 -15 37 C-15.66 37 -16.32 37 -17 37 C-17 37.66 -17 38.32 -17 39 C-17.66 39 -18.32 39 -19 39 C-19 39.66 -19 40.32 -19 41 C-19.66 41 -20.32 41 -21 41 C-21 42.32 -21 43.64 -21 45 C-21.66 45 -22.32 45 -23 45 C-23 45.66 -23 46.32 -23 47 C-23.66 47 -24.32 47 -25 47 C-25 47.66 -25 48.32 -25 49 C-25.99 48.67 -26.98 48.34 -28 48 C-26.90073597 46.22611914 -25.79539498 44.45600316 -24.6875 42.6875 C-24.07261719 41.70136719 -23.45773437 40.71523438 -22.82421875 39.69921875 C-21.31418331 37.46488366 -19.88058686 35.88058686 -18 34 C-16.95971747 32.35817479 -15.96352451 30.68801608 -15 29 C-14.16662109 27.59814453 -14.16662109 27.59814453 -13.31640625 26.16796875 C-8.6762689 18.28283558 -4.54030266 10.42929205 -1 2 C-0.67 1.34 -0.34 0.68 0 0 Z " fill="#2A2A2A" transform="translate(689,229)"/>
<path d="M0 0 C0.66 0 1.32 0 2 0 C1.01 3.3 0.02 6.6 -1 10 C-1.66 10 -2.32 10 -3 10 C-3.103125 10.70125 -3.20625 11.4025 -3.3125 12.125 C-4 15 -4 15 -5.4375 17.6875 C-7.47415692 22.00521268 -8.21315673 26.3159683 -9 31 C-9.66 31 -10.32 31 -11 31 C-11.1340625 31.55300781 -11.268125 32.10601563 -11.40625 32.67578125 C-12.05049562 35.19766377 -12.76256647 37.69128751 -13.5 40.1875 C-13.7578125 41.06792969 -14.015625 41.94835937 -14.28125 42.85546875 C-15 45 -15 45 -16 46 C-16.3931648 47.67884238 -16.74085452 49.36850045 -17.0625 51.0625 C-17.23910156 51.98160156 -17.41570313 52.90070312 -17.59765625 53.84765625 C-17.73042969 54.55792969 -17.86320312 55.26820313 -18 56 C-18.66 56 -19.32 56 -20 56 C-20 53.36 -20 50.72 -20 48 C-19.34 48 -18.68 48 -18 48 C-18 46.02 -18 44.04 -18 42 C-17.34 42 -16.68 42 -16 42 C-16 40.02 -16 38.04 -16 36 C-15.34 36 -14.68 36 -14 36 C-14 34.02 -14 32.04 -14 30 C-13.34 30 -12.68 30 -12 30 C-12 28.68 -12 27.36 -12 26 C-11.34 26 -10.68 26 -10 26 C-10 24.02 -10 22.04 -10 20 C-9.34 20 -8.68 20 -8 20 C-8 18.02 -8 16.04 -8 14 C-7.34 14 -6.68 14 -6 14 C-6 12.68 -6 11.36 -6 10 C-5.34 10 -4.68 10 -4 10 C-4 8.68 -4 7.36 -4 6 C-3.34 6 -2.68 6 -2 6 C-2 5.34 -2 4.68 -2 4 C-1.34 4 -0.68 4 0 4 C0 2.68 0 1.36 0 0 Z " fill="#212121" transform="translate(28,534)"/>
<path d="M0 0 C0 0.66 0 1.32 0 2 C-1.98 2 -3.96 2 -6 2 C-6 2.66 -6 3.32 -6 4 C-9.3 4 -12.6 4 -16 4 C-16 4.66 -16 5.32 -16 6 C-24.58 6 -33.16 6 -42 6 C-42 6.66 -42 7.32 -42 8 C-51.24 8 -60.48 8 -70 8 C-70 7.34 -70 6.68 -70 6 C-72.64 6 -75.28 6 -78 6 C-78 5.34 -78 4.68 -78 4 C-77.46117187 4.0721875 -76.92234375 4.144375 -76.3671875 4.21875 C-65.94489038 5.394934 -55.47002667 5.16965739 -45 5 C-44.14132324 4.98743164 -43.28264648 4.97486328 -42.39794922 4.96191406 C-29.66094442 4.71769053 -17.51071664 2.93263776 -5.04272461 0.35131836 C-3 0 -3 0 0 0 Z " fill="#525252" transform="translate(578,332)"/>
<path d="M0 0 C3.37462715 0.54723683 5.08235 1.0549 8 3 C8 3.66 8 4.32 8 5 C10.97 5.495 10.97 5.495 14 6 C14 6.66 14 7.32 14 8 C15.051875 8.1546875 15.051875 8.1546875 16.125 8.3125 C21.68830405 9.64285532 25.61928469 12.44806866 30 16 C30.99 16.33 31.98 16.66 33 17 C33 17.66 33 18.32 33 19 C34.0725 19.0825 35.145 19.165 36.25 19.25 C40.2738451 20.05476902 41.48169253 20.87729874 44 24 C42.02 24 40.04 24 38 24 C38 23.34 38 22.68 38 22 C36.68 22 35.36 22 34 22 C34 21.34 34 20.68 34 20 C32.68 20 31.36 20 30 20 C30 19.34 30 18.68 30 18 C28.68 18 27.36 18 26 18 C26 17.34 26 16.68 26 16 C25.34 16 24.68 16 24 16 C24 15.34 24 14.68 24 14 C22.68 14 21.36 14 20 14 C20 13.34 20 12.68 20 12 C18.68 12 17.36 12 16 12 C16 11.34 16 10.68 16 10 C14.68 10 13.36 10 12 10 C12 9.34 12 8.68 12 8 C10.68 8 9.36 8 8 8 C8 7.34 8 6.68 8 6 C7.34 6 6.68 6 6 6 C6 5.34 6 4.68 6 4 C4.68 4 3.36 4 2 4 C2 3.34 2 2.68 2 2 C1.34 2 0.68 2 0 2 C0 1.34 0 0.68 0 0 Z " fill="#2D2D2D" transform="translate(138,916)"/>
<path d="M0 0 C1.32 0 2.64 0 4 0 C4 0.66 4 1.32 4 2 C5.98 2 7.96 2 10 2 C10 2.66 10 3.32 10 4 C11.32 4 12.64 4 14 4 C14 4.66 14 5.32 14 6 C14.66 6 15.32 6 16 6 C16 6.66 16 7.32 16 8 C17.32 8 18.64 8 20 8 C20 8.66 20 9.32 20 10 C20.66 10 21.32 10 22 10 C22 10.66 22 11.32 22 12 C23.32 12 24.64 12 26 12 C26 12.66 26 13.32 26 14 C26.66 14 27.32 14 28 14 C28 14.66 28 15.32 28 16 C29.32 16 30.64 16 32 16 C32 16.66 32 17.32 32 18 C33.32 18 34.64 18 36 18 C36 18.66 36 19.32 36 20 C36.66 20 37.32 20 38 20 C38.0825 20.61875 38.165 21.2375 38.25 21.875 C38.81258459 24.18437567 38.81258459 24.18437567 41.0625 25.25 C41.701875 25.4975 42.34125 25.745 43 26 C40 26 40 26 37 25 C37 24.34 37 23.68 37 23 C36.27425781 22.73832031 35.54851563 22.47664063 34.80078125 22.20703125 C31.93600054 20.97241864 29.70444655 19.52133343 27.1875 17.6875 C23.35832947 14.93187503 19.48014123 12.40648494 15.3984375 10.04296875 C14.93695312 9.69878906 14.47546875 9.35460938 14 9 C14 8.34 14 7.68 14 7 C10.7 6.34 7.4 5.68 4 5 C4 4.34 4 3.68 4 3 C2.68 3 1.36 3 0 3 C0 2.01 0 1.02 0 0 Z " fill="#373737" transform="translate(598,12)"/>
<path d="M0 0 C4.62 0 9.24 0 14 0 C14 0.33 14 0.66 14 1 C11.02194722 1.65135437 8.04271741 2.29618739 5.0625 2.9375 C4.23169922 3.11990234 3.40089844 3.30230469 2.54492188 3.49023438 C-2.29005532 4.52495712 -7.06601321 5.32115886 -11.98828125 5.79882812 C-15.00769967 6.10076997 -17.9989933 6.55304155 -21 7 C-21 7.66 -21 8.32 -21 9 C-21.94875 9.165 -22.8975 9.33 -23.875 9.5 C-29.51047996 11.05062488 -33.66917891 15.25301194 -38 19 C-38.66 18.67 -39.32 18.34 -40 18 C-40 17.34 -40 16.68 -40 16 C-39.34 16 -38.68 16 -38 16 C-38 15.34 -38 14.68 -38 14 C-37.34 14 -36.68 14 -36 14 C-36 13.34 -36 12.68 -36 12 C-34.68 12 -33.36 12 -32 12 C-32 11.34 -32 10.68 -32 10 C-31.34 10 -30.68 10 -30 10 C-30 9.34 -30 8.68 -30 8 C-28.02 8 -26.04 8 -24 8 C-24 7.34 -24 6.68 -24 6 C-22.02 6 -20.04 6 -18 6 C-18 5.34 -18 4.68 -18 4 C-15.36 4 -12.72 4 -10 4 C-10 3.34 -10 2.68 -10 2 C-6.7 2 -3.4 2 0 2 C0 1.34 0 0.68 0 0 Z " fill="#0E0E0E" transform="translate(482,2)"/>
<path d="M0 0 C4.67194948 1.39498138 6.6775092 3.62399386 9.625 7.4375 C13.90292773 13.4269517 13.90292773 13.4269517 20 17 C21.68359375 18.671875 21.68359375 18.671875 23.4375 20.75 C24.0459375 21.46671875 24.654375 22.1834375 25.28125 22.921875 C27.21515601 25.26014318 29.13184428 27.60876067 31 30 C30.01 30 29.02 30 28 30 C28 29.34 28 28.68 28 28 C27.34 28 26.68 28 26 28 C26 27.34 26 26.68 26 26 C24.68 26 23.36 26 22 26 C22 25.34 22 24.68 22 24 C21.34 24 20.68 24 20 24 C20 23.34 20 22.68 20 22 C19.34 22 18.68 22 18 22 C18 21.34 18 20.68 18 20 C17.34 20 16.68 20 16 20 C16 19.34 16 18.68 16 18 C15.34 18 14.68 18 14 18 C14 17.34 14 16.68 14 16 C13.34 16 12.68 16 12 16 C12 15.34 12 14.68 12 14 C11.34 14 10.68 14 10 14 C10 13.34 10 12.68 10 12 C9.34 12 8.68 12 8 12 C8 11.34 8 10.68 8 10 C7.34 10 6.68 10 6 10 C6 9.34 6 8.68 6 8 C5.34 8 4.68 8 4 8 C4 7.34 4 6.68 4 6 C3.34 6 2.68 6 2 6 C2 5.34 2 4.68 2 4 C1.34 4 0.68 4 0 4 C0 2.68 0 1.36 0 0 Z " fill="#141414" transform="translate(72,860)"/>
<path d="M0 0 C4.3177458 0.50797009 8.03302114 1.19682779 12 3 C12 3.66 12 4.32 12 5 C13.43721757 5.29305521 14.87479827 5.58432935 16.3125 5.875 C17.22257812 6.05933594 18.13265625 6.24367188 19.0703125 6.43359375 C21.93601704 6.98762996 24.80775946 7.46286132 27.6875 7.9375 C32.20491712 8.74782765 35.88402923 9.98401432 40 12 C40.804375 12.391875 41.60875 12.78375 42.4375 13.1875 C42.953125 13.455625 43.46875 13.72375 44 14 C41.36 14 38.72 14 36 14 C36 13.34 36 12.68 36 12 C32.04 12 28.08 12 24 12 C24 11.34 24 10.68 24 10 C22.02 10 20.04 10 18 10 C18 9.34 18 8.68 18 8 C16.68 8 15.36 8 14 8 C14 7.34 14 6.68 14 6 C12.02 6 10.04 6 8 6 C8 5.34 8 4.68 8 4 C6.68 4 5.36 4 4 4 C4 3.34 4 2.68 4 2 C2.68 2 1.36 2 0 2 C0 1.34 0 0.68 0 0 Z " fill="#090909" transform="translate(456,322)"/>
<path d="M0 0 C1.74627478 2.61941217 2.38722388 4.03824877 3 7 C3.66 7 4.32 7 5 7 C5.33776684 8.7491497 5.67003671 10.49936145 6 12.25 C6.185625 13.22453125 6.37125 14.1990625 6.5625 15.203125 C7 18 7 18 7 22 C7.66 22 8.32 22 9 22 C9.84212256 23.91282125 10.67338864 25.83042473 11.5 27.75 C11.9640625 28.81734375 12.428125 29.8846875 12.90625 30.984375 C14 34 14 34 14 38 C13.34 38 12.68 38 12 38 C12 36.68 12 35.36 12 34 C11.34 34 10.68 34 10 34 C10 32.68 10 31.36 10 30 C9.34 30 8.68 30 8 30 C8 28.68 8 27.36 8 26 C7.34 26 6.68 26 6 26 C6 24.02 6 22.04 6 20 C5.34 20 4.68 20 4 20 C4 18.68 4 17.36 4 16 C3.34 16 2.68 16 2 16 C2 13.36 2 10.72 2 8 C1.34 8 0.68 8 0 8 C0 5.36 0 2.72 0 0 Z " fill="#181818" transform="translate(370,214)"/>
<path d="M0 0 C0.66 0 1.32 0 2 0 C2.8353125 1.64935547 2.8353125 1.64935547 3.6875 3.33203125 C8.20388157 12.1267231 12.88132039 20.20629724 19 28 C20.00253855 29.33142564 21.00342711 30.66410321 22 32 C20.68 32 19.36 32 18 32 C18 31.34 18 30.68 18 30 C17.34 30 16.68 30 16 30 C16 29.34 16 28.68 16 28 C15.34 28 14.68 28 14 28 C14 27.34 14 26.68 14 26 C13.34 26 12.68 26 12 26 C12 24.68 12 23.36 12 22 C11.34 22 10.68 22 10 22 C10 20.68 10 19.36 10 18 C9.34 18 8.68 18 8 18 C8 17.34 8 16.68 8 16 C7.34 16 6.68 16 6 16 C6 14.68 6 13.36 6 12 C5.34 12 4.68 12 4 12 C4 10.68 4 9.36 4 8 C3.34 8 2.68 8 2 8 C2 6.68 2 5.36 2 4 C1.34 4 0.68 4 0 4 C0 2.68 0 1.36 0 0 Z " fill="#232323" transform="translate(384,252)"/>
<path d="M0 0 C11.55 0 23.1 0 35 0 C35 0.33 35 0.66 35 1 C34.23034912 1.0501123 33.46069824 1.10022461 32.66772461 1.15185547 C13.75807634 2.37294446 13.75807634 2.37294446 -5.046875 4.625 C-9.07269933 5.13621579 -12.94861648 5.14215381 -17 5 C-17 4.67 -17 4.34 -17 4 C-14.69 4 -12.38 4 -10 4 C-10 3.34 -10 2.68 -10 2 C-6.7 2 -3.4 2 0 2 C0 1.34 0 0.68 0 0 Z " fill="#4F4F4F" transform="translate(288,364)"/>
<path d="M0 0 C0.66 0 1.32 0 2 0 C2 0.66 2 1.32 2 2 C2.66 2 3.32 2 4 2 C4 3.32 4 4.64 4 6 C4.66 6 5.32 6 6 6 C6 7.32 6 8.64 6 10 C6.66 10 7.32 10 8 10 C8 11.32 8 12.64 8 14 C8.66 14 9.32 14 10 14 C10 14.66 10 15.32 10 16 C10.66 16 11.32 16 12 16 C12 17.32 12 18.64 12 20 C12.66 20 13.32 20 14 20 C14 21.98 14 23.96 14 26 C14.66 26 15.32 26 16 26 C16 28.31 16 30.62 16 33 C13.66911211 30.12145363 12.16775203 27.38015172 10.8125 23.9375 C10.46832031 23.08027344 10.12414062 22.22304687 9.76953125 21.33984375 C9 19 9 19 9 16 C8.34 16 7.68 16 7 16 C7 15.01 7 14.02 7 13 C6.34 13 5.68 13 5 13 C4.67 11.02 4.34 9.04 4 7 C3.34 7 2.68 7 2 7 C1.34 4.69 0.68 2.38 0 0 Z " fill="#141414" transform="translate(674,70)"/>
<path d="M0 0 C0.99 0 1.98 0 3 0 C2.61533024 4.84886358 2.17753363 9.58479036 1 14.3125 C-0.40092571 20.12529624 -0.65040502 26.04768549 -1 32 C-1.66 32 -2.32 32 -3 32 C-3 34.31 -3 36.62 -3 39 C-3.33 39 -3.66 39 -4 39 C-4 33.39 -4 27.78 -4 22 C-3.34 22 -2.68 22 -2 22 C-2 18.7 -2 15.4 -2 12 C-1.34 12 -0.68 12 0 12 C0 8.04 0 4.08 0 0 Z " fill="#515151" transform="translate(6,590)"/>
<path d="M0 0 C4.95 0 9.9 0 15 0 C15 0.66 15 1.32 15 2 C17.64 2 20.28 2 23 2 C23 2.66 23 3.32 23 4 C24.98 4 26.96 4 29 4 C29 4.66 29 5.32 29 6 C30.32 6 31.64 6 33 6 C33 6.66 33 7.32 33 8 C34.98 8 36.96 8 39 8 C39 8.66 39 9.32 39 10 C34.59884377 9.55090243 31.13502343 8.66147607 27.12890625 6.82421875 C18.57778476 3.51360107 9.02181579 2.38171954 0 1 C0 0.67 0 0.34 0 0 Z " fill="#252525" transform="translate(559,2)"/>
<path d="M0 0 C16.03626932 -0.11862496 31.99010563 0.03906315 48 1 C48 1.66 48 2.32 48 3 C40.08 3 32.16 3 24 3 C24 2.34 24 1.68 24 1 C16.08 1 8.16 1 0 1 C0 0.67 0 0.34 0 0 Z " fill="#6D6D6D" transform="translate(288,967)"/>
<path d="M0 0 C0.33 0 0.66 0 1 0 C1 2.31 1 4.62 1 7 C0.34 7 -0.32 7 -1 7 C-1 8.32 -1 9.64 -1 11 C-1.66 11 -2.32 11 -3 11 C-3 12.32 -3 13.64 -3 15 C-3.66 15 -4.32 15 -5 15 C-5 16.32 -5 17.64 -5 19 C-5.66 19 -6.32 19 -7 19 C-7 20.32 -7 21.64 -7 23 C-7.66 23 -8.32 23 -9 23 C-9 24.32 -9 25.64 -9 27 C-9.99 27 -10.98 27 -12 27 C-12 27.66 -12 28.32 -12 29 C-12.66 28.67 -13.32 28.34 -14 28 C-12.53087883 24.91484555 -11.06430229 22.0891935 -9.0625 19.3125 C-6.72691764 15.56141318 -5.40867814 11.86316775 -4.02734375 7.68359375 C-2.95466879 4.88158731 -1.66385429 2.49352689 0 0 Z " fill="#313131" transform="translate(689,229)"/>
<path d="M0 0 C2.97 0 5.94 0 9 0 C8.67 0.66 8.34 1.32 8 2 C6.35 2 4.7 2 3 2 C3 2.66 3 3.32 3 4 C2.45472656 4.10957031 1.90945312 4.21914063 1.34765625 4.33203125 C-4.25535065 5.51009937 -9.6054387 7.087035 -15 9 C-15 9.66 -15 10.32 -15 11 C-17.31 11.33 -19.62 11.66 -22 12 C-22 11.34 -22 10.68 -22 10 C-20.68 10 -19.36 10 -18 10 C-18 9.34 -18 8.68 -18 8 C-16.68 8 -15.36 8 -14 8 C-14 7.34 -14 6.68 -14 6 C-12.68 6 -11.36 6 -10 6 C-10 5.34 -10 4.68 -10 4 C-8.02 4 -6.04 4 -4 4 C-4 3.34 -4 2.68 -4 2 C-2.68 2 -1.36 2 0 2 C0 1.34 0 0.68 0 0 Z " fill="#2E2E2E" transform="translate(208,382)"/>
<path d="M0 0 C0.66 0 1.32 0 2 0 C2 1.98 2 3.96 2 6 C2.66 6 3.32 6 4 6 C4 8.64 4 11.28 4 14 C4.66 14 5.32 14 6 14 C6 17.3 6 20.6 6 24 C6.66 24 7.32 24 8 24 C8 30.27 8 36.54 8 43 C7.67 43 7.34 43 7 43 C6.88724731 41.88141602 6.88724731 41.88141602 6.7722168 40.74023438 C6.42169071 37.32558567 6.05473289 33.91289072 5.6875 30.5 C5.56955078 29.32695312 5.45160156 28.15390625 5.33007812 26.9453125 C4.61773811 20.44292671 3.49924347 15.03078315 1 9 C0.48828125 6.25 0.48828125 6.25 0.3125 4 C0.24675781 3.236875 0.18101562 2.47375 0.11328125 1.6875 C0.07589844 1.130625 0.03851562 0.57375 0 0 Z " fill="#1A1A1A" transform="translate(692,110)"/>
<path d="M0 0 C0 0.66 0 1.32 0 2 C-1.32 2 -2.64 2 -4 2 C-4 2.66 -4 3.32 -4 4 C-5.32 4 -6.64 4 -8 4 C-8 4.66 -8 5.32 -8 6 C-9.32 6 -10.64 6 -12 6 C-12 6.66 -12 7.32 -12 8 C-13.98 8 -15.96 8 -18 8 C-18 8.66 -18 9.32 -18 10 C-20.64 10 -23.28 10 -26 10 C-26 9.34 -26 8.68 -26 8 C-22.47804567 6.45914498 -18.99271603 5.52109656 -15.2578125 4.640625 C-11.78464222 3.655158 -8.51201187 2.2296566 -5.19921875 0.8046875 C-3 0 -3 0 0 0 Z " fill="#282828" transform="translate(606,322)"/>
<path d="M0 0 C2 1 2 1 2.96484375 3.8359375 C3.61176753 6.18980475 4.25760612 8.54397052 4.90234375 10.8984375 C5.97514721 13.92977539 6.70150039 14.9264858 9 17 C9.94921875 18.90234375 9.94921875 18.90234375 10.6875 20.9375 C10.93886719 21.60652344 11.19023437 22.27554688 11.44921875 22.96484375 C12 25 12 25 12 29 C11.34 29 10.68 29 10 29 C10 27.68 10 26.36 10 25 C9.34 25 8.68 25 8 25 C8 23.68 8 22.36 8 21 C7.34 21 6.68 21 6 21 C6 19.68 6 18.36 6 17 C5.34 17 4.68 17 4 17 C4 15.02 4 13.04 4 11 C3.34 11 2.68 11 2 11 C2 9.68 2 8.36 2 7 C1.34 7 0.68 7 0 7 C0 4.69 0 2.38 0 0 Z " fill="#141414" transform="translate(18,765)"/>
<path d="M0 0 C2.46867919 3.70301878 3.17139872 7.21773497 4.21875 11.50390625 C4.83256908 14.14164397 4.83256908 14.14164397 7 16 C7.125 18.625 7.125 18.625 7 21 C7.66 21 8.32 21 9 21 C9.33 23.64 9.66 26.28 10 29 C8.68 28.34 7.36 27.68 6 27 C6 25.02 6 23.04 6 21 C5.34 21 4.68 21 4 21 C4 19.02 4 17.04 4 15 C3.34 15 2.68 15 2 15 C2 12.36 2 9.72 2 7 C1.34 7 0.68 7 0 7 C0 4.69 0 2.38 0 0 Z " fill="#252525" transform="translate(10,737)"/>
<path d="M0 0 C1.98 0 3.96 0 6 0 C5.2575 0.5775 4.515 1.155 3.75 1.75 C1.05139689 3.85730511 1.05139689 3.85730511 -0.875 6 C-3.10311368 8.09704817 -5.43784714 9.46230981 -8.1171875 10.91796875 C-11.24604319 12.71608706 -14.09366427 14.86473293 -17 17 C-16.67 15.35 -16.34 13.7 -16 12 C-15.34 12 -14.68 12 -14 12 C-14 11.34 -14 10.68 -14 10 C-12.68 10 -11.36 10 -10 10 C-10 9.34 -10 8.68 -10 8 C-9.34 8 -8.68 8 -8 8 C-8 7.34 -8 6.68 -8 6 C-6.68 6 -5.36 6 -4 6 C-4 5.34 -4 4.68 -4 4 C-3.34 4 -2.68 4 -2 4 C-2 3.34 -2 2.68 -2 2 C-1.34 2 -0.68 2 0 2 C0 1.34 0 0.68 0 0 Z " fill="#101010" transform="translate(122,428)"/>
<path d="M0 0 C0.66 0 1.32 0 2 0 C1.35812082 5.13503344 0.31727753 9.9943454 -1 15 C-1.66 15 -2.32 15 -3 15 C-2.95875 16.03125 -2.9175 17.0625 -2.875 18.125 C-2.85205195 24.48160948 -4.01479488 30.7369103 -5 37 C-5.33 37 -5.66 37 -6 37 C-6 31.39 -6 25.78 -6 20 C-5.34 20 -4.68 20 -4 20 C-4 16.7 -4 13.4 -4 10 C-3.34 10 -2.68 10 -2 10 C-2 8.68 -2 7.36 -2 6 C-1.34 6 -0.68 6 0 6 C0 4.02 0 2.04 0 0 Z " fill="#343434" transform="translate(370,110)"/>
<path d="M0 0 C0.66 0 1.32 0 2 0 C2.40992188 0.84304688 2.81984375 1.68609375 3.2421875 2.5546875 C3.78101563 3.65039062 4.31984375 4.74609375 4.875 5.875 C5.67550781 7.51082031 5.67550781 7.51082031 6.4921875 9.1796875 C7.84535937 12.03882547 7.84535937 12.03882547 10 14 C10.71927295 16.31765729 11.3909893 18.65095874 12 21 C10.68 20.67 9.36 20.34 8 20 C8 18.68 8 17.36 8 16 C7.34 16 6.68 16 6 16 C6 15.34 6 14.68 6 14 C5.34 14 4.68 14 4 14 C4 12.68 4 11.36 4 10 C3.34 10 2.68 10 2 10 C2 8.68 2 7.36 2 6 C1.34 6 0.68 6 0 6 C0 4.02 0 2.04 0 0 Z " fill="#1D1D1D" transform="translate(30,794)"/>
<path d="M0 0 C1.32 0 2.64 0 4 0 C4 0.66 4 1.32 4 2 C5.98 2 7.96 2 10 2 C10 2.66 10 3.32 10 4 C11.32 4 12.64 4 14 4 C14 4.66 14 5.32 14 6 C14.66 6 15.32 6 16 6 C16 6.66 16 7.32 16 8 C17.32 8 18.64 8 20 8 C20 8.66 20 9.32 20 10 C20.66 10 21.32 10 22 10 C21.67 10.66 21.34 11.32 21 12 C18.69 11.01 16.38 10.02 14 9 C14 8.34 14 7.68 14 7 C10.7 6.34 7.4 5.68 4 5 C4 4.34 4 3.68 4 3 C2.68 3 1.36 3 0 3 C0 2.01 0 1.02 0 0 Z " fill="#101010" transform="translate(598,12)"/>
<path d="M0 0 C0.66 0 1.32 0 2 0 C1.01 3.3 0.02 6.6 -1 10 C-1.66 10 -2.32 10 -3 10 C-3.11214844 10.71542969 -3.22429688 11.43085937 -3.33984375 12.16796875 C-4.04456005 15.19115998 -5.13287798 17.56322688 -6.5625 20.3125 C-7.01753906 21.19550781 -7.47257812 22.07851563 -7.94140625 22.98828125 C-8.46541016 23.98408203 -8.46541016 23.98408203 -9 25 C-9.33 25 -9.66 25 -10 25 C-10 23.35 -10 21.7 -10 20 C-9.34 20 -8.68 20 -8 20 C-8 18.02 -8 16.04 -8 14 C-7.34 14 -6.68 14 -6 14 C-6 12.68 -6 11.36 -6 10 C-5.34 10 -4.68 10 -4 10 C-4 8.68 -4 7.36 -4 6 C-3.34 6 -2.68 6 -2 6 C-2 5.34 -2 4.68 -2 4 C-1.34 4 -0.68 4 0 4 C0 2.68 0 1.36 0 0 Z " fill="#232323" transform="translate(28,534)"/>
<path d="M0 0 C0 0.66 0 1.32 0 2 C-1.98 2 -3.96 2 -6 2 C-6 2.66 -6 3.32 -6 4 C-9.3 4 -12.6 4 -16 4 C-16 4.66 -16 5.32 -16 6 C-21.28 6 -26.56 6 -32 6 C-32 5.67 -32 5.34 -32 5 C-27.92544453 4.28469845 -23.8503259 3.57270711 -19.7746582 2.86376953 C-18.38843185 2.62216499 -17.00236234 2.37965872 -15.61645508 2.13623047 C-13.62362537 1.78636069 -11.63017908 1.44000862 -9.63671875 1.09375 C-8.43748779 0.88427734 -7.23825684 0.67480469 -6.00268555 0.45898438 C-3 0 -3 0 0 0 Z " fill="#363636" transform="translate(578,332)"/>
<path d="M0 0 C0.99 0 1.98 0 3 0 C3 0.66 3 1.32 3 2 C3.66 2 4.32 2 5 2 C5 2.66 5 3.32 5 4 C6.32 4 7.64 4 9 4 C9 4.66 9 5.32 9 6 C10.32 6 11.64 6 13 6 C13 6.66 13 7.32 13 8 C13.66 8 14.32 8 15 8 C15 8.66 15 9.32 15 10 C15.66 10 16.32 10 17 10 C17.33 11.98 17.66 13.96 18 16 C17.54109375 15.59007812 17.0821875 15.18015625 16.609375 14.7578125 C15.68898438 13.94957031 15.68898438 13.94957031 14.75 13.125 C14.14671875 12.59132813 13.5434375 12.05765625 12.921875 11.5078125 C11.02581254 10.0202513 9.18709995 8.99677564 7 8 C7 7.34 7 6.68 7 6 C6.401875 5.71125 5.80375 5.4225 5.1875 5.125 C3 4 3 4 0 2 C0 1.34 0 0.68 0 0 Z " fill="#2A2A2A" transform="translate(637,34)"/>
<path d="M0 0 C1.65 0 3.3 0 5 0 C4.67 0.66 4.34 1.32 4 2 C0.9375 2.625 0.9375 2.625 -2 3 C-2 3.66 -2 4.32 -2 5 C-8.75 9 -8.75 9 -11 9 C-11 9.66 -11 10.32 -11 11 C-13.31 11.33 -15.62 11.66 -18 12 C-18 11.34 -18 10.68 -18 10 C-17.34 10 -16.68 10 -16 10 C-16 9.34 -16 8.68 -16 8 C-14.68 8 -13.36 8 -12 8 C-12 7.34 -12 6.68 -12 6 C-10.68 6 -9.36 6 -8 6 C-8 5.34 -8 4.68 -8 4 C-6.68 4 -5.36 4 -4 4 C-4 3.34 -4 2.68 -4 2 C-2.68 2 -1.36 2 0 2 C0 1.34 0 0.68 0 0 Z " fill="#242424" transform="translate(180,394)"/>
<path d="M0 0 C0 0.66 0 1.32 0 2 C-0.66 2 -1.32 2 -2 2 C-2 2.66 -2 3.32 -2 4 C-2.66 4 -3.32 4 -4 4 C-4 4.66 -4 5.32 -4 6 C-5.32 6 -6.64 6 -8 6 C-8 6.66 -8 7.32 -8 8 C-9.32 8 -10.64 8 -12 8 C-12 8.66 -12 9.32 -12 10 C-13.32 10 -14.64 10 -16 10 C-16 10.66 -16 11.32 -16 12 C-17.32 12 -18.64 12 -20 12 C-20 11.34 -20 10.68 -20 10 C-18.56705502 9.15885829 -17.12845595 8.32734313 -15.6875 7.5 C-14.88699219 7.0359375 -14.08648438 6.571875 -13.26171875 6.09375 C-11 5 -11 5 -8 5 C-8 4.34 -8 3.68 -8 3 C-2.25 0 -2.25 0 0 0 Z " fill="#1F1F1F" transform="translate(626,310)"/>
<path d="M0 0 C0.66 0 1.32 0 2 0 C2 2.31 2 4.62 2 7 C1.34 7 0.68 7 0 7 C0 10.96 0 14.92 0 19 C-0.66 19 -1.32 19 -2 19 C-2 20.98 -2 22.96 -2 25 C-2.66 25 -3.32 25 -4 25 C-3.72073847 21.76963557 -3.42439547 18.54105565 -3.125 15.3125 C-3.04636719 14.40048828 -2.96773437 13.48847656 -2.88671875 12.54882812 C-2.46134843 8.04971897 -2.05576087 4.10288408 0 0 Z " fill="#5C5C5C" transform="translate(696,197)"/>
<path d="M0 0 C3.53191322 3.43153914 6.7137505 6.97375062 9.8125 10.8125 C10.60269531 11.78832031 11.39289063 12.76414062 12.20703125 13.76953125 C13.09455078 14.87361328 13.09455078 14.87361328 14 16 C13.34 16.33 12.68 16.66 12 17 C11.01 16.67 10.02 16.34 9 16 C9 15.34 9 14.68 9 14 C8.34 14 7.68 14 7 14 C7 13.34 7 12.68 7 12 C6.34 12 5.68 12 5 12 C5 11.34 5 10.68 5 10 C4.34 10 3.68 10 3 10 C3 8.68 3 7.36 3 6 C2.34 6 1.68 6 1 6 C0.67 4.02 0.34 2.04 0 0 Z " fill="#292929" transform="translate(61,844)"/>
<path d="M0 0 C0.33 0 0.66 0 1 0 C1.02578125 0.70640625 1.0515625 1.4128125 1.078125 2.140625 C1.53376305 10.38353147 2.91173721 18.21701113 4.62792969 26.28222656 C4.80356445 27.10948242 4.97919922 27.93673828 5.16015625 28.7890625 C5.32136963 29.52850098 5.48258301 30.26793945 5.64868164 31.02978516 C6 33 6 33 6 36 C5.34 36 4.68 36 4 36 C4 34.02 4 32.04 4 30 C3.34 30 2.68 30 2 30 C2 26.7 2 23.4 2 20 C1.34 20 0.68 20 0 20 C0 13.4 0 6.8 0 0 Z " fill="#3E3E3E" transform="translate(364,178)"/>
<path d="M0 0 C3.34373475 0.55728913 6.03312999 1.35173889 9 3 C9 3.66 9 4.32 9 5 C10.0725 5.0825 11.145 5.165 12.25 5.25 C16.2738451 6.05476902 17.48169253 6.87729874 20 10 C18.02 10 16.04 10 14 10 C14 9.34 14 8.68 14 8 C12.68 8 11.36 8 10 8 C10 7.34 10 6.68 10 6 C8.68 6 7.36 6 6 6 C6 5.34 6 4.68 6 4 C4.68 4 3.36 4 2 4 C2 3.34 2 2.68 2 2 C1.34 2 0.68 2 0 2 C0 1.34 0 0.68 0 0 Z " fill="#0F0F0F" transform="translate(162,930)"/>
<path d="M0 0 C0.66 0 1.32 0 2 0 C0.59273802 7.98869935 -2.80775689 15.11274347 -7 22 C-7.33 22 -7.66 22 -8 22 C-8 20.02 -8 18.04 -8 16 C-7.34 16 -6.68 16 -6 16 C-6 14.68 -6 13.36 -6 12 C-5.34 12 -4.68 12 -4 12 C-4 10.68 -4 9.36 -4 8 C-3.34 8 -2.68 8 -2 8 C-2 6.68 -2 5.36 -2 4 C-1.34 4 -0.68 4 0 4 C0 2.68 0 1.36 0 0 Z " fill="#2E2E2E" transform="translate(380,86)"/>
<path d="M0 0 C0 0.66 0 1.32 0 2 C-0.66 2 -1.32 2 -2 2 C-2 2.66 -2 3.32 -2 4 C-2.66 4 -3.32 4 -4 4 C-4 4.66 -4 5.32 -4 6 C-5.32 6 -6.64 6 -8 6 C-8 6.66 -8 7.32 -8 8 C-10.31 8.33 -12.62 8.66 -15 9 C-15 8.34 -15 7.68 -15 7 C-13.9275 6.401875 -12.855 5.80375 -11.75 5.1875 C-9.60024919 3.97204733 -7.7484669 2.79877352 -5.8125 1.25 C-4 0 -4 0 0 0 Z " fill="#2C2C2C" transform="translate(638,302)"/>
<path d="M0 0 C1.32 0 2.64 0 4 0 C2.75239752 3.74280743 1.3305368 4.47149847 -1.875 6.6875 C-3.20144531 7.62142578 -3.20144531 7.62142578 -4.5546875 8.57421875 C-7 10 -7 10 -10 10 C-10 9.34 -10 8.68 -10 8 C-9.34 8 -8.68 8 -8 8 C-8 7.34 -8 6.68 -8 6 C-7.34 6 -6.68 6 -6 6 C-6 5.34 -6 4.68 -6 4 C-4.68 4 -3.36 4 -2 4 C-2 3.34 -2 2.68 -2 2 C-1.34 2 -0.68 2 0 2 C0 1.34 0 0.68 0 0 Z " fill="#0D0D0D" transform="translate(136,418)"/>
<path d="M0 0 C0.66 0 1.32 0 2 0 C3.0098473 1.91149668 4.00754495 3.82941569 5 5.75 C5.8353125 7.35101563 5.8353125 7.35101563 6.6875 8.984375 C8 12 8 12 8 16 C7.34 16 6.68 16 6 16 C6 14.68 6 13.36 6 12 C5.34 12 4.68 12 4 12 C4 10.68 4 9.36 4 8 C3.34 8 2.68 8 2 8 C2 6.68 2 5.36 2 4 C1.34 4 0.68 4 0 4 C0 2.68 0 1.36 0 0 Z " fill="#2E2E2E" transform="translate(384,252)"/>
<path d="M0 0 C0.66 0 1.32 0 2 0 C-1.09990301 10.09117362 -1.09990301 10.09117362 -4 14 C-4.66 14 -5.32 14 -6 14 C-6 12.68 -6 11.36 -6 10 C-5.34 10 -4.68 10 -4 10 C-4 8.68 -4 7.36 -4 6 C-3.34 6 -2.68 6 -2 6 C-2 4.68 -2 3.36 -2 2 C-1.34 2 -0.68 2 0 2 C0 1.34 0 0.68 0 0 Z " fill="#2C2C2C" transform="translate(38,516)"/>
<path d="M0 0 C0.33 0.66 0.66 1.32 1 2 C0.67 2.99 0.34 3.98 0 5 C-0.66 5 -1.32 5 -2 5 C-2 5.66 -2 6.32 -2 7 C-2.66 7 -3.32 7 -4 7 C-4 7.66 -4 8.32 -4 9 C-4.66 9 -5.32 9 -6 9 C-6 9.66 -6 10.32 -6 11 C-6.66 11 -7.32 11 -8 11 C-8 11.66 -8 12.32 -8 13 C-9.32 12.67 -10.64 12.34 -12 12 C-10.54782324 10.49403892 -9.08807139 8.99537896 -7.625 7.5 C-6.40683594 6.24703125 -6.40683594 6.24703125 -5.1640625 4.96875 C-3 3 -3 3 -1 3 C-0.67 2.01 -0.34 1.02 0 0 Z " fill="#3C3C3C" transform="translate(648,289)"/>
<path d="M0 0 C4.62 0 9.24 0 14 0 C14 0.33 14 0.66 14 1 C10.91979223 1.70204038 7.83548264 2.38405208 4.75 3.0625 C3.87730469 3.26166016 3.00460937 3.46082031 2.10546875 3.66601562 C0.83896484 3.94155273 0.83896484 3.94155273 -0.453125 4.22265625 C-1.22817383 4.39547119 -2.00322266 4.56828613 -2.80175781 4.74633789 C-5.15175291 5.01751125 -6.76197268 4.71554459 -9 4 C-6.04335481 2.5216774 -3.25770263 2.93967217 0 3 C0 2.01 0 1.02 0 0 Z " fill="#4E4E4E" transform="translate(482,2)"/>
<path d="M0 0 C8.25 0.66 16.5 1.32 25 2 C25 2.33 25 2.66 25 3 C17.74 3 10.48 3 3 3 C3 2.34 3 1.68 3 1 C2.01 0.67 1.02 0.34 0 0 Z " fill="#525252" transform="translate(261,963)"/>
<path d="M0 0 C0.33 0.66 0.66 1.32 1 2 C0.731875 2.66 0.46375 3.32 0.1875 4 C-1.48105722 8.21530245 -2.18809018 12.55177068 -3 17 C-3.66 17 -4.32 17 -5 17 C-5 14.36 -5 11.72 -5 9 C-4.34 9 -3.68 9 -3 9 C-3 7.02 -3 5.04 -3 3 C-2.34 3 -1.68 3 -1 3 C-0.67 2.01 -0.34 1.02 0 0 Z " fill="#313131" transform="translate(13,573)"/>
<path d="M0 0 C0.66 0 1.32 0 2 0 C1.67566492 5.35152885 -1.49704824 8.28280043 -5 12 C-5.99 11.34 -6.98 10.68 -8 10 C-7.34 10 -6.68 10 -6 10 C-6 8.68 -6 7.36 -6 6 C-5.34 6 -4.68 6 -4 6 C-4 5.34 -4 4.68 -4 4 C-3.34 4 -2.68 4 -2 4 C-2 3.34 -2 2.68 -2 2 C-1.34 2 -0.68 2 0 2 C0 1.34 0 0.68 0 0 Z " fill="#0E0E0E" transform="translate(64,480)"/>
<path d="M0 0 C3.3 0 6.6 0 10 0 C10 0.33 10 0.66 10 1 C2.01144087 2.72663382 -5.97921457 4.42910884 -14 6 C-14 5.34 -14 4.68 -14 4 C-12.02 4 -10.04 4 -8 4 C-8 3.34 -8 2.68 -8 2 C-5.36 2 -2.72 2 0 2 C0 1.34 0 0.68 0 0 Z " fill="#0D0D0D" transform="translate(472,4)"/>
<path d="M0 0 C4.03809068 4.61496078 6 9.92852877 6 16 C5.34 16 4.68 16 4 16 C4 14.68 4 13.36 4 12 C3.34 12 2.68 12 2 12 C2 10.68 2 9.36 2 8 C1.34 8 0.68 8 0 8 C0 5.36 0 2.72 0 0 Z " fill="#2A2A2A" transform="translate(378,236)"/>
<path d="M0 0 C3.18673962 1.40301147 5.32221406 3.07765071 7.75 5.5625 C8.67039062 6.49255859 8.67039062 6.49255859 9.609375 7.44140625 C11 9 11 9 11 10 C9.35 10 7.7 10 6 10 C6 9.34 6 8.68 6 8 C5.34 8 4.68 8 4 8 C4 7.34 4 6.68 4 6 C3.34 6 2.68 6 2 6 C1.855625 5.38125 1.71125 4.7625 1.5625 4.125 C1.06847775 1.96741678 1.06847775 1.96741678 0 0 Z " fill="#2F2F2F" transform="translate(100,886)"/>
<path d="M0 0 C3.4340702 1.38517117 4.70022022 2.65444364 6.25 6 C6.75273438 7.051875 6.75273438 7.051875 7.265625 8.125 C8 10 8 10 8 12 C7.34 12 6.68 12 6 12 C6 11.34 6 10.68 6 10 C5.34 10 4.68 10 4 10 C4 8.68 4 7.36 4 6 C3.34 6 2.68 6 2 6 C2 5.34 2 4.68 2 4 C1.34 4 0.68 4 0 4 C0 2.68 0 1.36 0 0 Z " fill="#171717" transform="translate(54,836)"/>
<path d="M0 0 C2.64 0 5.28 0 8 0 C8 0.33 8 0.66 8 1 C7.05125 1.268125 6.1025 1.53625 5.125 1.8125 C2.87893529 2.44964897 0.64439731 3.11011866 -1.5859375 3.80078125 C-2.46507812 4.07277344 -3.34421875 4.34476562 -4.25 4.625 C-5.08015625 4.88539063 -5.9103125 5.14578125 -6.765625 5.4140625 C-9 6 -9 6 -12 6 C-12 5.34 -12 4.68 -12 4 C-10.68 4 -9.36 4 -8 4 C-8 3.34 -8 2.68 -8 2 C-5.36 2 -2.72 2 0 2 C0 1.34 0 0.68 0 0 Z " fill="#1C1C1C" transform="translate(242,372)"/>
<path d="M0 0 C0.66 0 1.32 0 2 0 C1.6619668 3.15497657 1.08066518 3.93381319 -1.4375 6 C-2.283125 6.66 -3.12875 7.32 -4 8 C-5.31165257 10.11660427 -5.31165257 10.11660427 -6 12 C-6.66 12 -7.32 12 -8 12 C-8 10.68 -8 9.36 -8 8 C-7.34 8 -6.68 8 -6 8 C-6 7.34 -6 6.68 -6 6 C-5.34 6 -4.68 6 -4 6 C-4 5.34 -4 4.68 -4 4 C-3.34 4 -2.68 4 -2 4 C-2 3.34 -2 2.68 -2 2 C-1.34 2 -0.68 2 0 2 C0 1.34 0 0.68 0 0 Z " fill="#212121" transform="translate(412,44)"/>
<path d="M0 0 C2.97 0.33 5.94 0.66 9 1 C9 1.66 9 2.32 9 3 C12.3 3.66 15.6 4.32 19 5 C19 5.33 19 5.66 19 6 C16.36 6 13.72 6 11 6 C11 5.34 11 4.68 11 4 C9.02 4 7.04 4 5 4 C5 3.34 5 2.68 5 2 C3.35 1.67 1.7 1.34 0 1 C0 0.67 0 0.34 0 0 Z " fill="#5E5E5E" transform="translate(211,950)"/>
<path d="M0 0 C0.66 0 1.32 0 2 0 C2 0.66 2 1.32 2 2 C2.8353125 2.37125 2.8353125 2.37125 3.6875 2.75 C6.39971127 4.21606015 8.63587365 6.02989471 11 8 C8.69 8 6.38 8 4 8 C4 7.34 4 6.68 4 6 C3.34 6 2.68 6 2 6 C2 5.34 2 4.68 2 4 C1.34 4 0.68 4 0 4 C0 2.68 0 1.36 0 0 Z " fill="#222222" transform="translate(426,302)"/>
<path d="M0 0 C0.33 0.99 0.66 1.98 1 3 C0.34 3 -0.32 3 -1 3 C-1 4.32 -1 5.64 -1 7 C-1.66 7 -2.32 7 -3 7 C-3 7.66 -3 8.32 -3 9 C-3.66 9 -4.32 9 -5 9 C-5 9.66 -5 10.32 -5 11 C-5.99 10.67 -6.98 10.34 -8 10 C-7.23721377 8.7035649 -6.46443041 7.41300852 -5.6875 6.125 C-5.25824219 5.40570313 -4.82898438 4.68640625 -4.38671875 3.9453125 C-3 2 -3 2 0 0 Z " fill="#181818" transform="translate(669,267)"/>
<path d="M0 0 C0.33 0 0.66 0 1 0 C1 2.31 1 4.62 1 7 C0.34 7 -0.32 7 -1 7 C-1 8.32 -1 9.64 -1 11 C-1.66 11 -2.32 11 -3 11 C-3 12.32 -3 13.64 -3 15 C-3.66 15 -4.32 15 -5 15 C-3.21678322 4.1958042 -3.21678322 4.1958042 0 0 Z " fill="#232323" transform="translate(689,229)"/>
<path d="M0 0 C0.66 0 1.32 0 2 0 C2 1.98 2 3.96 2 6 C2.66 6 3.32 6 4 6 C4 8.64 4 11.28 4 14 C4.66 14 5.32 14 6 14 C5.67 15.32 5.34 16.64 5 18 C1.90787824 11.91643021 0.43300764 6.81987029 0 0 Z " fill="#303030" transform="translate(692,110)"/>
<path d="M0 0 C5.61 0 11.22 0 17 0 C17 0.33 17 0.66 17 1 C8.97649696 2.18396883 1.13544686 3.28545428 -7 3 C-7 2.67 -7 2.34 -7 2 C-4.69 2 -2.38 2 0 2 C0 1.34 0 0.68 0 0 Z " fill="#757575" transform="translate(278,366)"/>
<path d="M0 0 C5.50904231 -0.3372883 9.06042767 0.57681358 14 3 C14.804375 3.391875 15.60875 3.78375 16.4375 4.1875 C16.953125 4.455625 17.46875 4.72375 18 5 C15.36 5 12.72 5 10 5 C10 4.34 10 3.68 10 3 C8.9171875 3.061875 8.9171875 3.061875 7.8125 3.125 C4.79270631 2.99078695 2.73064271 2.24829381 0 1 C0 0.67 0 0.34 0 0 Z " fill="#8B8B8B" transform="translate(482,331)"/>
<path d="M0 0 C1.74627478 2.61941217 2.38722388 4.03824877 3 7 C3.66 7 4.32 7 5 7 C5.33 10.3 5.66 13.6 6 17 C3.87491756 13.81237635 3.4979837 11.73487777 3 8 C2.01 8 1.02 8 0 8 C0 5.36 0 2.72 0 0 Z " fill="#818181" transform="translate(370,214)"/>
<path d="M0 0 C0.33 0 0.66 0 1 0 C1.02685938 2.14576637 1.04633088 4.29162645 1.0625 6.4375 C1.07410156 7.63246094 1.08570313 8.82742187 1.09765625 10.05859375 C1 13 1 13 0 14 C-0.23075082 15.34747084 -0.41153063 16.70377565 -0.5625 18.0625 C-0.706875 19.361875 -0.85125 20.66125 -1 22 C-1.33 22 -1.66 22 -2 22 C-2.30071865 14.44862068 -1.42625566 7.41143564 0 0 Z " fill="#C0C0C0" transform="translate(367,125)"/>
<path d="M0 0 C0.99 0.495 0.99 0.495 2 1 C2 2.65 2 4.3 2 6 C2.66 6 3.32 6 4 6 C4.33 8.64 4.66 11.28 5 14 C3.046875 13.3828125 3.046875 13.3828125 1 12 C0.390625 9.1796875 0.390625 9.1796875 0.25 5.875 C0.19328125 4.77929688 0.1365625 3.68359375 0.078125 2.5546875 C0.05234375 1.71164062 0.0265625 0.86859375 0 0 Z " fill="#7D7D7D" transform="translate(15,752)"/>
<path d="M0 0 C1.32 0 2.64 0 4 0 C4 0.66 4 1.32 4 2 C1.8125 3.5078125 1.8125 3.5078125 -1 5.125 C-1.928125 5.66382813 -2.85625 6.20265625 -3.8125 6.7578125 C-4.8953125 7.37269531 -4.8953125 7.37269531 -6 8 C-6 6.68 -6 5.36 -6 4 C-4.68 4 -3.36 4 -2 4 C-2 3.34 -2 2.68 -2 2 C-1.34 2 -0.68 2 0 2 C0 1.34 0 0.68 0 0 Z " fill="#1A1A1A" transform="translate(146,412)"/>
<path d="M0 0 C1.32 0 2.64 0 4 0 C4.33 0.66 4.66 1.32 5 2 C7.02463255 2.65213292 7.02463255 2.65213292 9 3 C9 3.66 9 4.32 9 5 C9.99 5 10.98 5 12 5 C11.67 5.66 11.34 6.32 11 7 C8.69 6.34 6.38 5.68 4 5 C4 4.34 4 3.68 4 3 C2.68 3 1.36 3 0 3 C0 2.01 0 1.02 0 0 Z " fill="#6A6A6A" transform="translate(598,12)"/>
<path d="M0 0 C2.31 0.33 4.62 0.66 7 1 C7 1.66 7 2.32 7 3 C7.66 3 8.32 3 9 3 C9 3.66 9 4.32 9 5 C9.99 5 10.98 5 12 5 C11.67 5.99 11.34 6.98 11 8 C9.16399255 6.85845641 7.33125195 5.71165684 5.5 4.5625 C4.4790625 3.92441406 3.458125 3.28632813 2.40625 2.62890625 C1.6121875 2.09136719 0.818125 1.55382812 0 1 C0 0.67 0 0.34 0 0 Z " fill="#272727" transform="translate(617,23)"/>
<path d="M0 0 C3.16115776 1.36983503 3.9927092 1.9890638 6 5 C6 6.32 6 7.64 6 9 C5.34 9 4.68 9 4 9 C4 8.34 4 7.68 4 7 C3.34 7 2.68 7 2 7 C2 5.68 2 4.36 2 3 C1.34 3 0.68 3 0 3 C0 2.01 0 1.02 0 0 Z " fill="#1A1A1A" transform="translate(40,815)"/>
<path d="M0 0 C1.98 0 3.96 0 6 0 C5.2575 0.5775 4.515 1.155 3.75 1.75 C1.33912357 3.72253526 -0.84042701 5.76044282 -3 8 C-3.66 7.67 -4.32 7.34 -5 7 C-4.67 6.01 -4.34 5.02 -4 4 C-3.34 4 -2.68 4 -2 4 C-2 3.34 -2 2.68 -2 2 C-1.34 2 -0.68 2 0 2 C0 1.34 0 0.68 0 0 Z " fill="#232323" transform="translate(122,428)"/>
<path d="M0 0 C2.64 0 5.28 0 8 0 C6.30820672 2.04219706 5.36272334 2.91793306 2.73828125 3.51171875 C1.93777344 3.56972656 1.13726562 3.62773437 0.3125 3.6875 C-0.49574219 3.75324219 -1.30398437 3.81898438 -2.13671875 3.88671875 C-2.75160156 3.92410156 -3.36648437 3.96148437 -4 4 C-4 3.34 -4 2.68 -4 2 C-2.68 2 -1.36 2 0 2 C0 1.34 0 0.68 0 0 Z " fill="#575757" transform="translate(222,378)"/>
<path d="M0 0 C5.23880078 0.55145271 9.97350697 1.42922093 15 3 C15 3.33 15 3.66 15 4 C12.03 4 9.06 4 6 4 C6 3.34 6 2.68 6 2 C4.02 2 2.04 2 0 2 C0 1.34 0 0.68 0 0 Z " fill="#191919" transform="translate(228,956)"/>
<path d="M0 0 C2.475 0.495 2.475 0.495 5 1 C5 1.66 5 2.32 5 3 C5.86625 3.185625 5.86625 3.185625 6.75 3.375 C9.02335767 4.00648824 10.9253529 4.88858191 13 6 C11.02 6 9.04 6 7 6 C7 5.34 7 4.68 7 4 C5.02 4 3.04 4 1 4 C0.67 2.68 0.34 1.36 0 0 Z " fill="#424242" transform="translate(181,938)"/>
<path d="M0 0 C2.97 0.495 2.97 0.495 6 1 C6 1.66 6 2.32 6 3 C7.65 3.33 9.3 3.66 11 4 C11 4.33 11 4.66 11 5 C8.69 5 6.38 5 4 5 C4 4.34 4 3.68 4 3 C3.01 3 2.02 3 1 3 C0.67 2.01 0.34 1.02 0 0 Z " fill="#292929" transform="translate(476,329)"/>
<path d="M0 0 C8.57142857 2 8.57142857 2 12 4 C12 4.66 12 5.32 12 6 C10.68 6 9.36 6 8 6 C8 5.34 8 4.68 8 4 C6.68 4 5.36 4 4 4 C4 3.34 4 2.68 4 2 C2.68 2 1.36 2 0 2 C0 1.34 0 0.68 0 0 Z " fill="#131313" transform="translate(444,316)"/>
<path d="M0 0 C2.97 0.495 2.97 0.495 6 1 C6 1.66 6 2.32 6 3 C6.99 3.33 7.98 3.66 9 4 C9 4.33 9 4.66 9 5 C7.02 5 5.04 5 3 5 C3 4.34 3 3.68 3 3 C2.01 2.67 1.02 2.34 0 2 C0 1.34 0 0.68 0 0 Z " fill="#313131" transform="translate(203,947)"/>
<path d="M0 0 C2.5499869 1.27499345 2.65976415 2.18491352 3.625 4.8125 C4.01558594 5.84310547 4.01558594 5.84310547 4.4140625 6.89453125 C5 9 5 9 5 13 C4.34 13 3.68 13 3 13 C3 11.68 3 10.36 3 9 C2.34 9 1.68 9 1 9 C0.67 6.03 0.34 3.06 0 0 Z " fill="#3C3C3C" transform="translate(25,781)"/>
<path d="M0 0 C0 0.66 0 1.32 0 2 C-1.32 2 -2.64 2 -4 2 C-4 2.66 -4 3.32 -4 4 C-8.455 4.495 -8.455 4.495 -13 5 C-12 3 -12 3 -10.0390625 2.1484375 C-8.84410156 1.76558594 -8.84410156 1.76558594 -7.625 1.375 C-6.83351563 1.11460937 -6.04203125 0.85421875 -5.2265625 0.5859375 C-3 0 -3 0 0 0 Z " fill="#323232" transform="translate(606,322)"/>
<path d="M0 0 C4.3177458 0.50797009 8.03302114 1.19682779 12 3 C12 3.33 12 3.66 12 4 C9.36 4 6.72 4 4 4 C4 3.34 4 2.68 4 2 C2.68 2 1.36 2 0 2 C0 1.34 0 0.68 0 0 Z " fill="#282828" transform="translate(456,322)"/>
<path d="M0 0 C0.99 0 1.98 0 3 0 C3 0.66 3 1.32 3 2 C3.66 2 4.32 2 5 2 C5 2.66 5 3.32 5 4 C6.32 4 7.64 4 9 4 C9.33 4.99 9.66 5.98 10 7 C5.61537866 6.49890042 3.1999003 5.01704885 0 2 C0 1.34 0 0.68 0 0 Z " fill="#080808" transform="translate(637,34)"/>
<path d="M0 0 C2.64 0 5.28 0 8 0 C8 0.66 8 1.32 8 2 C9.98 2 11.96 2 14 2 C14.33 2.66 14.66 3.32 15 4 C9.72684667 3.5547115 4.98229776 2.91626837 0 1 C0 0.67 0 0.34 0 0 Z " fill="#B6B6B6" transform="translate(232,956)"/>
<path d="M0 0 C1.33332095 2.6666419 0.67102033 4.16680303 0 7 C-0.66 7 -1.32 7 -2 7 C-2.33 7.99 -2.66 8.98 -3 10 C-3.29296875 3.9453125 -3.29296875 3.9453125 -3 2 C-2.01 1.34 -1.02 0.68 0 0 Z " fill="#6C6C6C" transform="translate(19,558)"/>
<path d="M0 0 C-1.3697164 3.99500618 -3.25722422 6.80009492 -6 10 C-6 8.35 -6 6.7 -6 5 C-5.34 5 -4.68 5 -4 5 C-4 3.68 -4 2.36 -4 1 C-2 0 -2 0 0 0 Z " fill="#1C1C1C" transform="translate(58,491)"/>
<path d="M0 0 C0.66 0 1.32 0 2 0 C2 1.32 2 2.64 2 4 C2.99 4 3.98 4 5 4 C5 6.31 5 8.62 5 11 C2.03947516 7.63576723 1.07710178 4.30840713 0 0 Z " fill="#333333" transform="translate(685,92)"/>
<path d="M0 0 C0.93423645 3.01031744 1.04449911 3.86650268 0 7 C-0.66 7 -1.32 7 -2 7 C-2.33 7.99 -2.66 8.98 -3 10 C-3.33 8.68 -3.66 7.36 -4 6 C-3.34 6 -2.68 6 -2 6 C-2 4.68 -2 3.36 -2 2 C-1.34 2 -0.68 2 0 2 C0 1.34 0 0.68 0 0 Z " fill="#151515" transform="translate(386,76)"/>
<path d="M0 0 C6.875 2.75 6.875 2.75 8 5 C6.02 5 4.04 5 2 5 C1.34 3.35 0.68 1.7 0 0 Z " fill="#202020" transform="translate(174,935)"/>
<path d="M0 0 C3.86107457 2.57404971 3.94319692 4.61020259 5 9 C3.68 8.67 2.36 8.34 1 8 C0.67 5.36 0.34 2.72 0 0 Z " fill="#4F4F4F" transform="translate(37,806)"/>
<path d="M0 0 C0.66 0 1.32 0 2 0 C0.94124926 3.40312738 -0.00902154 6.01353231 -2 9 C-2.66 9 -3.32 9 -4 9 C-4 8.01 -4 7.02 -4 6 C-3.34 6 -2.68 6 -2 6 C-2 5.34 -2 4.68 -2 4 C-1.34 4 -0.68 4 0 4 C0 2.68 0 1.36 0 0 Z " fill="#171717" transform="translate(28,534)"/>
<path d="M0 0 C0.99 0.33 1.98 0.66 3 1 C3.33 3.31 3.66 5.62 4 8 C3.34 8 2.68 8 2 8 C2 6.68 2 5.36 2 4 C1.34 4 0.68 4 0 4 C0 2.68 0 1.36 0 0 Z " fill="#181818" transform="translate(388,260)"/>
<path d="M0 0 C2.97 0 5.94 0 9 0 C9 0.33 9 0.66 9 1 C7.906875 1.28875 6.81375 1.5775 5.6875 1.875 C1.95986155 2.81893204 1.95986155 2.81893204 -1 5 C-0.67 3.35 -0.34 1.7 0 0 Z " fill="#262626" transform="translate(452,10)"/>
<path d="M0 0 C2.375 0.3125 2.375 0.3125 5 1 C5.66 1.99 6.32 2.98 7 4 C5.35 4 3.7 4 2 4 C2 3.34 2 2.68 2 2 C1.34 2 0.68 2 0 2 C0 1.34 0 0.68 0 0 Z " fill="#0C0C0C" transform="translate(420,300)"/>
<path d="M0 0 C2.52259061 1.97420135 2.9929808 2.96745642 3.6875 6.1875 C3.790625 7.115625 3.89375 8.04375 4 9 C3.34 9 2.68 9 2 9 C2 7.68 2 6.36 2 5 C1.34 5 0.68 5 0 5 C0 3.35 0 1.7 0 0 Z " fill="#090909" transform="translate(22,777)"/>
<path d="M0 0 C1.98 1.65 3.96 3.3 6 5 C4.68 5.33 3.36 5.66 2 6 C2 5.34 2 4.68 2 4 C1.34 4 0.68 4 0 4 C0 2.68 0 1.36 0 0 Z " fill="#4C4C4C" transform="translate(400,278)"/>
<path d="M0 0 C2.62386487 3.06117568 3 3.73173127 3 8 C2.01 8 1.02 8 0 8 C0 5.36 0 2.72 0 0 Z " fill="#444444" transform="translate(378,236)"/>
</svg>
