<?xml version="1.0" standalone="no"?>
<!DOCTYPE svg PUBLIC "-//W3C//DTD SVG 20010904//EN"
 "http://www.w3.org/TR/2001/REC-SVG-20010904/DTD/svg10.dtd">
<svg version="1.0" xmlns="http://www.w3.org/2000/svg"
 width="602.000000pt" height="360.000000pt" viewBox="0 0 602.000000 360.000000"
 preserveAspectRatio="xMidYMid meet">

<g transform="translate(0.000000,360.000000) scale(0.100000,-0.100000)"
fill="#000000" stroke="none">
<path d="M2913 3590 c-246 -44 -438 -230 -487 -472 -20 -97 -20 -139 0 -236
42 -210 196 -383 395 -447 47 -15 122 -27 200 -34 150 -12 224 -36 326 -103
121 -82 212 -208 247 -345 20 -76 20 -230 1 -303 -36 -137 -127 -265 -246
-346 -102 -69 -176 -93 -328 -105 -85 -6 -148 -17 -200 -35 -204 -68 -352
-235 -395 -446 -20 -97 -20 -139 0 -236 43 -211 195 -382 399 -448 116 -38
259 -38 368 -1 256 88 417 315 417 588 0 182 115 382 282 490 86 55 165 79
300 89 145 12 193 23 288 68 103 48 215 159 264 262 94 196 85 403 -25 586
-50 82 -154 176 -241 217 -93 44 -142 56 -286 66 -178 14 -298 67 -410 181
-108 110 -159 229 -172 405 -10 138 -23 191 -67 282 -67 137 -198 251 -343
297 -87 28 -212 39 -287 26z"/>
</g>
</svg>
