<?xml version="1.0" encoding="UTF-8"?>
<svg version="1.1" xmlns="http://www.w3.org/2000/svg" width="140" height="142">
<path d="M0 0 C46.2 0 92.4 0 140 0 C140 46.86 140 93.72 140 142 C93.8 142 47.6 142 0 142 C0 95.14 0 48.28 0 0 Z " fill="#FEFDFE" transform="translate(0,0)"/>
<path d="M0 0 C2.57936096 0.5020752 2.57936096 0.5020752 3.57936096 1.5020752 C3.91302388 4.58845722 3.808063 6.11743994 2.20436096 8.8145752 C1.66811096 9.3714502 1.13186096 9.9283252 0.57936096 10.5020752 C-0.08063904 10.5020752 -0.74063904 10.5020752 -1.42063904 10.5020752 C-1.42063904 11.1620752 -1.42063904 11.8220752 -1.42063904 12.5020752 C-2.79563904 14.1270752 -2.79563904 14.1270752 -4.42063904 15.5020752 C-5.08063904 15.5020752 -5.74063904 15.5020752 -6.42063904 15.5020752 C-6.66684998 16.08730957 -6.91306091 16.67254395 -7.16673279 17.2755127 C-8.61437672 19.84609537 -10.21306386 21.25663212 -12.48313904 23.1270752 C-15.39939615 25.45693072 -15.39939615 25.45693072 -17.42063904 28.5020752 C-18.08063904 28.5020752 -18.74063904 28.5020752 -19.42063904 28.5020752 C-19.42063904 29.1620752 -19.42063904 29.8220752 -19.42063904 30.5020752 C-20.79563904 32.1270752 -20.79563904 32.1270752 -22.42063904 33.5020752 C-23.08063904 33.5020752 -23.74063904 33.5020752 -24.42063904 33.5020752 C-24.42063904 34.1620752 -24.42063904 34.8220752 -24.42063904 35.5020752 C-25.79563904 37.1270752 -25.79563904 37.1270752 -27.42063904 38.5020752 C-28.08063904 38.5020752 -28.74063904 38.5020752 -29.42063904 38.5020752 C-29.42063904 39.1620752 -29.42063904 39.8220752 -29.42063904 40.5020752 C-30.79563904 42.1270752 -30.79563904 42.1270752 -32.42063904 43.5020752 C-33.08063904 43.5020752 -33.74063904 43.5020752 -34.42063904 43.5020752 C-34.66684998 44.08730957 -34.91306091 44.67254395 -35.16673279 45.2755127 C-36.61437672 47.84609537 -38.21306386 49.25663212 -40.48313904 51.1270752 C-43.39939615 53.45693072 -43.39939615 53.45693072 -45.42063904 56.5020752 C-46.08063904 56.5020752 -46.74063904 56.5020752 -47.42063904 56.5020752 C-47.42063904 57.1620752 -47.42063904 57.8220752 -47.42063904 58.5020752 C-48.79563904 60.1270752 -48.79563904 60.1270752 -50.42063904 61.5020752 C-51.08063904 61.5020752 -51.74063904 61.5020752 -52.42063904 61.5020752 C-52.42063904 62.1620752 -52.42063904 62.8220752 -52.42063904 63.5020752 C-53.79563904 65.1270752 -53.79563904 65.1270752 -55.42063904 66.5020752 C-56.08063904 66.5020752 -56.74063904 66.5020752 -57.42063904 66.5020752 C-57.42063904 67.1620752 -57.42063904 67.8220752 -57.42063904 68.5020752 C-58.79563904 70.1270752 -58.79563904 70.1270752 -60.42063904 71.5020752 C-61.08063904 71.5020752 -61.74063904 71.5020752 -62.42063904 71.5020752 C-62.66684998 72.08730957 -62.91306091 72.67254395 -63.16673279 73.2755127 C-64.61437672 75.84609537 -66.21306386 77.25663212 -68.48313904 79.1270752 C-71.39939615 81.45693072 -71.39939615 81.45693072 -73.42063904 84.5020752 C-74.08063904 84.5020752 -74.74063904 84.5020752 -75.42063904 84.5020752 C-75.42063904 85.1620752 -75.42063904 85.8220752 -75.42063904 86.5020752 C-80.42937521 91.39432913 -80.42937521 91.39432913 -84.29563904 91.8145752 C-84.99688904 91.7114502 -85.69813904 91.6083252 -86.42063904 91.5020752 C-87.08063904 89.8520752 -87.74063904 88.2020752 -88.42063904 86.5020752 C-83.66121924 80.94086426 -78.71437264 75.63031944 -73.5610199 70.43371582 C-72.80885696 69.6717691 -72.05669403 68.90982239 -71.28173828 68.12478638 C-68.81944698 65.63284746 -66.35313956 63.14495061 -63.88548279 60.6583252 C-63.03885134 59.80512192 -62.19221989 58.95191864 -61.31993294 58.07286072 C-56.84907693 53.56956784 -52.37426058 49.07024652 -47.8969574 44.57336426 C-44.19439436 40.8529026 -40.5005592 37.12408679 -36.81394958 33.38781738 C-32.35168533 28.86553737 -27.87503389 24.35799419 -23.38752937 19.86076355 C-21.6819433 18.14660363 -19.98150765 16.42730315 -18.28634453 14.70283508 C-15.92164815 12.29943041 -13.53892343 9.9154381 -11.15086365 7.53527832 C-10.10568069 6.46009445 -10.10568069 6.46009445 -9.03938293 5.3631897 C-4.22502752 0.62014188 -4.22502752 0.62014188 0 0 Z " fill="#202022" transform="translate(105.42063903808594,18.4979248046875)"/>
<path d="M0 0 C2.3313446 0.3782196 2.3313446 0.3782196 4.3313446 2.3782196 C4.10741132 6.83277662 2.35242831 8.82446377 -0.78193665 11.8469696 C-1.61789368 12.66552429 -2.45385071 13.48407898 -3.31513977 14.32743835 C-4.6348175 15.59007507 -4.6348175 15.59007507 -5.9811554 16.8782196 C-7.70858443 18.55306913 -9.43391538 20.23008587 -11.15693665 21.9094696 C-11.92562073 22.64745789 -12.69430481 23.38544617 -13.48628235 24.14579773 C-15.72818472 26.43911413 -17.6877751 28.85876507 -19.6686554 31.3782196 C-20.76268006 32.39187753 -21.88853012 33.37228018 -23.0436554 34.3157196 C-25.90995741 36.72859531 -28.5485141 39.26184993 -31.12568665 41.97587585 C-32.04631897 42.936026 -32.04631897 42.936026 -32.98554993 43.91557312 C-34.22184746 45.21270127 -35.4458203 46.52170123 -36.65644836 47.84281921 C-38.26476563 49.51940773 -39.7686723 51.04048235 -41.6686554 52.3782196 C-44.35841532 52.34886343 -45.74613233 52.30074267 -47.6686554 50.3782196 C-48.12307033 47.11267369 -47.95299458 45.77035664 -45.993927 43.068573 C-44.81741829 41.88609734 -44.81741829 41.88609734 -43.61714172 40.67973328 C-42.73234634 39.77917709 -41.84755096 38.87862091 -40.9359436 37.95077515 C-39.95815835 36.98193955 -38.97972325 36.01375941 -38.00068665 35.04618835 C-37.00302064 34.04515344 -36.00609781 33.04337735 -35.0098877 32.04089355 C-32.92037325 29.94401143 -30.82209258 27.85642938 -28.71723938 25.77494812 C-26.02109817 23.10729444 -23.34802842 20.41782018 -20.68112659 17.72097301 C-18.62692486 15.64869557 -16.5609523 13.58848507 -14.49123192 11.5317173 C-13.50079501 10.54461364 -12.51405296 9.55378815 -11.53112221 8.55920982 C-10.15523691 7.17061473 -8.76154452 5.79973237 -7.36714172 4.42973328 C-6.57882462 3.64539413 -5.79050751 2.86105499 -4.978302 2.052948 C-2.6686554 0.3782196 -2.6686554 0.3782196 0 0 Z " fill="#1A1A1C" transform="translate(113.66865539550781,66.62178039550781)"/>
<path d="M0 0 C46.2 0 92.4 0 140 0 C140 4.95 140 9.9 140 15 C139.01 13.515 139.01 13.515 138 12 C136.94344188 10.62484059 135.85749356 9.27197985 134.75 7.9375 C134.18796875 7.24527344 133.6259375 6.55304687 133.046875 5.83984375 C127.77687829 1.10288106 120.99537636 1.70876843 114.33227539 1.7253418 C113.26975052 1.72023087 112.20722565 1.71511993 111.11250305 1.70985413 C107.60749649 1.69597773 104.10268698 1.69691338 100.59765625 1.69921875 C98.15677314 1.69533093 95.71589071 1.69099608 93.27500916 1.68623352 C88.1615886 1.67877563 83.0482371 1.67905963 77.93481445 1.68432617 C71.38666773 1.69012198 64.83880375 1.67318472 58.29070377 1.6499815 C53.25062918 1.63524057 48.21062265 1.63437294 43.17053032 1.63749123 C40.75643796 1.63697826 38.34234177 1.63174513 35.92827034 1.62167931 C32.55103364 1.60932483 29.17434722 1.61610104 25.79711914 1.62768555 C24.8031311 1.62004181 23.80914307 1.61239807 22.78503418 1.60452271 C15.63604279 1.65864553 10.7936993 2.64087615 5.1875 7.375 C3.08702001 9.89557599 1.97690173 11.89167633 1 15 C0.67 15 0.34 15 0 15 C0 10.05 0 5.1 0 0 Z " fill="#362143" transform="translate(0,0)"/>
<path d="M0 0 C0.99 1.485 0.99 1.485 2 3 C3.07986122 4.373627 4.18632923 5.7265768 5.3125 7.0625 C5.88613281 7.75472656 6.45976563 8.44695312 7.05078125 9.16015625 C12.12171055 13.94654443 18.19423521 13.29059188 24.75366211 13.2746582 C25.83715439 13.27976913 26.92064667 13.28488007 28.03697205 13.29014587 C31.6171522 13.30404143 35.19713984 13.30308515 38.77734375 13.30078125 C41.26689221 13.30466806 43.75644 13.3090027 46.24598694 13.31376648 C51.46373647 13.32122853 56.68141833 13.32093739 61.89916992 13.31567383 C67.25633954 13.31030158 72.6133202 13.31734794 77.97045898 13.33618164 C84.44069446 13.35863738 90.91077209 13.3664347 97.38104439 13.36250877 C99.84620271 13.36302222 102.31136475 13.36826435 104.77650261 13.37832069 C108.2234993 13.39065704 111.66995532 13.38390981 115.11694336 13.37231445 C116.13479919 13.37995819 117.15265503 13.38760193 118.20135498 13.39547729 C125.11329701 13.34408643 129.39456692 12.25014675 134.75 7.625 C136.91425744 5.10003298 138.01099897 3.14682146 139 0 C139.33 0 139.66 0 140 0 C140 4.95 140 9.9 140 15 C93.8 15 47.6 15 0 15 C0 10.05 0 5.1 0 0 Z " fill="#5C2B56" transform="translate(0,127)"/>
<path d="M0 0 C0.33 0.66 0.66 1.32 1 2 C2.485 2.2475 2.485 2.2475 4 2.5 C5.485 2.7475 5.485 2.7475 7 3 C7.33 3.66 7.66 4.32 8 5 C3.38 5 -1.24 5 -6 5 C-6 4.34 -6 3.68 -6 3 C-4.02 2.01 -2.04 1.02 0 0 Z " fill="#64325D" transform="translate(132,137)"/>
<path d="M0 0 C0 0.66 0 1.32 0 2 C-4.62 2 -9.24 2 -14 2 C-13 0 -13 0 -9.8125 -1.25 C-5.68703358 -2.06156716 -3.78985917 -1.66384061 0 0 Z " fill="#63315C" transform="translate(14,140)"/>
</svg>
