<?xml version="1.0" encoding="UTF-8"?>
<svg version="1.1" xmlns="http://www.w3.org/2000/svg" width="1067" height="1658">
<path d="M0 0 C0.66 0 1.32 0 2 0 C2.57161865 1.03048462 2.57161865 1.03048462 3.15478516 2.08178711 C15.06137798 23.5417576 27.01191577 44.97621354 39.10375977 66.33251953 C43.11275806 73.41737149 47.0914122 80.51884288 51.0625 87.625 C55.33701181 95.27214861 59.6418026 102.90023427 64 110.5 C68.33437364 118.05970214 72.6204381 125.64508827 76.875 133.25 C77.46023438 134.29599365 78.04546875 135.3419873 78.6484375 136.41967773 C81.60668099 141.71053838 84.5595812 147.00433558 87.5078125 152.30078125 C93.2577747 162.61696082 99.0736225 172.88290256 105.0625 183.0625 C110.32421845 192.01079144 115.34090858 201.06674374 120.24853516 210.21337891 C124.18967006 217.54597357 128.26378807 224.79031299 132.41503906 232.00561523 C136.28110965 238.72831047 140.09040056 245.48111732 143.875 252.25 C144.45870361 253.29373779 145.04240723 254.33747559 145.64379883 255.4128418 C148.02735474 259.67692939 150.40914493 263.94200216 152.79101562 268.20703125 C158.81788073 278.99610779 164.85309457 289.77874856 171 300.5 C177.14853715 311.22409743 183.18506173 322.00973629 189.21337891 332.80175781 C198.7618836 349.89459896 208.35380551 366.96210808 218 384 C225.28329299 396.86434343 232.54221737 409.74161803 239.75830078 422.64379883 C243.20966814 428.8117604 246.67209316 434.97325296 250.15185547 441.12524414 C251.2454054 443.05945456 252.3369302 444.99481155 253.42626953 446.93139648 C255.85475438 451.2433734 258.30524768 455.53529411 260.84765625 459.78125 C261.27780029 460.51077881 261.70794434 461.24030762 262.15112305 461.99194336 C262.93691801 463.32135232 263.73555582 464.64329976 264.55004883 465.95532227 C267.00892118 470.15041463 267.13937632 472.34435969 266 477 C264.71582031 479.79467773 264.71582031 479.79467773 263.078125 482.68359375 C262.47154053 483.76398926 261.86495605 484.84438477 261.23999023 485.95751953 C260.57682631 487.11760802 259.91349193 488.27759908 259.25 489.4375 C258.56567549 490.64911848 257.88217418 491.86120225 257.19946289 493.07373047 C255.46839581 496.14369772 253.72736274 499.20787956 251.98345947 502.27056885 C250.51804663 504.84752367 249.06169993 507.42956695 247.60546875 510.01171875 C245.48947996 513.76258389 243.36933551 517.51104863 241.24609375 521.2578125 C237.81029468 527.32713222 234.40386307 533.41272772 231 539.5 C225.98898263 548.46024377 220.95227644 557.40543454 215.89233398 566.33813477 C213.10200038 571.26793504 210.32403742 576.20416551 207.56640625 581.15234375 C201.78934366 591.51681239 195.95547508 601.83570099 189.9375 612.0625 C184.67568674 621.01073332 179.65908921 630.06674787 174.75146484 639.21337891 C170.81032994 646.54597357 166.73621193 653.79031299 162.58496094 661.00561523 C158.7188907 667.72830988 154.90955206 674.48109126 151.125 681.25 C150.54057129 682.29518799 149.95614258 683.34037598 149.35400391 684.41723633 C148.1646078 686.54526011 146.97548147 688.67343469 145.78662109 690.80175781 C137.85655451 704.99742224 129.90818285 719.18225927 121.89648438 733.33203125 C117.88745722 740.4170756 113.90867649 747.51868418 109.9375 754.625 C105.66298819 762.27214861 101.3581974 769.90023427 97 777.5 C90.8513503 788.2240317 84.81493734 799.00973795 78.78662109 809.80175781 C70.85575386 823.99885548 62.90569362 838.18460567 54.89428711 852.33642578 C50.90941739 859.37975991 46.95006062 866.43709321 43 873.5 C36.90848705 884.39050429 30.77826027 895.25864027 24.63085938 906.11767578 C22.94505705 909.09710426 21.26130532 912.07768331 19.578125 915.05859375 C19.01037354 916.06390137 18.44262207 917.06920898 17.85766602 918.10498047 C16.79282446 919.99059523 15.72818697 921.87632526 14.66381836 923.76220703 C11.72409076 928.96610545 8.76871946 934.16082333 5.80200195 939.34936523 C5.43473244 939.99187981 5.06746292 940.63439438 4.68906403 941.29637909 C3.7928005 942.86430484 2.89641312 944.43215978 2 946 C-48.83929132 946.13690931 -99.67859592 946.2642791 -150.51802063 946.33874512 C-151.27013019 946.33984957 -152.02223975 946.34095403 -152.79714052 946.34209196 C-169.14142662 946.36603369 -185.48571469 946.38819536 -201.83000569 946.40852264 C-209.84492284 946.41850157 -217.85983947 946.42887397 -225.87475586 946.43945312 C-227.07114416 946.44102223 -227.07114416 946.44102223 -228.29170193 946.44262304 C-254.15679399 946.47673059 -280.02174648 946.53683344 -305.88675395 946.61037777 C-332.46032753 946.68579982 -359.03382384 946.73507452 -385.60750266 946.75131992 C-389.35847601 946.75362525 -393.10944911 946.75623035 -396.86042213 946.75901794 C-397.96782 946.75982702 -397.96782 946.75982702 -399.09758953 946.76065244 C-410.99485878 946.77011635 -422.8918895 946.80724784 -434.78906136 946.85465627 C-446.7418107 946.90169824 -458.69432292 946.91975806 -470.64716163 946.90801102 C-477.12688374 946.90286899 -483.60590417 946.91094469 -490.08550262 946.9536438 C-496.01180999 946.99241323 -501.93694013 946.99464794 -507.8633003 946.96719116 C-510.01279297 946.96379501 -512.16235742 946.97408214 -514.31170758 946.99906546 C-517.22429212 947.03096535 -520.13257306 947.01401217 -523.04508495 946.98438263 C-523.88867035 947.00539874 -524.73225575 947.02641485 -525.60140434 947.04806781 C-527.98890899 946.99280268 -529.77241888 946.86753445 -532 946 C-534.22623785 943.57463263 -535.60321984 940.96169668 -537 938 C-537.54333984 937.06341553 -538.08667969 936.12683105 -538.64648438 935.16186523 C-539.36288086 933.87324585 -539.36288086 933.87324585 -540.09375 932.55859375 C-540.64224609 931.57503906 -541.19074219 930.59148438 -541.75585938 929.578125 C-542.61920898 928.02351563 -542.61920898 928.02351563 -543.5 926.4375 C-544.74959676 924.1963897 -545.99960568 921.95550916 -547.25 919.71484375 C-548.19166016 918.02657471 -548.19166016 918.02657471 -549.15234375 916.30419922 C-551.91733875 911.35950547 -554.70757894 906.42924143 -557.5 901.5 C-562.61763777 892.4607619 -567.69933274 883.40185536 -572.76953125 874.3359375 C-576.66158037 867.38030205 -580.57333772 860.43614796 -584.5 853.5 C-589.61734803 844.46059691 -594.6993318 835.40185704 -599.76953125 826.3359375 C-603.66158037 819.38030205 -607.57333772 812.43614796 -611.5 805.5 C-616.61734803 796.46059691 -621.6993318 787.40185704 -626.76953125 778.3359375 C-630.66158037 771.38030205 -634.57333772 764.43614796 -638.5 757.5 C-643.61734803 748.46059691 -648.6993318 739.40185704 -653.76953125 730.3359375 C-657.66158037 723.38030205 -661.57333772 716.43614796 -665.5 709.5 C-670.61734803 700.46059691 -675.6993318 691.40185704 -680.76953125 682.3359375 C-684.66158037 675.38030205 -688.57333772 668.43614796 -692.5 661.5 C-697.61734803 652.46059691 -702.6993318 643.40185704 -707.76953125 634.3359375 C-711.66158037 627.38030205 -715.57333772 620.43614796 -719.5 613.5 C-724.61734803 604.46059691 -729.6993318 595.40185704 -734.76953125 586.3359375 C-738.66158037 579.38030205 -742.57333772 572.43614796 -746.5 565.5 C-751.61734803 556.46059691 -756.6993318 547.40185704 -761.76953125 538.3359375 C-765.6615811 531.38030074 -769.5735675 524.43627889 -773.5 517.5 C-778.1989031 509.193902 -782.88898822 500.88291531 -787.5625 492.5625 C-788.14644531 491.52609375 -788.73039063 490.4896875 -789.33203125 489.421875 C-789.88375 488.43832031 -790.43546875 487.45476562 -791.00390625 486.44140625 C-791.48674072 485.58232666 -791.9695752 484.72324707 -792.46704102 483.83813477 C-794.39472244 480.26920714 -796.18598787 476.62802426 -798 473 C-534.66 472.505 -534.66 472.505 -266 472 C-256.22343725 454.54341676 -256.22343725 454.54341676 -246.45288086 437.08349609 C-238.80867327 423.42072198 -231.10880568 409.78986859 -223.39550781 396.16601562 C-216.64416074 384.23931983 -209.92035813 372.29784747 -203.23071289 360.33642578 C-198.80818154 352.43261404 -194.35644508 344.54569131 -189.89453125 336.6640625 C-185.90963231 329.62053653 -181.95010006 322.56309283 -178 315.5 C-172.98940497 306.5406579 -167.95170949 297.59718026 -162.89453125 288.6640625 C-158.90963231 281.62053653 -154.95010006 274.56309283 -151 267.5 C-145.98940497 258.5406579 -140.95170949 249.59718026 -135.89453125 240.6640625 C-131.90963231 233.62053653 -127.95010006 226.56309283 -124 219.5 C-118.98892012 210.53979095 -113.95227664 201.59456583 -108.89233398 192.66186523 C-106.10200038 187.73206496 -103.32403742 182.79583449 -100.56640625 177.84765625 C-94.78934366 167.48318761 -88.95547508 157.16429901 -82.9375 146.9375 C-77.67568674 137.98926668 -72.65908921 128.93325213 -67.75146484 119.78662109 C-63.81032994 112.45402643 -59.73621193 105.20968701 -55.58496094 97.99438477 C-51.7188907 91.27169012 -47.90955206 84.51890874 -44.125 77.75 C-43.54057129 76.70481201 -42.95614258 75.65962402 -42.35400391 74.58276367 C-41.1646078 72.45473989 -39.97548147 70.32656531 -38.78662109 68.19824219 C-19.59064853 33.83540526 -19.59064853 33.83540526 -10 17 C-9.50387207 16.12617676 -9.00774414 15.25235352 -8.49658203 14.35205078 C-7.11034527 11.91722062 -5.71356951 9.48881787 -4.3125 7.0625 C-3.90225586 6.33998047 -3.49201172 5.61746094 -3.06933594 4.87304688 C-2.1029759 3.21430761 -1.05939973 1.60091845 0 0 Z " fill="#FFFFFF" transform="translate(800,709)"/>
<path d="M0 0 C2.2035718 -0.01151867 4.40712442 -0.02739842 6.61063671 -0.04727244 C12.67445792 -0.08912065 18.73671079 -0.06834093 24.80053854 -0.03741026 C30.66554027 -0.0171529 36.5302052 -0.04373606 42.39516047 -0.06888391 C55.13265982 -0.12156616 67.86965792 -0.11696818 80.60720506 -0.08809479 C91.753846 -0.06295132 102.90030308 -0.05636644 114.04696655 -0.06832123 C115.15550554 -0.069467 115.15550554 -0.069467 116.28643926 -0.07063593 C119.28629389 -0.07374925 122.28614843 -0.07693324 125.28600286 -0.08023357 C153.43412816 -0.11083217 181.58193396 -0.08307563 209.73000996 -0.0292646 C234.74473834 0.01819269 259.7589577 0.01394645 284.77368164 -0.03387451 C312.86987909 -0.08740667 340.96579419 -0.10866225 369.06203556 -0.07775187 C372.05646318 -0.07454464 375.05089087 -0.07141624 378.0453186 -0.06832123 C379.15129683 -0.06713507 379.15129683 -0.06713507 380.27961805 -0.06592494 C391.41999975 -0.05454423 402.56017754 -0.06786387 413.70053101 -0.09311676 C426.36619889 -0.12168385 439.03128658 -0.11461708 451.69688201 -0.06030932 C458.16266494 -0.03397764 464.62741333 -0.0238199 471.09318924 -0.05680084 C477.00794182 -0.08651541 482.92069733 -0.0703703 488.83526766 -0.01702532 C490.97917149 -0.00581855 493.12324271 -0.0116201 495.26703966 -0.0357832 C511.33882417 -0.20309029 511.33882417 -0.20309029 515.59975147 3.4728694 C517.18614629 6.06039594 518.16087634 8.37838114 519.04614258 11.26983643 C519.6269458 12.28134766 520.20774902 13.29285889 520.80615234 14.33502197 C521.27851318 15.18362793 521.75087402 16.03223389 522.23754883 16.90655518 C522.78282227 17.88366455 523.3280957 18.86077393 523.88989258 19.86749268 C524.45708008 20.88714111 525.02426758 21.90678955 525.60864258 22.95733643 C526.84913392 25.18021264 528.09002813 27.40286407 529.33129883 29.62530518 C529.95278809 30.73824951 530.57427734 31.85119385 531.21459961 32.99786377 C533.97592205 37.93084742 536.76002888 42.850825 539.54614258 47.76983643 C544.66370241 56.80911892 549.74547506 65.8679806 554.81567383 74.93389893 C558.70772294 81.88953437 562.6194803 88.83368846 566.54614258 95.76983643 C571.66349061 104.80923952 576.74547438 113.86797938 581.81567383 122.93389893 C585.70772294 129.88953437 589.6194803 136.83368846 593.54614258 143.76983643 C598.66349061 152.80923952 603.74547438 161.86797938 608.81567383 170.93389893 C612.70772294 177.88953437 616.6194803 184.83368846 620.54614258 191.76983643 C625.66349061 200.80923952 630.74547438 209.86797938 635.81567383 218.93389893 C639.70772294 225.88953437 643.6194803 232.83368846 647.54614258 239.76983643 C652.66349061 248.80923952 657.74547438 257.86797938 662.81567383 266.93389893 C666.70772294 273.88953437 670.6194803 280.83368846 674.54614258 287.76983643 C679.66349061 296.80923952 684.74547438 305.86797938 689.81567383 314.93389893 C693.70772294 321.88953437 697.6194803 328.83368846 701.54614258 335.76983643 C706.66349061 344.80923952 711.74547438 353.86797938 716.81567383 362.93389893 C720.70772294 369.88953437 724.6194803 376.83368846 728.54614258 383.76983643 C733.66349061 392.80923952 738.74547438 401.86797938 743.81567383 410.93389893 C747.70772349 417.88953535 751.61965032 424.83359157 755.54614258 431.76983643 C760.26861735 440.11607884 764.97803537 448.46954102 769.67114258 456.83233643 C770.2634668 457.88550049 770.85579102 458.93866455 771.46606445 460.02374268 C772.02100586 461.01374268 772.57594727 462.00374268 773.14770508 463.02374268 C773.63577637 463.8932959 774.12384766 464.76284912 774.62670898 465.65875244 C776.16762578 468.49330785 777.60328923 471.38412972 779.04614258 474.26983643 C603.15614258 474.26983643 427.26614258 474.26983643 246.04614258 474.26983643 C245.38614258 476.24983643 244.72614258 478.22983643 244.04614258 480.26983643 C243.15942894 482.04276638 242.22350598 483.79175654 241.24536133 485.51593018 C240.6871167 486.50609131 240.12887207 487.49625244 239.55371094 488.51641846 C238.95308838 489.56942139 238.35246582 490.62242432 237.73364258 491.70733643 C236.79693726 493.36418457 236.79693726 493.36418457 235.84130859 495.05450439 C234.54527984 497.34580608 233.24700131 499.63583661 231.9465332 501.92462158 C230.18813242 505.01989491 228.43586801 508.11851929 226.68676758 511.21905518 C222.94491259 517.85100229 219.19327492 524.47739696 215.44165039 531.1038208 C208.69030332 543.0305166 201.9665007 554.97198896 195.27685547 566.93341064 C190.85432412 574.83722239 186.40258766 582.72414512 181.94067383 590.60577393 C177.95577489 597.6492999 173.99624264 604.70674359 170.04614258 611.76983643 C165.03554755 620.72917853 159.99785207 629.67265616 154.94067383 638.60577393 C150.95577489 645.6492999 146.99624264 652.70674359 143.04614258 659.76983643 C138.03554755 668.72917853 132.99785207 677.67265616 127.94067383 686.60577393 C123.95577489 693.6492999 119.99624264 700.70674359 116.04614258 707.76983643 C111.03554755 716.72917853 105.99785207 725.67265616 100.94067383 734.60577393 C96.95577473 741.64930017 92.99629193 748.70677097 89.04614258 755.76983643 C81.88580366 768.57120488 74.66818013 781.33973723 67.44165039 794.1038208 C60.69030332 806.0305166 53.9665007 817.97198896 47.27685547 829.93341064 C42.85432412 837.83722239 38.40258766 845.72414512 33.94067383 853.60577393 C29.95577489 860.6492999 25.99624264 867.70674359 22.04614258 874.76983643 C17.04002789 883.72116732 12.00771551 892.65715082 6.95385742 901.581604 C2.26403333 909.86915029 -2.38725162 918.17805312 -7.0222168 926.49639893 C-8.65794727 929.42554291 -10.30461586 932.34828154 -11.95385742 935.26983643 C-12.58066406 936.39341553 -13.2074707 937.51699463 -13.85327148 938.67462158 C-14.47685547 939.77467529 -15.10043945 940.874729 -15.74291992 942.00811768 C-16.30962402 943.01527832 -16.87632812 944.02243896 -17.46020508 945.06011963 C-17.95311035 945.78932617 -18.44601562 946.51853271 -18.95385742 947.26983643 C-19.61385742 947.26983643 -20.27385742 947.26983643 -20.95385742 947.26983643 C-21.34541016 946.56189941 -21.73696289 945.8539624 -22.14038086 945.12457275 C-31.98569633 927.33264452 -31.98569633 927.33264452 -42.01635742 909.64483643 C-48.14753714 898.96428421 -54.16155144 888.21958332 -60.16723633 877.46807861 C-63.11444278 872.19226494 -66.06475471 866.91819165 -69.01635742 861.64483643 C-69.59627441 860.60875244 -70.17619141 859.57266846 -70.77368164 858.50518799 C-75.18142884 850.63605922 -79.61618982 842.78245954 -84.05957031 834.93341064 C-88.63949251 826.83830978 -93.18353404 818.72339479 -97.72338867 810.60577393 C-101.61543779 803.65013848 -105.52719515 796.70598439 -109.45385742 789.76983643 C-114.57120545 780.73043333 -119.65318922 771.67169347 -124.72338867 762.60577393 C-129.14637235 754.70128424 -133.59720245 746.81290613 -138.06152344 738.93170166 C-140.85185704 734.00190139 -143.62982001 729.06567091 -146.38745117 724.11749268 C-152.16451376 713.75302403 -157.99838234 703.43413544 -164.01635742 693.20733643 C-169.27817068 684.2591031 -174.29476821 675.20308856 -179.20239258 666.05645752 C-183.14352749 658.72386286 -187.21764549 651.47952344 -191.36889648 644.26422119 C-195.23496673 637.54152655 -199.04430536 630.78874517 -202.82885742 624.01983643 C-203.41328613 622.97464844 -203.99771484 621.92946045 -204.59985352 620.8526001 C-205.78924962 618.72457632 -206.97837595 616.59640173 -208.16723633 614.46807861 C-211.11444278 609.19226494 -214.06475471 603.91819165 -217.01635742 598.64483643 C-217.59627441 597.60875244 -218.17619141 596.57266846 -218.77368164 595.50518799 C-223.18142884 587.63605922 -227.61618982 579.78245954 -232.05957031 571.93341064 C-236.63949251 563.83830978 -241.18353404 555.72339479 -245.72338867 547.60577393 C-250.14220425 539.70873322 -254.58978815 531.82833269 -259.04833984 523.95367432 C-263.74251048 515.65728298 -268.40878185 507.34531468 -273.04199219 499.01470947 C-275.51874788 494.56951248 -278.00321088 490.14034993 -280.64916992 485.79327393 C-281.03548584 485.15140137 -281.42180176 484.50952881 -281.81982422 483.84820557 C-282.79754147 482.23694358 -283.79462747 480.6374753 -284.79370117 479.03936768 C-286.26017078 475.53860353 -285.83268231 473.93863032 -284.95385742 470.26983643 C-283.57788086 467.29156494 -283.57788086 467.29156494 -281.81323242 464.14874268 C-281.4949649 463.5762529 -281.17669739 463.00376312 -280.8487854 462.41392517 C-279.80893864 460.54851538 -278.75659945 458.69049419 -277.70385742 456.83233643 C-276.97215297 455.52578858 -276.24120457 454.21881705 -275.51098633 452.91143799 C-273.67634114 449.63204949 -271.83124059 446.35870032 -269.98156738 443.08776855 C-268.48214637 440.43541941 -266.98794158 437.78013591 -265.49291992 435.12530518 C-263.38885538 431.39440976 -261.27867608 427.66705252 -259.16479492 423.94171143 C-255.73775906 417.89747465 -252.34458024 411.83449838 -248.95385742 405.76983643 C-243.94338735 396.81042483 -238.90556653 387.86701602 -233.84838867 378.93389893 C-229.86348958 371.89037268 -225.90400678 364.83290188 -221.95385742 357.76983643 C-214.79351851 344.96846797 -207.57589497 332.19993562 -200.34936523 319.43585205 C-193.59801816 307.50915625 -186.87421555 295.56768389 -180.18457031 283.60626221 C-175.76203896 275.70245046 -171.3103025 267.81552773 -166.84838867 259.93389893 C-162.86348973 252.89037295 -158.90395749 245.83292926 -154.95385742 238.76983643 C-149.9432624 229.81049433 -144.90556691 220.86701669 -139.84838867 211.93389893 C-135.86348973 204.89037295 -131.90395749 197.83292926 -127.95385742 190.76983643 C-122.9432624 181.81049433 -117.90556691 172.86701669 -112.84838867 163.93389893 C-108.86348973 156.89037295 -104.90395749 149.83292926 -100.95385742 142.76983643 C-95.9432624 133.81049433 -90.90556691 124.86701669 -85.84838867 115.93389893 C-81.86348973 108.89037295 -77.90395749 101.83292926 -73.95385742 94.76983643 C-68.9432624 85.81049433 -63.90556691 76.86701669 -58.84838867 67.93389893 C-54.86348923 60.89037207 -50.90411939 53.83283935 -46.95385742 46.76983643 C-42.29901085 38.45066038 -37.636735 30.13577213 -32.95385742 21.83233643 C-32.43823242 20.91581299 -31.92260742 19.99928955 -31.39135742 19.05499268 C-30.89635742 18.17843018 -30.40135742 17.30186768 -29.89135742 16.39874268 C-29.46725586 15.64665527 -29.0431543 14.89456787 -28.60620117 14.11968994 C-27.78829102 12.70901245 -27.78829102 12.70901245 -26.95385742 11.26983643 C-26.71058055 10.47085253 -26.46730368 9.67186863 -26.21665478 8.84867311 C-21.73310469 -2.51491961 -10.33827213 -0.11652443 0 0 Z " fill="#FFFFFF" transform="translate(285.953857421875,-1.26983642578125)"/>
</svg>
