<svg width="1753" height="300" viewBox="0 0 1753 300" fill="none" xmlns="http://www.w3.org/2000/svg">
<path fill-rule="evenodd" clip-rule="evenodd" d="M122.333 3.53119C130.717 -1.15978 140.934 -1.1781 149.335 3.4828L258.491 64.0435C267.296 68.9284 272.757 78.2003 272.757 88.2636V209.429C272.757 219.334 267.465 228.485 258.878 233.431L149.723 296.299C141.123 301.252 130.529 301.233 121.946 296.248L13.7915 233.428C5.25344 228.469 0 219.346 0 209.478V88.2156C0 78.1879 5.42307 68.943 14.1792 64.0439L122.333 3.53119ZM21.8147 77.6703L127.976 18.2721C119.059 33.681 105.875 61.4153 106.864 87.437C108.073 119.288 121.156 133.897 134.256 148.527C147.585 163.412 160.934 178.319 161.813 211.429C162.59 240.657 148.676 265.606 138.584 283.701L138.345 284.129C135.466 284.728 132.419 284.267 129.8 282.746L21.6456 219.926C17.9207 217.763 15.6288 213.783 15.6288 209.478V88.2156C15.6288 83.8409 17.9947 79.8076 21.8147 77.6703ZM566.66 189.883C566.66 161.393 551.724 142.861 519.362 134.839L456.021 119.073C443.85 115.754 440.808 111.052 440.808 105.52C440.808 94.4557 450.489 89.7535 469.021 89.7535C495.574 89.7535 507.468 98.6047 507.468 119.626H559.192C559.192 77.3065 529.043 48.5402 468.191 48.5402C417.02 48.5402 388.807 68.7319 388.807 106.626C388.807 131.243 399.318 150.882 433.063 160.01L498.34 177.159C509.404 179.925 514.936 185.18 514.936 192.095C514.936 204.266 504.425 209.245 479.808 209.245C443.574 209.245 432.786 199.01 432.786 171.35H380.786C380.786 221.968 409.829 251.288 478.702 251.288C541.213 251.288 566.66 226.947 566.66 189.883ZM571.719 52.4126V96.3919H634.506V247.415H684.571V96.3919H747.359V52.4126H571.719ZM780.54 247.415H727.709L790.221 52.4126H882.328L944.563 247.415H891.179L872.924 188.5H798.795L780.54 247.415ZM835.859 79.7278L812.625 144.52H859.094L835.859 79.7278ZM957.111 247.415H1007.73V181.308L1061.15 181.102C1061.61 181.117 1062.07 181.125 1062.54 181.132L1062.72 181.134C1066.06 181.182 1069.91 181.238 1074.78 183.816C1080.43 186.807 1081.43 193.122 1081.43 194.784C1081.43 214.253 1082.09 247.415 1082.09 247.415H1132.75V228.686C1132.75 223.458 1132.84 217.683 1132.93 211.935L1132.93 211.923C1133.11 200.501 1133.29 189.188 1132.75 182.486C1132.09 174.177 1123.64 155.232 1099.38 153.902L1089.6 153.371C1109.79 148.946 1130.54 135.392 1130.54 104.137C1130.54 61.2638 1087.39 52.4126 1043.13 52.4126H957.111V247.415ZM1007.73 137.605V96.3919H1043.13C1064.43 96.3919 1080.47 96.9451 1080.47 117.137C1080.47 136.775 1065.54 137.605 1043.13 137.605H1007.73ZM1144.63 96.3919V52.4126H1320.27V96.3919H1257.49V247.415H1207.42V96.3919H1144.63ZM1323.75 149.776C1323.75 207.585 1362.75 251.288 1426.36 251.288C1489.71 251.288 1528.43 207.585 1528.43 149.776C1528.43 92.2429 1489.71 48.5402 1426.36 48.5402C1362.75 48.5402 1323.75 92.2429 1323.75 149.776ZM1375.75 149.776C1375.75 114.647 1392.62 94.1791 1426.36 94.1791C1459.83 94.1791 1476.71 114.371 1476.71 149.776C1476.71 185.18 1460.11 205.649 1426.36 205.649C1392.62 205.649 1375.75 185.18 1375.75 149.776ZM1602.52 247.415H1552.18V52.4126H1647.05L1701.82 221.374V52.4126H1752.16V247.415H1657.28L1602.52 79.1185V247.415Z" fill="#EBEDEF"/>
</svg>
